M48
;Layer_Color=9474304
;FILE_FORMAT=2:5
INCH,LZ
;TYPE=PLATED
T1F00S00C0.01500
T4F00S00C0.03000
T5F00S00C0.03500
T6F00S00C0.03543
T7F00S00C0.03700
T8F00S00C0.10000
%
T01
X03585Y01285
X02875Y0111
X01275Y0242
X01055
X0076Y02405
X00725Y02265
Y02215
X0055Y0248
X00915Y02635
X02885Y02825
X02875Y0185
X0285Y0333
T04
X02955Y0195
X0274Y0274
Y0284
Y0294
X0316Y0232
X0326
X0336
X0375Y02105
X0362Y032
Y033
Y034
Y03605
X0331Y03685
X02575Y03675
T05
X01855Y01175
Y01275
Y01375
Y01475
X02455
Y01375
Y01275
Y01175
Y01575
Y01675
Y01775
Y01875
Y01975
Y02075
Y02175
Y02275
Y02375
Y02475
Y02575
Y02675
Y02775
Y02875
Y02975
Y03075
X01855
Y02975
Y02875
Y02775
Y02675
Y02575
Y02475
Y02375
Y02275
Y02175
Y02075
Y01975
Y01875
Y01775
Y01675
Y01575
T06
X01Y0276
X011
X014Y02755
Y02855
X016Y02675
Y02575
Y02475
Y02375
X02705Y0186
Y0176
Y0166
Y0156
X03195Y038
X03095
T07
X0058Y01275
Y01375
Y01475
Y01575
Y01675
T08
X0378701Y0015
X0015
X0378701Y0378701
X0015
M30
