%FSLAX25Y25*%
%MOIN*%
G70*
G01*
G75*
%ADD10C,0.02000*%
%ADD11C,0.03000*%
%ADD12R,0.04724X0.02756*%
%ADD13R,0.05315X0.03347*%
%ADD14R,0.03347X0.05315*%
%ADD15O,0.07087X0.02441*%
%ADD16R,0.07087X0.02441*%
%ADD17R,0.12000X0.12000*%
%ADD18O,0.02362X0.07480*%
%ADD19R,0.02756X0.04724*%
%ADD20C,0.05000*%
%ADD21C,0.05906*%
%ADD22R,0.05906X0.05906*%
%ADD23R,0.05906X0.05906*%
%ADD24R,0.06900X0.06900*%
%ADD25C,0.06900*%
%ADD26C,0.15000*%
%ADD27C,0.06500*%
%ADD28R,0.06500X0.06500*%
%ADD29O,0.05600X0.15200*%
%ADD30O,0.13200X0.05600*%
%ADD31O,0.06000X0.20200*%
%ADD32C,0.06000*%
%ADD33C,0.03000*%
%ADD34C,0.01000*%
%ADD35C,0.00984*%
%ADD36C,0.00787*%
%ADD37C,0.02362*%
%ADD38C,0.01181*%
G36*
X146649Y344669D02*
X146634D01*
X146575Y344640D01*
X146487Y344596D01*
X146370Y344552D01*
X146224Y344479D01*
X146063Y344391D01*
X145887Y344288D01*
X145682Y344171D01*
X145477Y344025D01*
X145258Y343879D01*
X145038Y343703D01*
X144819Y343513D01*
X144599Y343293D01*
X144394Y343073D01*
X144189Y342825D01*
X143999Y342561D01*
X143984Y342546D01*
X143955Y342502D01*
X143911Y342415D01*
X143852Y342312D01*
X143779Y342180D01*
X143691Y342019D01*
X143618Y341829D01*
X143530Y341624D01*
X143428Y341404D01*
X143355Y341170D01*
X143267Y340907D01*
X143193Y340629D01*
X143135Y340350D01*
X143091Y340057D01*
X143062Y339750D01*
X143047Y339443D01*
Y339428D01*
Y339399D01*
Y339340D01*
X143062Y339267D01*
Y339164D01*
X143076Y339062D01*
X143106Y338798D01*
X143150Y338506D01*
X143237Y338198D01*
X143340Y337876D01*
X143486Y337583D01*
Y337569D01*
X143501Y337554D01*
X143574Y337466D01*
X143662Y337349D01*
X143794Y337217D01*
X143940Y337071D01*
X144116Y336954D01*
X144306Y336866D01*
X144423Y336851D01*
X144526Y336837D01*
X144584D01*
X144658Y336851D01*
X144731Y336866D01*
X144833Y336910D01*
X144950Y336954D01*
X145067Y337027D01*
X145199Y337115D01*
X145331Y337232D01*
X145448Y337378D01*
X145565Y337554D01*
X145668Y337759D01*
X145756Y338008D01*
X145814Y338315D01*
X145858Y338652D01*
X145873Y339033D01*
Y339047D01*
Y339077D01*
Y339121D01*
Y339194D01*
X145858Y339355D01*
X145829Y339574D01*
X145785Y339809D01*
X145726Y340043D01*
X145638Y340277D01*
X145521Y340482D01*
X145507Y340511D01*
X145463Y340570D01*
X145389Y340643D01*
X145287Y340746D01*
X145155Y340833D01*
X145009Y340921D01*
X144848Y340980D01*
X144658Y340995D01*
X144584D01*
X144526Y340980D01*
X144379Y340965D01*
X144189Y340907D01*
X143955Y341302D01*
X143984Y341317D01*
X144043Y341346D01*
X144145Y341375D01*
X144277Y341434D01*
X144423Y341478D01*
X144584Y341507D01*
X144760Y341536D01*
X144936Y341551D01*
X145024D01*
X145097Y341536D01*
X145258Y341522D01*
X145477Y341463D01*
X145726Y341375D01*
X145975Y341258D01*
X146239Y341082D01*
X146356Y340965D01*
X146473Y340848D01*
X146487Y340833D01*
X146502Y340819D01*
X146531Y340775D01*
X146575Y340716D01*
X146619Y340658D01*
X146663Y340570D01*
X146780Y340350D01*
X146897Y340087D01*
X146985Y339765D01*
X147058Y339399D01*
X147088Y338974D01*
Y338960D01*
Y338930D01*
Y338857D01*
X147073Y338784D01*
Y338681D01*
X147044Y338579D01*
X147000Y338301D01*
X146912Y338008D01*
X146780Y337686D01*
X146707Y337525D01*
X146605Y337364D01*
X146502Y337203D01*
X146370Y337056D01*
X146356Y337042D01*
X146341Y337027D01*
X146297Y336983D01*
X146239Y336939D01*
X146165Y336881D01*
X146092Y336822D01*
X145873Y336676D01*
X145609Y336529D01*
X145287Y336412D01*
X144921Y336324D01*
X144716Y336310D01*
X144511Y336295D01*
X144394D01*
X144321Y336310D01*
X144218Y336324D01*
X144101Y336339D01*
X143838Y336412D01*
X143530Y336515D01*
X143369Y336588D01*
X143208Y336676D01*
X143047Y336778D01*
X142886Y336910D01*
X142740Y337042D01*
X142593Y337203D01*
X142579Y337217D01*
X142564Y337247D01*
X142520Y337291D01*
X142476Y337364D01*
X142418Y337466D01*
X142359Y337569D01*
X142300Y337701D01*
X142227Y337847D01*
X142154Y338023D01*
X142095Y338198D01*
X142037Y338403D01*
X141978Y338623D01*
X141935Y338857D01*
X141891Y339106D01*
X141876Y339369D01*
X141861Y339648D01*
Y339662D01*
Y339735D01*
X141876Y339823D01*
Y339970D01*
X141905Y340131D01*
X141920Y340321D01*
X141964Y340526D01*
X142008Y340775D01*
X142081Y341024D01*
X142154Y341287D01*
X142257Y341565D01*
X142374Y341858D01*
X142520Y342151D01*
X142681Y342444D01*
X142857Y342737D01*
X143076Y343029D01*
X143091Y343044D01*
X143135Y343103D01*
X143208Y343176D01*
X143296Y343278D01*
X143428Y343395D01*
X143574Y343542D01*
X143750Y343703D01*
X143955Y343864D01*
X144189Y344040D01*
X144438Y344215D01*
X144716Y344391D01*
X145024Y344552D01*
X145346Y344713D01*
X145697Y344874D01*
X146078Y345006D01*
X146473Y345123D01*
X146649Y344669D01*
D02*
G37*
G36*
X112586Y362537D02*
X111268Y362347D01*
X111239D01*
X111180Y362332D01*
X111107Y362318D01*
X111063Y362303D01*
X111034Y362259D01*
X111005Y362186D01*
X110990Y362142D01*
X110961Y362069D01*
X108633Y355217D01*
X108618Y355203D01*
X108604Y355144D01*
X108589Y355086D01*
Y355042D01*
X108618Y355027D01*
X108677Y355012D01*
X110375D01*
X110609Y355027D01*
X110858Y355042D01*
X111107Y355056D01*
X111341Y355086D01*
X111429Y355100D01*
X111517Y355115D01*
X111532D01*
X111590Y355144D01*
X111678Y355173D01*
X111795Y355232D01*
X111927Y355291D01*
X112088Y355393D01*
X112264Y355496D01*
X112454Y355642D01*
X112483Y355657D01*
X112542Y355715D01*
X112659Y355818D01*
X112805Y355949D01*
X112966Y356125D01*
X113171Y356330D01*
X113376Y356579D01*
X113596Y356857D01*
X114035D01*
X112820Y354456D01*
X112688D01*
X112600Y354471D01*
X112132D01*
X111912Y354485D01*
X111107D01*
X110770Y354500D01*
X107711D01*
X107096Y354485D01*
X106495D01*
X106203Y354471D01*
X105690D01*
X105485Y354456D01*
X105632Y354866D01*
X106979Y355056D01*
X107023D01*
X107110Y355086D01*
X107213Y355130D01*
X107257Y355159D01*
X107286Y355203D01*
X109614Y362069D01*
Y362084D01*
X109628Y362098D01*
X109643Y362157D01*
X109658Y362230D01*
X109643Y362288D01*
Y362303D01*
X109614Y362318D01*
X109555Y362332D01*
X109467Y362347D01*
X108428Y362537D01*
X108574Y362991D01*
X108823D01*
X108940Y362977D01*
X109614D01*
X109848Y362962D01*
X111883D01*
X112103Y362977D01*
X112542D01*
X112747Y362991D01*
X112586Y362537D01*
D02*
G37*
G36*
X116651Y345064D02*
X116988Y345050D01*
X117325Y345021D01*
X117661Y344977D01*
X117969Y344933D01*
X117998D01*
X118042Y344918D01*
X118101Y344903D01*
X118247Y344859D01*
X118437Y344815D01*
X118672Y344742D01*
X118920Y344640D01*
X119169Y344523D01*
X119433Y344391D01*
X119447D01*
X119462Y344376D01*
X119550Y344318D01*
X119667Y344245D01*
X119828Y344127D01*
X120004Y343996D01*
X120194Y343835D01*
X120384Y343659D01*
X120560Y343469D01*
X120575Y343439D01*
X120633Y343381D01*
X120706Y343264D01*
X120809Y343132D01*
X120911Y342956D01*
X121029Y342751D01*
X121131Y342517D01*
X121233Y342268D01*
X121248Y342239D01*
X121277Y342151D01*
X121307Y342019D01*
X121365Y341844D01*
X121409Y341624D01*
X121439Y341390D01*
X121468Y341126D01*
X121482Y340848D01*
Y340833D01*
Y340790D01*
Y340731D01*
X121468Y340629D01*
Y340526D01*
X121453Y340394D01*
X121424Y340233D01*
X121395Y340072D01*
X121307Y339691D01*
X121190Y339282D01*
X121014Y338842D01*
X120897Y338623D01*
X120780Y338403D01*
X120765Y338389D01*
X120750Y338359D01*
X120706Y338286D01*
X120648Y338213D01*
X120589Y338125D01*
X120501Y338008D01*
X120282Y337774D01*
X120018Y337510D01*
X119711Y337261D01*
X119360Y337042D01*
X119155Y336939D01*
X118950Y336866D01*
X118935D01*
X118906Y336851D01*
X118833Y336837D01*
X118759Y336807D01*
X118657Y336778D01*
X118540Y336749D01*
X118408Y336720D01*
X118262Y336690D01*
X117925Y336617D01*
X117559Y336559D01*
X117164Y336515D01*
X116768Y336500D01*
X114646Y336529D01*
X111893D01*
Y336983D01*
X112991Y337217D01*
X113021D01*
X113094Y337247D01*
X113181Y337276D01*
X113240Y337334D01*
X113255Y337349D01*
Y337378D01*
X113269Y337422D01*
X113284Y337481D01*
Y337554D01*
X113299Y337642D01*
Y337759D01*
Y343849D01*
Y343864D01*
Y343893D01*
Y343937D01*
Y343996D01*
X113269Y344127D01*
X113255Y344171D01*
X113240Y344215D01*
X113225Y344230D01*
X113196Y344259D01*
X113123Y344303D01*
X113021Y344332D01*
X112025Y344508D01*
Y344962D01*
X113357D01*
X113767Y344977D01*
X114206Y345006D01*
X114323D01*
X114411Y345021D01*
X114499D01*
X114616Y345035D01*
X114880Y345050D01*
X115158D01*
X115436Y345064D01*
X115700Y345079D01*
X116358D01*
X116651Y345064D01*
D02*
G37*
G36*
X138802Y337422D02*
Y337408D01*
Y337364D01*
X138816Y337320D01*
X138845Y337247D01*
X138889Y337173D01*
X138948Y337115D01*
X139021Y337056D01*
X139138Y337027D01*
X139870Y336910D01*
Y336471D01*
X139651D01*
X139563Y336485D01*
X139080D01*
X138802Y336500D01*
X137411D01*
X137118Y336485D01*
X136825D01*
X136518Y336471D01*
Y336910D01*
X137352Y337042D01*
X137367D01*
X137396Y337056D01*
X137513Y337115D01*
X137557Y337173D01*
X137616Y337232D01*
X137645Y337320D01*
X137660Y337422D01*
Y343776D01*
X136196Y342766D01*
X135917Y343176D01*
X135932Y343191D01*
X135961Y343205D01*
X136020Y343249D01*
X136079Y343293D01*
X136181Y343366D01*
X136283Y343454D01*
X136415Y343542D01*
X136547Y343659D01*
X136708Y343791D01*
X136884Y343937D01*
X137264Y344259D01*
X137704Y344640D01*
X138172Y345079D01*
X138802D01*
Y337422D01*
D02*
G37*
G36*
X146873Y359375D02*
X146287Y359229D01*
X146258D01*
X146199Y359199D01*
X146097Y359141D01*
X145980Y359053D01*
X145950Y359024D01*
X145877Y358951D01*
X145819Y358892D01*
X145745Y358819D01*
X145658Y358716D01*
X145555Y358614D01*
X141324Y352699D01*
Y352685D01*
X141309Y352670D01*
X141236Y352582D01*
X141148Y352450D01*
X141017Y352289D01*
X140870Y352114D01*
X140695Y351923D01*
X140519Y351762D01*
X140343Y351616D01*
X140329Y351601D01*
X140270Y351557D01*
X140167Y351499D01*
X140050Y351440D01*
X139919Y351382D01*
X139772Y351323D01*
X139611Y351279D01*
X139450Y351265D01*
X139421D01*
X139348Y351279D01*
X139245Y351294D01*
X139128Y351338D01*
X139026Y351396D01*
X138952Y351499D01*
X138923Y351557D01*
Y351631D01*
Y351718D01*
X138952Y351821D01*
X138967Y351850D01*
X138996Y351909D01*
X139055Y352011D01*
X139128Y352128D01*
X139245Y352231D01*
X139377Y352333D01*
X139553Y352392D01*
X139758Y352421D01*
X139889D01*
X140021Y352392D01*
X140182Y352363D01*
X140226D01*
X140270Y352348D01*
X140343D01*
X140373Y352363D01*
X140416Y352392D01*
X140431Y352407D01*
X140460Y352421D01*
X140490Y352465D01*
X140548Y352509D01*
X140621Y352582D01*
X140709Y352685D01*
X140826Y352802D01*
X140841Y352816D01*
X140885Y352860D01*
X140943Y352948D01*
X141031Y353036D01*
X141134Y353168D01*
X141236Y353299D01*
X141353Y353461D01*
X141471Y353622D01*
X141485Y353636D01*
X141529Y353695D01*
X141573Y353768D01*
X141631Y353856D01*
X141749Y354046D01*
X141793Y354119D01*
X141822Y354178D01*
Y354193D01*
X141837Y354222D01*
X141851Y354266D01*
Y354324D01*
X141880Y354471D01*
Y354676D01*
X141734Y358965D01*
Y358980D01*
Y358995D01*
X141705Y359068D01*
X141646Y359156D01*
X141602Y359185D01*
X141544Y359214D01*
X141046Y359375D01*
X141192Y359814D01*
X141280D01*
X141339Y359800D01*
X141514D01*
X141719Y359785D01*
X141939Y359770D01*
X142188D01*
X142407Y359756D01*
X142891D01*
X143096Y359770D01*
X143315D01*
X143564Y359785D01*
X144106Y359814D01*
X143959Y359375D01*
X142978Y359185D01*
X142964D01*
X142935Y359170D01*
X142905Y359156D01*
X142876Y359141D01*
Y359112D01*
X142861Y359038D01*
X142817Y355364D01*
X145013Y358629D01*
Y358643D01*
X145028Y358658D01*
X145072Y358731D01*
X145131Y358833D01*
X145174Y358921D01*
Y358936D01*
X145189Y358951D01*
Y359038D01*
Y359082D01*
X145174Y359126D01*
X145131Y359156D01*
X145087Y359170D01*
X144355Y359375D01*
X144516Y359814D01*
X144545D01*
X144633Y359800D01*
X144764D01*
X144925Y359785D01*
X145116Y359770D01*
X145321D01*
X145526Y359756D01*
X145921D01*
X146067Y359770D01*
X146258D01*
X146477Y359785D01*
X146726Y359800D01*
X147019Y359814D01*
X146873Y359375D01*
D02*
G37*
G36*
X157897Y355759D02*
Y355744D01*
X157882Y355700D01*
X157853Y355642D01*
X157838Y355554D01*
X157823Y355408D01*
Y355349D01*
X157838Y355305D01*
X157867Y355291D01*
X157897D01*
X157970Y355276D01*
X158058Y355261D01*
X158204Y355247D01*
X158380Y355232D01*
X158497Y355217D01*
X158614D01*
X158497Y354807D01*
X156272Y354310D01*
X156608Y355291D01*
X156579Y355276D01*
X156520Y355217D01*
X156418Y355130D01*
X156272Y355027D01*
X156111Y354910D01*
X155920Y354778D01*
X155715Y354661D01*
X155496Y354559D01*
X155466Y354544D01*
X155393Y354515D01*
X155291Y354471D01*
X155144Y354427D01*
X154969Y354383D01*
X154793Y354339D01*
X154588Y354310D01*
X154398Y354295D01*
X154368D01*
X154280Y354310D01*
X154163Y354324D01*
X154002Y354354D01*
X153841Y354427D01*
X153680Y354515D01*
X153519Y354632D01*
X153402Y354807D01*
X153387Y354837D01*
X153358Y354910D01*
X153329Y355012D01*
X153300Y355173D01*
X153285Y355378D01*
Y355613D01*
X153329Y355876D01*
X153402Y356184D01*
X154339Y358921D01*
Y358936D01*
X154354Y358951D01*
Y359009D01*
Y359082D01*
X154310Y359141D01*
X154295Y359156D01*
X154251Y359170D01*
X154193Y359199D01*
X154105Y359214D01*
X153988Y359258D01*
X153827Y359287D01*
X153622Y359331D01*
X153768Y359756D01*
X155730D01*
X154529Y356242D01*
X154515Y356213D01*
X154500Y356140D01*
X154471Y356037D01*
X154441Y355920D01*
X154412Y355774D01*
X154398Y355642D01*
Y355525D01*
X154427Y355422D01*
Y355408D01*
X154456Y355393D01*
X154485Y355364D01*
X154559Y355320D01*
X154632Y355276D01*
X154749Y355247D01*
X154895Y355232D01*
X155071Y355217D01*
X155159D01*
X155217Y355232D01*
X155291D01*
X155378Y355247D01*
X155598Y355291D01*
X155862Y355364D01*
X156154Y355466D01*
X156462Y355613D01*
X156784Y355818D01*
X157838Y358907D01*
Y358921D01*
X157853Y358936D01*
Y359009D01*
X157838Y359082D01*
X157809Y359112D01*
X157765Y359141D01*
X157736Y359156D01*
X157677Y359170D01*
X157589Y359185D01*
X157472Y359199D01*
X157296Y359229D01*
X157179Y359243D01*
X157062Y359258D01*
X156916Y359273D01*
X156755Y359287D01*
X156916Y359756D01*
X159258D01*
X157897Y355759D01*
D02*
G37*
G36*
X140914Y363138D02*
X140973Y363123D01*
X141031Y363094D01*
X141104Y363064D01*
X141178Y363006D01*
X141236Y362933D01*
Y362918D01*
X141265Y362903D01*
X141280Y362859D01*
X141309Y362801D01*
X141339Y362640D01*
Y362552D01*
X141309Y362450D01*
Y362435D01*
X141295Y362406D01*
X141265Y362362D01*
X141222Y362288D01*
X141178Y362215D01*
X141104Y362142D01*
X141017Y362054D01*
X140914Y361981D01*
X140900Y361966D01*
X140870Y361952D01*
X140812Y361923D01*
X140724Y361893D01*
X140533Y361820D01*
X140431Y361805D01*
X140314Y361791D01*
X140270D01*
X140226Y361805D01*
X140153Y361820D01*
X140021Y361879D01*
X139963Y361923D01*
X139904Y361981D01*
Y361996D01*
X139889Y362010D01*
X139875Y362054D01*
X139860Y362113D01*
X139845Y362259D01*
Y362347D01*
X139875Y362450D01*
Y362464D01*
X139889Y362493D01*
X139919Y362552D01*
X139963Y362611D01*
X140006Y362684D01*
X140080Y362772D01*
X140153Y362859D01*
X140255Y362933D01*
X140270Y362947D01*
X140299Y362962D01*
X140358Y363006D01*
X140431Y363050D01*
X140607Y363123D01*
X140709Y363138D01*
X140812Y363152D01*
X140856D01*
X140914Y363138D01*
D02*
G37*
G36*
X136346Y363064D02*
X136449D01*
X136566Y363050D01*
X136830Y363006D01*
X137122Y362918D01*
X137430Y362801D01*
X137723Y362654D01*
X137854Y362552D01*
X137971Y362435D01*
X137342Y360751D01*
X136917D01*
Y360766D01*
Y360824D01*
X136932Y360912D01*
Y361015D01*
X136917Y361147D01*
X136903Y361293D01*
X136888Y361454D01*
X136844Y361615D01*
X136786Y361761D01*
X136713Y361923D01*
X136625Y362069D01*
X136507Y362201D01*
X136361Y362303D01*
X136185Y362391D01*
X135980Y362450D01*
X135732Y362464D01*
X135615D01*
X135497Y362450D01*
X135336Y362420D01*
X135146Y362376D01*
X134941Y362303D01*
X134736Y362215D01*
X134517Y362098D01*
X134487Y362084D01*
X134429Y362040D01*
X134326Y361952D01*
X134224Y361849D01*
X134092Y361732D01*
X133975Y361586D01*
X133872Y361410D01*
X133784Y361234D01*
Y361220D01*
X133770Y361176D01*
X133755Y361103D01*
Y361000D01*
Y360883D01*
X133784Y360766D01*
X133828Y360634D01*
X133902Y360502D01*
X133916Y360488D01*
X133960Y360444D01*
X134033Y360371D01*
X134151Y360254D01*
X134311Y360122D01*
X134531Y359961D01*
X134648Y359873D01*
X134795Y359770D01*
X134956Y359668D01*
X135131Y359551D01*
X135146D01*
X135175Y359522D01*
X135234Y359492D01*
X135307Y359434D01*
X135395Y359390D01*
X135483Y359317D01*
X135717Y359156D01*
X135951Y358980D01*
X136200Y358775D01*
X136420Y358585D01*
X136507Y358482D01*
X136595Y358380D01*
X136610Y358350D01*
X136654Y358292D01*
X136713Y358175D01*
X136756Y357999D01*
X136786Y357794D01*
X136800Y357530D01*
X136756Y357223D01*
X136713Y357062D01*
X136654Y356872D01*
Y356857D01*
X136639Y356828D01*
X136610Y356755D01*
X136581Y356681D01*
X136537Y356579D01*
X136478Y356462D01*
X136332Y356198D01*
X136127Y355905D01*
X135878Y355598D01*
X135732Y355437D01*
X135571Y355291D01*
X135395Y355144D01*
X135205Y354998D01*
X135190Y354983D01*
X135161Y354969D01*
X135102Y354939D01*
X135014Y354895D01*
X134926Y354837D01*
X134795Y354778D01*
X134663Y354720D01*
X134502Y354646D01*
X134326Y354588D01*
X134136Y354515D01*
X133931Y354456D01*
X133711Y354412D01*
X133243Y354324D01*
X132979Y354310D01*
X132716Y354295D01*
X132584D01*
X132496Y354310D01*
X132379D01*
X132262Y354324D01*
X132115Y354354D01*
X131955Y354383D01*
X131603Y354456D01*
X131222Y354573D01*
X130857Y354734D01*
X130666Y354837D01*
X130491Y354954D01*
X131384Y357121D01*
X131823D01*
Y357106D01*
X131808Y357077D01*
Y357018D01*
X131793Y356945D01*
X131779Y356857D01*
X131764Y356755D01*
Y356520D01*
Y356257D01*
X131808Y355979D01*
X131881Y355715D01*
X131940Y355598D01*
X132013Y355481D01*
X132028Y355452D01*
X132101Y355393D01*
X132189Y355291D01*
X132320Y355188D01*
X132496Y355086D01*
X132701Y354983D01*
X132935Y354925D01*
X133199Y354895D01*
X133331D01*
X133462Y354925D01*
X133638Y354954D01*
X133858Y354998D01*
X134077Y355071D01*
X134326Y355173D01*
X134560Y355320D01*
X134575D01*
X134590Y355334D01*
X134663Y355393D01*
X134780Y355481D01*
X134912Y355613D01*
X135044Y355759D01*
X135190Y355920D01*
X135307Y356125D01*
X135395Y356330D01*
X135409Y356359D01*
X135424Y356418D01*
X135439Y356506D01*
X135453Y356637D01*
Y356769D01*
X135424Y356916D01*
X135380Y357062D01*
X135292Y357208D01*
X135278Y357223D01*
X135234Y357282D01*
X135161Y357355D01*
X135058Y357457D01*
X134912Y357589D01*
X134721Y357735D01*
X134502Y357911D01*
X134224Y358087D01*
X134209Y358101D01*
X134180Y358116D01*
X134121Y358160D01*
X134033Y358204D01*
X133946Y358277D01*
X133843Y358350D01*
X133609Y358526D01*
X133360Y358731D01*
X133111Y358951D01*
X132891Y359170D01*
X132804Y359287D01*
X132730Y359404D01*
X132716Y359434D01*
X132686Y359507D01*
X132628Y359639D01*
X132584Y359814D01*
X132555Y360019D01*
X132540Y360254D01*
X132569Y360517D01*
X132643Y360810D01*
Y360824D01*
X132657Y360854D01*
X132686Y360912D01*
X132716Y360971D01*
X132745Y361059D01*
X132804Y361161D01*
X132935Y361381D01*
X133111Y361644D01*
X133345Y361923D01*
X133623Y362186D01*
X133784Y362318D01*
X133960Y362435D01*
X133975Y362450D01*
X134004Y362464D01*
X134063Y362493D01*
X134136Y362537D01*
X134224Y362581D01*
X134341Y362640D01*
X134458Y362698D01*
X134604Y362757D01*
X134926Y362874D01*
X135292Y362977D01*
X135702Y363050D01*
X135922Y363079D01*
X136259D01*
X136346Y363064D01*
D02*
G37*
G36*
X111527Y344962D02*
Y344889D01*
X111513Y344801D01*
Y344669D01*
Y344493D01*
X111498Y344303D01*
Y344069D01*
Y343820D01*
Y343791D01*
Y343718D01*
Y343615D01*
Y343483D01*
Y343322D01*
Y343161D01*
X111513Y342825D01*
X111088D01*
Y342839D01*
X111073Y342868D01*
X111059Y342927D01*
X111044Y342986D01*
X110986Y343161D01*
X110912Y343366D01*
X110839Y343586D01*
X110751Y343791D01*
X110678Y343966D01*
X110634Y344040D01*
X110605Y344083D01*
Y344098D01*
X110576Y344127D01*
X110532Y344157D01*
X110488Y344201D01*
X110415Y344245D01*
X110327Y344288D01*
X110224Y344303D01*
X110107Y344318D01*
X107267D01*
X107208Y344303D01*
X107150Y344288D01*
X107091Y344245D01*
Y344230D01*
X107077Y344171D01*
X107062Y344127D01*
Y344069D01*
X107047Y343996D01*
Y343908D01*
Y341126D01*
X109727D01*
X109800Y341141D01*
X109858Y341170D01*
X109873Y341185D01*
X109888Y341229D01*
X109931Y341302D01*
X109946Y341375D01*
X109961Y341448D01*
X110195Y342444D01*
X110649D01*
Y342415D01*
Y342341D01*
Y342210D01*
Y342034D01*
X110634Y341814D01*
Y341536D01*
Y341229D01*
Y340877D01*
Y340863D01*
Y340848D01*
Y340804D01*
Y340746D01*
Y340599D01*
Y340409D01*
X110649Y340160D01*
Y339896D01*
Y339604D01*
X110663Y339282D01*
X110239D01*
X109931Y340292D01*
Y340306D01*
X109917Y340321D01*
X109888Y340394D01*
X109844Y340467D01*
X109814Y340497D01*
X109785Y340511D01*
X109770Y340526D01*
X109741D01*
X109697Y340541D01*
X109639D01*
X109551Y340555D01*
X107047D01*
Y337364D01*
Y337349D01*
Y337320D01*
X107062Y337217D01*
X107077Y337115D01*
X107091Y337086D01*
X107106Y337056D01*
X107121D01*
X107165Y337042D01*
X107208Y337027D01*
X107267D01*
X107325Y337012D01*
X107413Y336998D01*
X108380Y336895D01*
Y336456D01*
X108277D01*
X108204Y336471D01*
X107999D01*
X107735Y336485D01*
X107443D01*
X107121Y336500D01*
X105730D01*
X105422Y336485D01*
X105100D01*
X104778Y336471D01*
X104485Y336456D01*
Y336895D01*
X105437Y336998D01*
X105466D01*
X105525Y337027D01*
X105598Y337042D01*
X105657Y337086D01*
X105671Y337100D01*
X105686Y337144D01*
X105701Y337217D01*
Y337349D01*
Y343937D01*
Y343952D01*
Y343981D01*
Y344069D01*
X105686Y344186D01*
X105671Y344230D01*
X105657Y344274D01*
X105642Y344288D01*
X105613Y344332D01*
X105569Y344362D01*
X105481Y344391D01*
X104588Y344493D01*
Y344977D01*
X105481D01*
X105774Y344962D01*
X110956D01*
X111249Y344977D01*
X111527D01*
Y344962D01*
D02*
G37*
G36*
X111239Y285325D02*
X111273Y285320D01*
X111317Y285315D01*
X111361Y285306D01*
X111415Y285296D01*
X111522Y285262D01*
X111581Y285237D01*
X111639Y285213D01*
X111698Y285179D01*
X111756Y285140D01*
X111810Y285096D01*
X111864Y285047D01*
X111868Y285042D01*
X111873Y285032D01*
X111888Y285018D01*
X111907Y284998D01*
X111927Y284969D01*
X111951Y284935D01*
X111976Y284896D01*
X112000Y284852D01*
X112049Y284754D01*
X112093Y284632D01*
X112127Y284500D01*
X112132Y284427D01*
X112137Y284349D01*
Y284344D01*
Y284334D01*
Y284310D01*
X112132Y284286D01*
X112127Y284251D01*
X112122Y284212D01*
X112103Y284125D01*
X112068Y284022D01*
X112044Y283968D01*
X112015Y283915D01*
X111981Y283861D01*
X111946Y283807D01*
X111898Y283754D01*
X111849Y283700D01*
X111844Y283695D01*
X111834Y283690D01*
X111820Y283676D01*
X111795Y283656D01*
X111771Y283637D01*
X111737Y283617D01*
X111693Y283593D01*
X111649Y283568D01*
X111600Y283539D01*
X111541Y283515D01*
X111419Y283476D01*
X111278Y283441D01*
X111200Y283437D01*
X111117Y283432D01*
X111078D01*
X111049Y283437D01*
X111014Y283441D01*
X110975Y283446D01*
X110883Y283466D01*
X110775Y283495D01*
X110658Y283544D01*
X110600Y283573D01*
X110546Y283607D01*
X110487Y283651D01*
X110434Y283695D01*
X110429Y283700D01*
X110424Y283710D01*
X110409Y283724D01*
X110390Y283744D01*
X110370Y283768D01*
X110346Y283803D01*
X110321Y283837D01*
X110297Y283881D01*
X110268Y283929D01*
X110243Y283978D01*
X110199Y284095D01*
X110180Y284164D01*
X110165Y284232D01*
X110160Y284305D01*
X110155Y284383D01*
Y284388D01*
Y284403D01*
Y284422D01*
X110160Y284452D01*
X110165Y284486D01*
X110170Y284530D01*
X110190Y284622D01*
X110224Y284730D01*
X110248Y284783D01*
X110273Y284842D01*
X110307Y284901D01*
X110341Y284954D01*
X110385Y285008D01*
X110434Y285062D01*
X110439Y285067D01*
X110448Y285071D01*
X110463Y285086D01*
X110487Y285105D01*
X110512Y285125D01*
X110546Y285145D01*
X110585Y285169D01*
X110634Y285198D01*
X110683Y285223D01*
X110736Y285247D01*
X110795Y285267D01*
X110863Y285286D01*
X111005Y285320D01*
X111083Y285325D01*
X111166Y285330D01*
X111205D01*
X111239Y285325D01*
D02*
G37*
G36*
X108960D02*
X108994Y285320D01*
X109038Y285315D01*
X109082Y285306D01*
X109136Y285296D01*
X109243Y285262D01*
X109301Y285237D01*
X109360Y285213D01*
X109419Y285179D01*
X109477Y285140D01*
X109531Y285096D01*
X109585Y285047D01*
X109589Y285042D01*
X109594Y285032D01*
X109609Y285018D01*
X109628Y284998D01*
X109648Y284969D01*
X109672Y284935D01*
X109697Y284896D01*
X109721Y284852D01*
X109770Y284754D01*
X109814Y284632D01*
X109848Y284500D01*
X109853Y284427D01*
X109858Y284349D01*
Y284344D01*
Y284334D01*
Y284310D01*
X109853Y284286D01*
X109848Y284251D01*
X109843Y284212D01*
X109824Y284125D01*
X109790Y284022D01*
X109765Y283968D01*
X109736Y283915D01*
X109702Y283861D01*
X109668Y283807D01*
X109619Y283754D01*
X109570Y283700D01*
X109565Y283695D01*
X109555Y283690D01*
X109541Y283676D01*
X109516Y283656D01*
X109492Y283637D01*
X109458Y283617D01*
X109414Y283593D01*
X109370Y283568D01*
X109321Y283539D01*
X109263Y283515D01*
X109141Y283476D01*
X108999Y283441D01*
X108921Y283437D01*
X108838Y283432D01*
X108799D01*
X108770Y283437D01*
X108735Y283441D01*
X108696Y283446D01*
X108604Y283466D01*
X108496Y283495D01*
X108379Y283544D01*
X108321Y283573D01*
X108267Y283607D01*
X108208Y283651D01*
X108155Y283695D01*
X108150Y283700D01*
X108145Y283710D01*
X108130Y283724D01*
X108111Y283744D01*
X108091Y283768D01*
X108067Y283803D01*
X108043Y283837D01*
X108018Y283881D01*
X107989Y283929D01*
X107964Y283978D01*
X107921Y284095D01*
X107901Y284164D01*
X107886Y284232D01*
X107881Y284305D01*
X107877Y284383D01*
Y284388D01*
Y284403D01*
Y284422D01*
X107881Y284452D01*
X107886Y284486D01*
X107891Y284530D01*
X107911Y284622D01*
X107945Y284730D01*
X107969Y284783D01*
X107994Y284842D01*
X108028Y284901D01*
X108062Y284954D01*
X108106Y285008D01*
X108155Y285062D01*
X108160Y285067D01*
X108169Y285071D01*
X108184Y285086D01*
X108208Y285105D01*
X108233Y285125D01*
X108267Y285145D01*
X108306Y285169D01*
X108355Y285198D01*
X108404Y285223D01*
X108457Y285247D01*
X108516Y285267D01*
X108584Y285286D01*
X108726Y285320D01*
X108804Y285325D01*
X108887Y285330D01*
X108926D01*
X108960Y285325D01*
D02*
G37*
G36*
X114694Y286355D02*
X114718D01*
X114752Y286345D01*
X114792Y286335D01*
X114835Y286326D01*
X114884Y286306D01*
X114933Y286286D01*
X114987Y286257D01*
X115045Y286223D01*
X115099Y286179D01*
X115157Y286130D01*
X115211Y286077D01*
X115265Y286008D01*
X115319Y285935D01*
X115323Y285930D01*
X115328Y285916D01*
X115343Y285891D01*
X115363Y285857D01*
X115382Y285818D01*
X115406Y285769D01*
X115431Y285711D01*
X115460Y285647D01*
X115484Y285574D01*
X115509Y285496D01*
X115533Y285408D01*
X115553Y285315D01*
X115572Y285218D01*
X115587Y285115D01*
X115592Y285003D01*
X115597Y284891D01*
Y284886D01*
Y284861D01*
Y284832D01*
X115592Y284788D01*
X115587Y284735D01*
X115582Y284676D01*
X115572Y284603D01*
X115563Y284530D01*
X115548Y284452D01*
X115528Y284369D01*
X115509Y284281D01*
X115480Y284193D01*
X115445Y284105D01*
X115411Y284017D01*
X115367Y283934D01*
X115319Y283851D01*
X115314Y283846D01*
X115304Y283832D01*
X115289Y283812D01*
X115270Y283788D01*
X115245Y283754D01*
X115211Y283720D01*
X115177Y283681D01*
X115133Y283642D01*
X115035Y283563D01*
X114982Y283529D01*
X114923Y283495D01*
X114860Y283471D01*
X114796Y283451D01*
X114728Y283437D01*
X114655Y283432D01*
X114640D01*
X114621Y283437D01*
X114591D01*
X114557Y283446D01*
X114523Y283456D01*
X114430Y283485D01*
X114382Y283505D01*
X114328Y283534D01*
X114274Y283568D01*
X114221Y283607D01*
X114162Y283656D01*
X114103Y283710D01*
X114050Y283773D01*
X113996Y283846D01*
X113991Y283851D01*
X113986Y283866D01*
X113972Y283890D01*
X113952Y283920D01*
X113933Y283964D01*
X113908Y284012D01*
X113884Y284071D01*
X113859Y284134D01*
X113830Y284208D01*
X113806Y284286D01*
X113781Y284373D01*
X113762Y284466D01*
X113742Y284564D01*
X113728Y284666D01*
X113723Y284779D01*
X113718Y284891D01*
Y284896D01*
Y284920D01*
Y284949D01*
X113723Y284993D01*
X113728Y285047D01*
X113733Y285110D01*
X113742Y285179D01*
X113752Y285257D01*
X113767Y285335D01*
X113786Y285423D01*
X113835Y285594D01*
X113864Y285681D01*
X113903Y285769D01*
X113942Y285852D01*
X113991Y285935D01*
X113996Y285940D01*
X114006Y285955D01*
X114021Y285974D01*
X114040Y286003D01*
X114069Y286033D01*
X114099Y286072D01*
X114138Y286106D01*
X114177Y286150D01*
X114274Y286228D01*
X114328Y286262D01*
X114386Y286291D01*
X114450Y286321D01*
X114518Y286340D01*
X114582Y286355D01*
X114655Y286360D01*
X114674D01*
X114694Y286355D01*
D02*
G37*
G36*
X113084Y285227D02*
X113679Y285237D01*
Y284993D01*
X113084Y284979D01*
Y283978D01*
Y283968D01*
Y283949D01*
X113088Y283915D01*
Y283876D01*
X113103Y283793D01*
X113113Y283754D01*
X113127Y283720D01*
Y283715D01*
X113137Y283710D01*
X113162Y283685D01*
X113206Y283661D01*
X113235Y283656D01*
X113269Y283651D01*
X113293D01*
X113323Y283656D01*
X113367Y283666D01*
X113420Y283681D01*
X113484Y283705D01*
X113562Y283734D01*
X113645Y283773D01*
X113713Y283666D01*
X113708Y283661D01*
X113693Y283646D01*
X113674Y283622D01*
X113645Y283593D01*
X113606Y283559D01*
X113567Y283529D01*
X113523Y283505D01*
X113474Y283481D01*
X113469D01*
X113450Y283471D01*
X113420Y283466D01*
X113381Y283456D01*
X113332Y283446D01*
X113274Y283441D01*
X113206Y283432D01*
X113088D01*
X113045Y283437D01*
X112991Y283446D01*
X112937Y283461D01*
X112879Y283485D01*
X112835Y283515D01*
X112796Y283554D01*
X112791Y283559D01*
X112786Y283578D01*
X112771Y283612D01*
X112757Y283661D01*
X112742Y283724D01*
X112732Y283807D01*
X112722Y283905D01*
X112717Y283959D01*
Y284022D01*
Y284969D01*
X112522Y284964D01*
X112508D01*
X112473Y284974D01*
X112454Y284983D01*
X112434Y284998D01*
X112425Y285018D01*
X112420Y285042D01*
Y285047D01*
Y285052D01*
X112430Y285076D01*
X112439Y285091D01*
X112454Y285110D01*
X112473Y285125D01*
X112503Y285140D01*
X112513Y285145D01*
X112532Y285154D01*
X112566Y285169D01*
X112605Y285189D01*
X112688Y285242D01*
X112727Y285271D01*
X112761Y285306D01*
X112766Y285311D01*
X112776Y285325D01*
X112791Y285349D01*
X112815Y285389D01*
X112839Y285442D01*
X112874Y285511D01*
X112908Y285594D01*
X112947Y285691D01*
X113079D01*
X113084Y285227D01*
D02*
G37*
G36*
X155228Y344962D02*
Y344903D01*
X155213Y344801D01*
Y344654D01*
X155198Y344493D01*
Y344303D01*
X155184Y344098D01*
Y343893D01*
Y343879D01*
Y343805D01*
Y343718D01*
Y343600D01*
X155198Y343454D01*
Y343278D01*
X155213Y342912D01*
X154803D01*
Y342927D01*
X154788Y342942D01*
X154774Y342986D01*
X154745Y343044D01*
X154701Y343176D01*
X154627Y343352D01*
X154554Y343527D01*
X154466Y343703D01*
X154393Y343864D01*
X154335Y343996D01*
Y344010D01*
X154305Y344040D01*
X154276Y344098D01*
X154247Y344157D01*
X154174Y344274D01*
X154130Y344332D01*
X154086Y344362D01*
X154071Y344376D01*
X154013Y344406D01*
X153925Y344420D01*
X153807Y344435D01*
X150733D01*
X150689Y344420D01*
X150616Y344406D01*
X150572Y344347D01*
Y344332D01*
X150557Y344274D01*
X150543Y344230D01*
Y344171D01*
X150528Y344098D01*
Y344010D01*
Y341126D01*
X153427D01*
X153515Y341141D01*
X153573Y341170D01*
X153588Y341185D01*
X153617Y341229D01*
X153661Y341302D01*
X153676Y341375D01*
X153690Y341448D01*
X153881Y342429D01*
X154393D01*
Y342415D01*
Y342385D01*
Y342341D01*
Y342283D01*
Y342210D01*
X154378Y342107D01*
Y341887D01*
Y341639D01*
X154364Y341346D01*
Y341038D01*
Y340731D01*
Y340716D01*
Y340687D01*
Y340643D01*
Y340585D01*
Y340511D01*
Y340423D01*
Y340204D01*
X154378Y339940D01*
Y339662D01*
Y339340D01*
X154393Y339018D01*
X153998D01*
X153676Y340160D01*
Y340175D01*
X153661Y340189D01*
X153617Y340277D01*
X153559Y340380D01*
X153456Y340467D01*
X153427Y340482D01*
X153354Y340511D01*
X153222Y340541D01*
X153134Y340555D01*
X150528D01*
Y337422D01*
Y337408D01*
Y337378D01*
X150543Y337291D01*
X150557Y337188D01*
X150572Y337144D01*
X150587Y337115D01*
X150601Y337100D01*
X150660Y337086D01*
X150704Y337071D01*
X150762Y337056D01*
X150850Y337042D01*
X153969D01*
X154056Y337056D01*
X154247Y337086D01*
X154437Y337144D01*
X154452D01*
X154481Y337173D01*
X154525Y337203D01*
X154598Y337247D01*
X154671Y337320D01*
X154759Y337408D01*
X154847Y337510D01*
X154949Y337642D01*
X154964Y337657D01*
X154993Y337715D01*
X155052Y337803D01*
X155140Y337935D01*
X155228Y338110D01*
X155345Y338330D01*
X155476Y338579D01*
X155608Y338886D01*
X156106D01*
Y338872D01*
X156091Y338828D01*
X156077Y338755D01*
X156062Y338652D01*
X156033Y338535D01*
X156018Y338403D01*
X155989Y338242D01*
X155960Y338081D01*
X155901Y337701D01*
X155842Y337291D01*
X155799Y336881D01*
X155769Y336471D01*
X155286D01*
X155096Y336485D01*
X154027D01*
X153690Y336500D01*
X149869D01*
X149196Y336485D01*
X148508D01*
X147834Y336471D01*
Y336925D01*
X148903Y336998D01*
X148932D01*
X148991Y337012D01*
X149064Y337027D01*
X149123Y337056D01*
X149137Y337071D01*
X149152Y337115D01*
X149167Y337188D01*
Y337261D01*
Y337334D01*
Y343937D01*
Y343952D01*
Y343981D01*
Y344025D01*
Y344083D01*
X149152Y344215D01*
X149137Y344259D01*
X149123Y344303D01*
X149108Y344318D01*
X149079Y344347D01*
X149035Y344391D01*
X148947Y344406D01*
X147893Y344508D01*
Y344991D01*
X148230D01*
X148391Y344977D01*
X149284D01*
X149591Y344962D01*
X152958D01*
X153559Y344977D01*
X154745D01*
X154993Y344991D01*
X155228D01*
Y344962D01*
D02*
G37*
G36*
X131203Y344552D02*
X130369Y344362D01*
X130354D01*
X130340Y344347D01*
X130310Y344332D01*
X130266Y344288D01*
X130222Y344230D01*
X130193Y344142D01*
X130179Y344025D01*
X130164Y343879D01*
Y339911D01*
Y339896D01*
Y339823D01*
Y339735D01*
X130149Y339604D01*
Y339443D01*
X130120Y339267D01*
X130105Y339077D01*
X130076Y338857D01*
X129988Y338403D01*
X129857Y337949D01*
X129769Y337730D01*
X129681Y337525D01*
X129564Y337334D01*
X129432Y337159D01*
X129417Y337144D01*
X129403Y337115D01*
X129359Y337086D01*
X129300Y337027D01*
X129212Y336954D01*
X129110Y336881D01*
X128993Y336807D01*
X128861Y336734D01*
X128700Y336646D01*
X128524Y336573D01*
X128319Y336500D01*
X128100Y336427D01*
X127865Y336368D01*
X127602Y336339D01*
X127309Y336310D01*
X127002Y336295D01*
X126841D01*
X126738Y336310D01*
X126592D01*
X126431Y336339D01*
X126255Y336354D01*
X126065Y336383D01*
X125655Y336471D01*
X125230Y336588D01*
X124820Y336764D01*
X124630Y336866D01*
X124454Y336983D01*
X124440Y336998D01*
X124410Y337012D01*
X124366Y337056D01*
X124323Y337115D01*
X124249Y337188D01*
X124176Y337276D01*
X124088Y337378D01*
X124015Y337495D01*
X123927Y337642D01*
X123839Y337788D01*
X123766Y337949D01*
X123708Y338140D01*
X123649Y338330D01*
X123605Y338550D01*
X123576Y338769D01*
X123561Y339018D01*
Y343937D01*
Y343952D01*
Y343981D01*
Y344025D01*
Y344083D01*
X123547Y344215D01*
X123532Y344259D01*
X123517Y344303D01*
X123503Y344318D01*
X123473Y344362D01*
X123430Y344391D01*
X123342Y344420D01*
X122317Y344537D01*
Y344991D01*
X122566D01*
X122668Y344977D01*
X123195D01*
X123517Y344962D01*
X124952D01*
X125259Y344977D01*
X125874D01*
X126021Y344991D01*
X126138D01*
Y344537D01*
X125172Y344420D01*
X125142D01*
X125084Y344391D01*
X125011Y344347D01*
X124937Y344288D01*
X124923Y344274D01*
X124908Y344201D01*
X124893Y344142D01*
Y344083D01*
X124879Y343996D01*
Y343893D01*
Y339208D01*
Y339194D01*
Y339150D01*
Y339091D01*
X124893Y339018D01*
Y338916D01*
X124908Y338798D01*
X124937Y338535D01*
X124996Y338257D01*
X125084Y337964D01*
X125201Y337701D01*
X125274Y337583D01*
X125362Y337481D01*
X125391Y337466D01*
X125450Y337408D01*
X125582Y337320D01*
X125743Y337232D01*
X125962Y337129D01*
X126240Y337056D01*
X126577Y336998D01*
X126767Y336968D01*
X127119D01*
X127221Y336983D01*
X127338D01*
X127485Y337012D01*
X127807Y337056D01*
X128144Y337144D01*
X128480Y337261D01*
X128641Y337334D01*
X128788Y337437D01*
X128919Y337539D01*
X129022Y337657D01*
Y337671D01*
X129051Y337686D01*
X129066Y337730D01*
X129110Y337803D01*
X129139Y337876D01*
X129183Y337979D01*
X129242Y338096D01*
X129286Y338242D01*
X129329Y338403D01*
X129388Y338594D01*
X129432Y338813D01*
X129461Y339047D01*
X129505Y339311D01*
X129520Y339589D01*
X129549Y339911D01*
Y340248D01*
Y343879D01*
Y343893D01*
Y343952D01*
X129520Y344010D01*
X129490Y344098D01*
X129432Y344186D01*
X129344Y344274D01*
X129227Y344347D01*
X129066Y344391D01*
X128246Y344537D01*
Y344991D01*
X128334D01*
X128436Y344977D01*
X128802D01*
X129051Y344962D01*
X130281D01*
X130530Y344977D01*
X130998D01*
X131203Y344991D01*
Y344552D01*
D02*
G37*
G36*
X106164Y285179D02*
X106169D01*
X106178Y285184D01*
X106193Y285193D01*
X106212Y285203D01*
X106242Y285213D01*
X106271Y285227D01*
X106349Y285257D01*
X106437Y285281D01*
X106535Y285306D01*
X106637Y285325D01*
X106739Y285330D01*
X106779D01*
X106803Y285325D01*
X106837Y285320D01*
X106871Y285315D01*
X106959Y285296D01*
X107057Y285267D01*
X107159Y285218D01*
X107213Y285189D01*
X107262Y285154D01*
X107310Y285115D01*
X107354Y285067D01*
X107359Y285062D01*
X107364Y285057D01*
X107374Y285042D01*
X107393Y285018D01*
X107408Y284993D01*
X107428Y284964D01*
X107452Y284925D01*
X107472Y284886D01*
X107515Y284788D01*
X107554Y284676D01*
X107579Y284549D01*
X107584Y284481D01*
X107589Y284408D01*
Y284403D01*
Y284388D01*
Y284364D01*
X107584Y284334D01*
X107579Y284295D01*
X107574Y284251D01*
X107564Y284203D01*
X107554Y284154D01*
X107520Y284037D01*
X107501Y283978D01*
X107472Y283920D01*
X107437Y283861D01*
X107403Y283803D01*
X107359Y283749D01*
X107310Y283695D01*
X107306Y283690D01*
X107296Y283685D01*
X107281Y283671D01*
X107262Y283656D01*
X107237Y283637D01*
X107203Y283612D01*
X107164Y283588D01*
X107125Y283563D01*
X107027Y283515D01*
X106915Y283471D01*
X106783Y283441D01*
X106715Y283437D01*
X106642Y283432D01*
X106608D01*
X106564Y283437D01*
X106515Y283441D01*
X106452Y283456D01*
X106378Y283471D01*
X106305Y283495D01*
X106227Y283524D01*
X106222Y283529D01*
X106208Y283534D01*
X106183Y283544D01*
X106159Y283554D01*
X106130Y283563D01*
X106105Y283573D01*
X106086Y283583D01*
X106071D01*
X106061Y283578D01*
X106051Y283573D01*
X106042Y283563D01*
X106022Y283539D01*
X105998Y283510D01*
X105968Y283471D01*
X105934Y283412D01*
X105798D01*
Y285867D01*
Y285872D01*
Y285891D01*
Y285921D01*
X105793Y285950D01*
X105783Y286018D01*
X105773Y286047D01*
X105759Y286067D01*
X105749Y286077D01*
X105734Y286086D01*
X105710Y286101D01*
X105681Y286121D01*
X105632Y286145D01*
X105573Y286169D01*
X105500Y286199D01*
X105519Y286326D01*
X106164Y286472D01*
Y285179D01*
D02*
G37*
G36*
X164026Y344962D02*
Y344903D01*
X164012Y344801D01*
Y344654D01*
X163997Y344493D01*
Y344303D01*
X163982Y344098D01*
Y343893D01*
Y343879D01*
Y343805D01*
Y343718D01*
Y343600D01*
X163997Y343454D01*
Y343278D01*
X164012Y342912D01*
X163602D01*
Y342927D01*
X163587Y342942D01*
X163572Y342986D01*
X163543Y343044D01*
X163499Y343176D01*
X163426Y343352D01*
X163353Y343527D01*
X163265Y343703D01*
X163192Y343864D01*
X163133Y343996D01*
Y344010D01*
X163104Y344040D01*
X163075Y344098D01*
X163045Y344157D01*
X162972Y344274D01*
X162928Y344332D01*
X162884Y344362D01*
X162870Y344376D01*
X162811Y344406D01*
X162723Y344420D01*
X162606Y344435D01*
X159532D01*
X159488Y344420D01*
X159415Y344406D01*
X159371Y344347D01*
Y344332D01*
X159356Y344274D01*
X159341Y344230D01*
Y344171D01*
X159327Y344098D01*
Y344010D01*
Y341126D01*
X162225D01*
X162313Y341141D01*
X162372Y341170D01*
X162387Y341185D01*
X162416Y341229D01*
X162460Y341302D01*
X162474Y341375D01*
X162489Y341448D01*
X162679Y342429D01*
X163192D01*
Y342415D01*
Y342385D01*
Y342341D01*
Y342283D01*
Y342210D01*
X163177Y342107D01*
Y341887D01*
Y341639D01*
X163163Y341346D01*
Y341038D01*
Y340731D01*
Y340716D01*
Y340687D01*
Y340643D01*
Y340585D01*
Y340511D01*
Y340423D01*
Y340204D01*
X163177Y339940D01*
Y339662D01*
Y339340D01*
X163192Y339018D01*
X162796D01*
X162474Y340160D01*
Y340175D01*
X162460Y340189D01*
X162416Y340277D01*
X162357Y340380D01*
X162255Y340467D01*
X162225Y340482D01*
X162152Y340511D01*
X162021Y340541D01*
X161933Y340555D01*
X159327D01*
Y337422D01*
Y337408D01*
Y337378D01*
X159341Y337291D01*
X159356Y337188D01*
X159371Y337144D01*
X159385Y337115D01*
X159400Y337100D01*
X159459Y337086D01*
X159502Y337071D01*
X159561Y337056D01*
X159649Y337042D01*
X162767D01*
X162855Y337056D01*
X163045Y337086D01*
X163236Y337144D01*
X163250D01*
X163280Y337173D01*
X163323Y337203D01*
X163397Y337247D01*
X163470Y337320D01*
X163558Y337408D01*
X163646Y337510D01*
X163748Y337642D01*
X163763Y337657D01*
X163792Y337715D01*
X163851Y337803D01*
X163938Y337935D01*
X164026Y338110D01*
X164143Y338330D01*
X164275Y338579D01*
X164407Y338886D01*
X164905D01*
Y338872D01*
X164890Y338828D01*
X164875Y338755D01*
X164861Y338652D01*
X164831Y338535D01*
X164817Y338403D01*
X164787Y338242D01*
X164758Y338081D01*
X164700Y337701D01*
X164641Y337291D01*
X164597Y336881D01*
X164568Y336471D01*
X164085D01*
X163894Y336485D01*
X162826D01*
X162489Y336500D01*
X158668D01*
X157995Y336485D01*
X157307D01*
X156633Y336471D01*
Y336925D01*
X157702Y336998D01*
X157731D01*
X157790Y337012D01*
X157863Y337027D01*
X157921Y337056D01*
X157936Y337071D01*
X157951Y337115D01*
X157965Y337188D01*
Y337261D01*
Y337334D01*
Y343937D01*
Y343952D01*
Y343981D01*
Y344025D01*
Y344083D01*
X157951Y344215D01*
X157936Y344259D01*
X157921Y344303D01*
X157907Y344318D01*
X157877Y344347D01*
X157834Y344391D01*
X157746Y344406D01*
X156692Y344508D01*
Y344991D01*
X157028D01*
X157189Y344977D01*
X158082D01*
X158390Y344962D01*
X161757D01*
X162357Y344977D01*
X163543D01*
X163792Y344991D01*
X164026D01*
Y344962D01*
D02*
G37*
G36*
X78307Y376054D02*
X78326Y376074D01*
X78385Y376152D01*
X78463Y376250D01*
X78600Y376386D01*
X78776Y376523D01*
X78971Y376679D01*
X79225Y376835D01*
X79518Y376972D01*
X79537D01*
X79557Y376992D01*
X79654Y377031D01*
X79811Y377089D01*
X80025Y377148D01*
X80240Y377207D01*
X80494Y377265D01*
X80748Y377304D01*
X81002Y377324D01*
X81099D01*
X81197Y377304D01*
X81353Y377285D01*
X81510Y377246D01*
X81705Y377187D01*
X81900Y377109D01*
X82115Y377011D01*
X82310Y376875D01*
X82506Y376699D01*
X82701Y376484D01*
X82857Y376230D01*
X83013Y375937D01*
X83111Y375605D01*
X83189Y375195D01*
X83209Y374746D01*
Y371269D01*
Y371250D01*
Y371230D01*
Y371113D01*
X83228Y370976D01*
X83267Y370859D01*
X83287Y370840D01*
X83326Y370801D01*
X83404Y370742D01*
X83521Y370703D01*
X84420Y370527D01*
Y369961D01*
X84224D01*
X84009Y369981D01*
X83424D01*
X83092Y370000D01*
X81510D01*
X81178Y369981D01*
X80787D01*
X80396Y369961D01*
Y370547D01*
X81510Y370703D01*
X81529D01*
X81549Y370723D01*
X81588Y370742D01*
X81627Y370781D01*
X81666Y370840D01*
X81705Y370937D01*
X81744Y371055D01*
Y371211D01*
Y374668D01*
Y374707D01*
Y374785D01*
X81725Y374902D01*
X81705Y375058D01*
X81646Y375234D01*
X81588Y375410D01*
X81490Y375605D01*
X81353Y375761D01*
X81334Y375781D01*
X81275Y375820D01*
X81197Y375898D01*
X81080Y375976D01*
X80924Y376035D01*
X80748Y376113D01*
X80533Y376152D01*
X80299Y376171D01*
X80201D01*
X80123Y376152D01*
X79928Y376113D01*
X79654Y376054D01*
X79361Y375937D01*
X79029Y375761D01*
X78854Y375664D01*
X78658Y375527D01*
X78483Y375390D01*
X78307Y375215D01*
Y371016D01*
Y370996D01*
X78346Y370937D01*
X78385Y370898D01*
X78443Y370859D01*
X78522Y370840D01*
X78619Y370801D01*
X79752Y370527D01*
Y369961D01*
X79596D01*
X79420Y369981D01*
X78873D01*
X78502Y370000D01*
X76627D01*
X76295Y369981D01*
X75944D01*
X75612Y369961D01*
Y370527D01*
X76725Y370742D01*
X76744Y370762D01*
X76803Y370801D01*
X76842Y370840D01*
X76862Y370898D01*
X76881Y370996D01*
Y371094D01*
Y374551D01*
Y374570D01*
Y374629D01*
Y374707D01*
X76862Y374804D01*
X76803Y375000D01*
X76764Y375097D01*
X76705Y375156D01*
X76666Y375175D01*
X76627Y375215D01*
X76549Y375254D01*
X76432Y375293D01*
X76295Y375332D01*
X76119Y375390D01*
X75885Y375429D01*
Y376035D01*
X75905D01*
X75944Y376054D01*
X76002Y376074D01*
X76080Y376093D01*
X76295Y376191D01*
X76549Y376347D01*
X76842Y376542D01*
X76998Y376679D01*
X77154Y376835D01*
X77311Y376992D01*
X77447Y377187D01*
X77584Y377402D01*
X77721Y377636D01*
X78307D01*
Y376054D01*
D02*
G37*
G36*
X151700Y377304D02*
X151837Y377285D01*
X152013Y377265D01*
X152189Y377226D01*
X152404Y377187D01*
X152833Y377050D01*
X153068Y376953D01*
X153302Y376855D01*
X153536Y376718D01*
X153771Y376562D01*
X153986Y376386D01*
X154200Y376191D01*
X154220Y376171D01*
X154239Y376132D01*
X154298Y376074D01*
X154376Y375996D01*
X154454Y375879D01*
X154552Y375742D01*
X154649Y375586D01*
X154747Y375410D01*
X154943Y375019D01*
X155118Y374531D01*
X155255Y374004D01*
X155274Y373711D01*
X155294Y373398D01*
Y373379D01*
Y373340D01*
Y373242D01*
X155274Y373144D01*
X155255Y373008D01*
X155235Y372851D01*
X155157Y372500D01*
X155021Y372090D01*
X154923Y371875D01*
X154806Y371660D01*
X154669Y371445D01*
X154532Y371230D01*
X154337Y371016D01*
X154142Y370801D01*
X154122Y370781D01*
X154083Y370762D01*
X154025Y370703D01*
X153927Y370625D01*
X153829Y370547D01*
X153693Y370469D01*
X153517Y370371D01*
X153341Y370273D01*
X153146Y370156D01*
X152911Y370059D01*
X152423Y369902D01*
X151857Y369766D01*
X151544Y369746D01*
X151212Y369727D01*
X151056D01*
X150939Y369746D01*
X150802Y369766D01*
X150646Y369785D01*
X150275Y369863D01*
X149845Y369981D01*
X149376Y370176D01*
X149142Y370293D01*
X148927Y370430D01*
X148693Y370605D01*
X148478Y370781D01*
X148459Y370801D01*
X148439Y370840D01*
X148380Y370898D01*
X148302Y370976D01*
X148224Y371074D01*
X148126Y371211D01*
X148029Y371348D01*
X147931Y371523D01*
X147814Y371719D01*
X147716Y371914D01*
X147541Y372383D01*
X147462Y372656D01*
X147404Y372930D01*
X147384Y373222D01*
X147365Y373535D01*
Y373554D01*
Y373613D01*
Y373691D01*
X147384Y373808D01*
X147404Y373945D01*
X147423Y374121D01*
X147502Y374492D01*
X147638Y374922D01*
X147736Y375136D01*
X147834Y375371D01*
X147970Y375605D01*
X148107Y375820D01*
X148283Y376035D01*
X148478Y376250D01*
X148498Y376269D01*
X148537Y376289D01*
X148595Y376347D01*
X148693Y376425D01*
X148791Y376503D01*
X148927Y376582D01*
X149083Y376679D01*
X149279Y376796D01*
X149474Y376894D01*
X149689Y376992D01*
X149923Y377070D01*
X150197Y377148D01*
X150763Y377285D01*
X151075Y377304D01*
X151408Y377324D01*
X151564D01*
X151700Y377304D01*
D02*
G37*
G36*
X74127Y371680D02*
Y371660D01*
Y371602D01*
Y371523D01*
X74147Y371406D01*
X74186Y371211D01*
X74205Y371133D01*
X74244Y371074D01*
X74284Y371055D01*
X74342D01*
X74420Y371035D01*
X74557Y371016D01*
X74752Y370996D01*
X75006Y370976D01*
X75162Y370957D01*
X75338D01*
X75358Y370410D01*
X72604Y369746D01*
Y371055D01*
X72584Y371035D01*
X72526Y370957D01*
X72428Y370840D01*
X72291Y370703D01*
X72116Y370547D01*
X71920Y370371D01*
X71706Y370215D01*
X71471Y370078D01*
X71452Y370059D01*
X71354Y370020D01*
X71217Y369961D01*
X71061Y369902D01*
X70846Y369844D01*
X70631Y369785D01*
X70378Y369746D01*
X70124Y369727D01*
X70085D01*
X69967Y369746D01*
X69792Y369766D01*
X69577Y369805D01*
X69323Y369902D01*
X69050Y370020D01*
X68796Y370176D01*
X68542Y370410D01*
X68522Y370449D01*
X68444Y370547D01*
X68347Y370684D01*
X68249Y370898D01*
X68132Y371172D01*
X68034Y371484D01*
X67956Y371836D01*
X67936Y372246D01*
Y375898D01*
Y375918D01*
Y375937D01*
X67917Y376015D01*
X67878Y376113D01*
X67800Y376191D01*
X67761Y376210D01*
X67721Y376230D01*
X67624Y376269D01*
X67507Y376289D01*
X67331Y376347D01*
X67097Y376386D01*
X66804Y376445D01*
Y377011D01*
X69421D01*
Y372324D01*
Y372285D01*
Y372187D01*
X69440Y372051D01*
X69460Y371894D01*
X69518Y371523D01*
X69577Y371367D01*
X69655Y371230D01*
X69674Y371211D01*
X69694Y371191D01*
X69772Y371152D01*
X69870Y371094D01*
X69987Y371035D01*
X70143Y370996D01*
X70358Y370976D01*
X70592Y370957D01*
X70710D01*
X70788Y370976D01*
X71003Y370996D01*
X71276Y371055D01*
X71588Y371152D01*
X71920Y371289D01*
X72272Y371484D01*
X72604Y371758D01*
Y375879D01*
Y375898D01*
Y375918D01*
X72584Y376015D01*
X72526Y376113D01*
X72409Y376191D01*
X72389D01*
X72370Y376210D01*
X72291Y376230D01*
X72155Y376250D01*
X71979Y376269D01*
X71725Y376308D01*
X71588Y376328D01*
X71413Y376347D01*
X71217Y376367D01*
X71003Y376386D01*
Y377011D01*
X74127D01*
Y371680D01*
D02*
G37*
G36*
X125452Y371133D02*
Y371113D01*
Y371094D01*
Y370976D01*
Y370879D01*
X125472Y370820D01*
Y370801D01*
X125511Y370781D01*
X125550Y370762D01*
X125628Y370723D01*
X126780Y370547D01*
Y369961D01*
X126604D01*
X126390Y369981D01*
X125784D01*
X125413Y370000D01*
X123636D01*
X123284Y369981D01*
X122913D01*
X122679Y369969D01*
Y369961D01*
X122503D01*
X122288Y369981D01*
X121683D01*
X121312Y370000D01*
X119535D01*
X119183Y369981D01*
X118812D01*
X118421Y369961D01*
Y370527D01*
X119613Y370762D01*
X119632D01*
X119652Y370781D01*
X119730Y370801D01*
X119808Y370820D01*
X119867Y370859D01*
Y370879D01*
X119886Y370898D01*
X119906Y370976D01*
Y371094D01*
Y379980D01*
Y379999D01*
Y380019D01*
X119886Y380136D01*
X119827Y380292D01*
X119730Y380410D01*
X119691Y380429D01*
X119632Y380468D01*
X119554Y380507D01*
X119437Y380566D01*
X119261Y380624D01*
X119046Y380702D01*
X118773Y380781D01*
Y381288D01*
X118812D01*
X118910Y381327D01*
X119085Y381366D01*
X119320Y381425D01*
X119593Y381503D01*
X119945Y381601D01*
X120316Y381737D01*
X120726Y381894D01*
X121351D01*
Y371133D01*
Y371113D01*
Y371094D01*
Y370976D01*
Y370879D01*
X121370Y370820D01*
Y370801D01*
X121409Y370781D01*
X121449Y370762D01*
X121527Y370723D01*
X122647Y370552D01*
X123714Y370762D01*
X123733D01*
X123753Y370781D01*
X123831Y370801D01*
X123909Y370820D01*
X123968Y370859D01*
Y370879D01*
X123987Y370898D01*
X124007Y370976D01*
Y371094D01*
Y379980D01*
Y379999D01*
Y380019D01*
X123987Y380136D01*
X123929Y380292D01*
X123831Y380410D01*
X123792Y380429D01*
X123733Y380468D01*
X123655Y380507D01*
X123538Y380566D01*
X123363Y380624D01*
X123148Y380702D01*
X122874Y380781D01*
Y381288D01*
X122913D01*
X123011Y381327D01*
X123187Y381366D01*
X123421Y381425D01*
X123695Y381503D01*
X124046Y381601D01*
X124417Y381737D01*
X124827Y381894D01*
X125452D01*
Y371133D01*
D02*
G37*
G36*
X114222Y377304D02*
X114359Y377285D01*
X114535Y377265D01*
X114711Y377226D01*
X114926Y377187D01*
X115355Y377050D01*
X115589Y376953D01*
X115824Y376855D01*
X116058Y376718D01*
X116293Y376562D01*
X116507Y376386D01*
X116722Y376191D01*
X116742Y376171D01*
X116761Y376132D01*
X116820Y376074D01*
X116898Y375996D01*
X116976Y375879D01*
X117074Y375742D01*
X117172Y375586D01*
X117269Y375410D01*
X117464Y375019D01*
X117640Y374531D01*
X117777Y374004D01*
X117796Y373711D01*
X117816Y373398D01*
Y373379D01*
Y373340D01*
Y373242D01*
X117796Y373144D01*
X117777Y373008D01*
X117757Y372851D01*
X117679Y372500D01*
X117543Y372090D01*
X117445Y371875D01*
X117328Y371660D01*
X117191Y371445D01*
X117054Y371230D01*
X116859Y371016D01*
X116664Y370801D01*
X116644Y370781D01*
X116605Y370762D01*
X116546Y370703D01*
X116449Y370625D01*
X116351Y370547D01*
X116215Y370469D01*
X116039Y370371D01*
X115863Y370273D01*
X115668Y370156D01*
X115433Y370059D01*
X114945Y369902D01*
X114379Y369766D01*
X114066Y369746D01*
X113734Y369727D01*
X113578D01*
X113461Y369746D01*
X113324Y369766D01*
X113168Y369785D01*
X112797Y369863D01*
X112367Y369981D01*
X111898Y370176D01*
X111664Y370293D01*
X111449Y370430D01*
X111215Y370605D01*
X111000Y370781D01*
X110980Y370801D01*
X110961Y370840D01*
X110902Y370898D01*
X110824Y370976D01*
X110746Y371074D01*
X110648Y371211D01*
X110551Y371348D01*
X110453Y371523D01*
X110336Y371719D01*
X110238Y371914D01*
X110063Y372383D01*
X109984Y372656D01*
X109926Y372930D01*
X109906Y373222D01*
X109887Y373535D01*
Y373554D01*
Y373613D01*
Y373691D01*
X109906Y373808D01*
X109926Y373945D01*
X109945Y374121D01*
X110023Y374492D01*
X110160Y374922D01*
X110258Y375136D01*
X110355Y375371D01*
X110492Y375605D01*
X110629Y375820D01*
X110805Y376035D01*
X111000Y376250D01*
X111020Y376269D01*
X111059Y376289D01*
X111117Y376347D01*
X111215Y376425D01*
X111312Y376503D01*
X111449Y376582D01*
X111605Y376679D01*
X111801Y376796D01*
X111996Y376894D01*
X112211Y376992D01*
X112445Y377070D01*
X112719Y377148D01*
X113285Y377285D01*
X113598Y377304D01*
X113929Y377324D01*
X114086D01*
X114222Y377304D01*
D02*
G37*
G36*
X62409D02*
X62546Y377285D01*
X62722Y377265D01*
X62898Y377226D01*
X63112Y377187D01*
X63542Y377050D01*
X63776Y376953D01*
X64011Y376855D01*
X64245Y376718D01*
X64480Y376562D01*
X64694Y376386D01*
X64909Y376191D01*
X64929Y376171D01*
X64948Y376132D01*
X65007Y376074D01*
X65085Y375996D01*
X65163Y375879D01*
X65261Y375742D01*
X65358Y375586D01*
X65456Y375410D01*
X65651Y375019D01*
X65827Y374531D01*
X65964Y374004D01*
X65983Y373711D01*
X66003Y373398D01*
Y373379D01*
Y373340D01*
Y373242D01*
X65983Y373144D01*
X65964Y373008D01*
X65944Y372851D01*
X65866Y372500D01*
X65729Y372090D01*
X65632Y371875D01*
X65515Y371660D01*
X65378Y371445D01*
X65241Y371230D01*
X65046Y371016D01*
X64851Y370801D01*
X64831Y370781D01*
X64792Y370762D01*
X64733Y370703D01*
X64636Y370625D01*
X64538Y370547D01*
X64401Y370469D01*
X64226Y370371D01*
X64050Y370273D01*
X63854Y370156D01*
X63620Y370059D01*
X63132Y369902D01*
X62566Y369766D01*
X62253Y369746D01*
X61921Y369727D01*
X61765D01*
X61648Y369746D01*
X61511Y369766D01*
X61355Y369785D01*
X60984Y369863D01*
X60554Y369981D01*
X60085Y370176D01*
X59851Y370293D01*
X59636Y370430D01*
X59402Y370605D01*
X59187Y370781D01*
X59167Y370801D01*
X59148Y370840D01*
X59089Y370898D01*
X59011Y370976D01*
X58933Y371074D01*
X58835Y371211D01*
X58738Y371348D01*
X58640Y371523D01*
X58523Y371719D01*
X58425Y371914D01*
X58249Y372383D01*
X58171Y372656D01*
X58113Y372930D01*
X58093Y373222D01*
X58074Y373535D01*
Y373554D01*
Y373613D01*
Y373691D01*
X58093Y373808D01*
X58113Y373945D01*
X58132Y374121D01*
X58210Y374492D01*
X58347Y374922D01*
X58445Y375136D01*
X58542Y375371D01*
X58679Y375605D01*
X58816Y375820D01*
X58992Y376035D01*
X59187Y376250D01*
X59206Y376269D01*
X59246Y376289D01*
X59304Y376347D01*
X59402Y376425D01*
X59499Y376503D01*
X59636Y376582D01*
X59792Y376679D01*
X59988Y376796D01*
X60183Y376894D01*
X60398Y376992D01*
X60632Y377070D01*
X60905Y377148D01*
X61472Y377285D01*
X61784Y377304D01*
X62116Y377324D01*
X62273D01*
X62409Y377304D01*
D02*
G37*
G36*
X144728Y376914D02*
X147111Y376953D01*
Y375976D01*
X144728Y375918D01*
Y371914D01*
Y371875D01*
Y371797D01*
X144748Y371660D01*
Y371504D01*
X144806Y371172D01*
X144845Y371016D01*
X144904Y370879D01*
Y370859D01*
X144943Y370840D01*
X145041Y370742D01*
X145217Y370644D01*
X145334Y370625D01*
X145470Y370605D01*
X145568D01*
X145685Y370625D01*
X145861Y370664D01*
X146076Y370723D01*
X146330Y370820D01*
X146642Y370937D01*
X146974Y371094D01*
X147248Y370664D01*
X147228Y370644D01*
X147169Y370586D01*
X147091Y370488D01*
X146974Y370371D01*
X146818Y370234D01*
X146662Y370117D01*
X146486Y370020D01*
X146291Y369922D01*
X146271D01*
X146193Y369883D01*
X146076Y369863D01*
X145920Y369824D01*
X145724Y369785D01*
X145490Y369766D01*
X145217Y369727D01*
X144748D01*
X144572Y369746D01*
X144357Y369785D01*
X144142Y369844D01*
X143908Y369941D01*
X143732Y370059D01*
X143576Y370215D01*
X143556Y370234D01*
X143537Y370312D01*
X143478Y370449D01*
X143420Y370644D01*
X143361Y370898D01*
X143322Y371230D01*
X143283Y371621D01*
X143263Y371836D01*
Y372090D01*
Y375879D01*
X142482Y375859D01*
X142424D01*
X142287Y375898D01*
X142209Y375937D01*
X142131Y375996D01*
X142092Y376074D01*
X142072Y376171D01*
Y376191D01*
Y376210D01*
X142111Y376308D01*
X142150Y376367D01*
X142209Y376445D01*
X142287Y376503D01*
X142404Y376562D01*
X142443Y376582D01*
X142521Y376621D01*
X142658Y376679D01*
X142814Y376757D01*
X143146Y376972D01*
X143303Y377089D01*
X143439Y377226D01*
X143459Y377246D01*
X143498Y377304D01*
X143556Y377402D01*
X143654Y377558D01*
X143752Y377773D01*
X143888Y378046D01*
X144025Y378378D01*
X144181Y378769D01*
X144709D01*
X144728Y376914D01*
D02*
G37*
G36*
X131018Y377304D02*
X131253Y377285D01*
X131526Y377226D01*
X131839Y377148D01*
X132170Y377011D01*
X132502Y376816D01*
X132815Y376562D01*
X132854Y376523D01*
X132932Y376425D01*
X133069Y376250D01*
X133225Y375996D01*
X133381Y375703D01*
X133518Y375312D01*
X133616Y374883D01*
X133674Y374375D01*
X128772D01*
Y374336D01*
Y374238D01*
X128753Y374082D01*
Y373867D01*
Y373847D01*
Y373808D01*
Y373750D01*
X128772Y373652D01*
Y373535D01*
X128792Y373418D01*
X128831Y373105D01*
X128928Y372773D01*
X129046Y372422D01*
X129202Y372070D01*
X129436Y371758D01*
X129475Y371719D01*
X129553Y371640D01*
X129710Y371504D01*
X129924Y371367D01*
X130198Y371211D01*
X130510Y371074D01*
X130882Y370996D01*
X131311Y370957D01*
X131409D01*
X131526Y370976D01*
X131663D01*
X131819Y371016D01*
X131995Y371055D01*
X132190Y371094D01*
X132366Y371172D01*
X132385Y371191D01*
X132444Y371211D01*
X132561Y371269D01*
X132698Y371367D01*
X132893Y371484D01*
X133108Y371621D01*
X133381Y371797D01*
X133674Y372012D01*
X133811Y371367D01*
X133791Y371348D01*
X133752Y371289D01*
X133674Y371211D01*
X133577Y371113D01*
X133440Y370996D01*
X133284Y370840D01*
X133108Y370703D01*
X132893Y370547D01*
X132659Y370391D01*
X132405Y370254D01*
X132131Y370117D01*
X131819Y369981D01*
X131507Y369883D01*
X131175Y369805D01*
X130803Y369746D01*
X130432Y369727D01*
X130296D01*
X130218Y369746D01*
X130100Y369766D01*
X129964Y369785D01*
X129651Y369863D01*
X129280Y369981D01*
X128909Y370176D01*
X128714Y370312D01*
X128538Y370449D01*
X128343Y370605D01*
X128167Y370801D01*
Y370820D01*
X128128Y370859D01*
X128089Y370918D01*
X128030Y370996D01*
X127952Y371094D01*
X127874Y371230D01*
X127796Y371367D01*
X127718Y371543D01*
X127561Y371914D01*
X127405Y372363D01*
X127307Y372871D01*
X127288Y373144D01*
X127269Y373418D01*
Y373437D01*
Y373496D01*
Y373574D01*
X127288Y373691D01*
X127307Y373847D01*
X127327Y374004D01*
X127347Y374199D01*
X127386Y374394D01*
X127503Y374843D01*
X127698Y375312D01*
X127796Y375547D01*
X127933Y375781D01*
X128089Y375996D01*
X128264Y376210D01*
X128284Y376230D01*
X128304Y376250D01*
X128362Y376308D01*
X128440Y376386D01*
X128557Y376464D01*
X128675Y376562D01*
X128968Y376777D01*
X129339Y376972D01*
X129768Y377148D01*
X130022Y377226D01*
X130276Y377285D01*
X130550Y377304D01*
X130823Y377324D01*
X130940D01*
X131018Y377304D01*
D02*
G37*
G36*
X139084D02*
X139319Y377285D01*
X139592Y377246D01*
X139865Y377187D01*
X140158Y377109D01*
X140412Y377011D01*
X140451Y376992D01*
X140529Y376953D01*
X140627Y376875D01*
X140764Y376777D01*
X140881Y376660D01*
X140998Y376503D01*
X141076Y376328D01*
X141096Y376113D01*
Y376093D01*
Y376054D01*
X141076Y376015D01*
Y375937D01*
X140998Y375761D01*
X140959Y375664D01*
X140881Y375566D01*
Y375547D01*
X140842Y375527D01*
X140725Y375449D01*
X140549Y375351D01*
X140432Y375332D01*
X140295Y375312D01*
X140197D01*
X140100Y375351D01*
X139963Y375390D01*
X139787Y375449D01*
X139611Y375547D01*
X139397Y375683D01*
X139182Y375879D01*
X139162Y375898D01*
X139084Y375957D01*
X138987Y376054D01*
X138850Y376152D01*
X138693Y376230D01*
X138498Y376328D01*
X138303Y376386D01*
X138108Y376406D01*
X138088D01*
X137990Y376386D01*
X137873Y376367D01*
X137717Y376308D01*
X137541Y376230D01*
X137346Y376093D01*
X137131Y375898D01*
X136936Y375644D01*
X136916Y375605D01*
X136858Y375507D01*
X136760Y375351D01*
X136682Y375136D01*
X136584Y374843D01*
X136487Y374531D01*
X136428Y374140D01*
X136408Y373730D01*
Y373711D01*
Y373672D01*
Y373593D01*
X136428Y373515D01*
Y373398D01*
X136448Y373261D01*
X136487Y372969D01*
X136584Y372637D01*
X136701Y372285D01*
X136858Y371934D01*
X137092Y371621D01*
X137131Y371582D01*
X137209Y371504D01*
X137365Y371387D01*
X137541Y371250D01*
X137776Y371094D01*
X138049Y370976D01*
X138362Y370898D01*
X138693Y370859D01*
X138791D01*
X138889Y370879D01*
X138987Y370898D01*
X139104Y370918D01*
X139397Y370996D01*
X139768Y371113D01*
X140178Y371289D01*
X140412Y371406D01*
X140666Y371562D01*
X140920Y371719D01*
X141174Y371894D01*
X141213Y371113D01*
X141174Y371074D01*
X141096Y370996D01*
X140939Y370859D01*
X140764Y370703D01*
X140549Y370508D01*
X140314Y370332D01*
X140061Y370176D01*
X139807Y370039D01*
X139768Y370020D01*
X139690Y370000D01*
X139533Y369941D01*
X139338Y369883D01*
X139104Y369824D01*
X138830Y369785D01*
X138518Y369746D01*
X138166Y369727D01*
X138030D01*
X137932Y369746D01*
X137795Y369766D01*
X137658Y369785D01*
X137326Y369863D01*
X136936Y370000D01*
X136741Y370098D01*
X136545Y370195D01*
X136330Y370332D01*
X136135Y370469D01*
X135940Y370644D01*
X135745Y370840D01*
X135725Y370859D01*
X135705Y370898D01*
X135666Y370957D01*
X135588Y371035D01*
X135530Y371152D01*
X135451Y371289D01*
X135354Y371426D01*
X135276Y371602D01*
X135100Y372012D01*
X134944Y372480D01*
X134827Y373027D01*
X134807Y373301D01*
X134787Y373613D01*
Y373633D01*
Y373691D01*
Y373789D01*
X134807Y373906D01*
X134827Y374062D01*
X134846Y374238D01*
X134924Y374648D01*
X135041Y375078D01*
X135217Y375547D01*
X135334Y375761D01*
X135471Y375976D01*
X135627Y376191D01*
X135803Y376367D01*
X135823Y376386D01*
X135842Y376406D01*
X135901Y376464D01*
X135998Y376523D01*
X136096Y376582D01*
X136233Y376679D01*
X136369Y376757D01*
X136545Y376855D01*
X136741Y376933D01*
X136975Y377031D01*
X137209Y377109D01*
X137463Y377168D01*
X137756Y377246D01*
X138049Y377285D01*
X138381Y377304D01*
X138733Y377324D01*
X138908D01*
X139084Y377304D01*
D02*
G37*
G36*
X150547Y359975D02*
X150650Y359961D01*
X150767Y359946D01*
X151045Y359888D01*
X151338Y359785D01*
X151499Y359712D01*
X151645Y359639D01*
X151777Y359536D01*
X151909Y359419D01*
X152041Y359287D01*
X152143Y359141D01*
Y359126D01*
X152172Y359097D01*
X152187Y359053D01*
X152216Y358995D01*
X152245Y358907D01*
X152289Y358804D01*
X152319Y358687D01*
X152348Y358555D01*
X152407Y358262D01*
Y357896D01*
X152392Y357706D01*
X152363Y357501D01*
X152319Y357282D01*
X152245Y357047D01*
Y357033D01*
X152231Y357003D01*
X152202Y356930D01*
X152172Y356857D01*
X152128Y356755D01*
X152070Y356637D01*
X151909Y356374D01*
X151704Y356066D01*
X151587Y355905D01*
X151440Y355744D01*
X151294Y355583D01*
X151118Y355422D01*
X150928Y355261D01*
X150723Y355100D01*
X150708Y355086D01*
X150679Y355071D01*
X150606Y355027D01*
X150518Y354969D01*
X150416Y354910D01*
X150298Y354851D01*
X150152Y354778D01*
X149991Y354705D01*
X149815Y354617D01*
X149610Y354544D01*
X149200Y354427D01*
X148732Y354324D01*
X148498Y354310D01*
X148249Y354295D01*
X148132D01*
X148058Y354310D01*
X147956Y354324D01*
X147839Y354339D01*
X147575Y354398D01*
X147283Y354485D01*
X146990Y354632D01*
X146858Y354720D01*
X146712Y354822D01*
X146595Y354954D01*
X146477Y355086D01*
Y355100D01*
X146448Y355130D01*
X146433Y355173D01*
X146404Y355232D01*
X146360Y355305D01*
X146331Y355408D01*
X146287Y355510D01*
X146258Y355642D01*
X146229Y355788D01*
X146199Y355935D01*
X146185Y356286D01*
X146199Y356491D01*
X146229Y356696D01*
X146272Y356916D01*
X146346Y357150D01*
Y357165D01*
X146360Y357208D01*
X146389Y357267D01*
X146433Y357355D01*
X146477Y357457D01*
X146536Y357589D01*
X146697Y357867D01*
X146902Y358189D01*
X147180Y358526D01*
X147327Y358702D01*
X147502Y358863D01*
X147678Y359024D01*
X147883Y359185D01*
X147897Y359199D01*
X147927Y359214D01*
X148000Y359258D01*
X148073Y359317D01*
X148176Y359375D01*
X148307Y359434D01*
X148454Y359507D01*
X148615Y359595D01*
X148776Y359668D01*
X148966Y359741D01*
X149391Y359858D01*
X149845Y359961D01*
X150093Y359975D01*
X150342Y359990D01*
X150459D01*
X150547Y359975D01*
D02*
G37*
G36*
X125249D02*
X125352Y359961D01*
X125469Y359946D01*
X125747Y359888D01*
X126040Y359785D01*
X126201Y359712D01*
X126347Y359639D01*
X126479Y359536D01*
X126611Y359419D01*
X126743Y359287D01*
X126845Y359141D01*
Y359126D01*
X126874Y359097D01*
X126889Y359053D01*
X126918Y358995D01*
X126948Y358907D01*
X126991Y358804D01*
X127021Y358687D01*
X127050Y358555D01*
X127109Y358262D01*
Y357896D01*
X127094Y357706D01*
X127065Y357501D01*
X127021Y357282D01*
X126948Y357047D01*
Y357033D01*
X126933Y357003D01*
X126904Y356930D01*
X126874Y356857D01*
X126830Y356755D01*
X126772Y356637D01*
X126611Y356374D01*
X126406Y356066D01*
X126289Y355905D01*
X126142Y355744D01*
X125996Y355583D01*
X125820Y355422D01*
X125630Y355261D01*
X125425Y355100D01*
X125410Y355086D01*
X125381Y355071D01*
X125308Y355027D01*
X125220Y354969D01*
X125118Y354910D01*
X125001Y354851D01*
X124854Y354778D01*
X124693Y354705D01*
X124517Y354617D01*
X124312Y354544D01*
X123902Y354427D01*
X123434Y354324D01*
X123200Y354310D01*
X122951Y354295D01*
X122834D01*
X122761Y354310D01*
X122658Y354324D01*
X122541Y354339D01*
X122277Y354398D01*
X121985Y354485D01*
X121692Y354632D01*
X121560Y354720D01*
X121414Y354822D01*
X121297Y354954D01*
X121179Y355086D01*
Y355100D01*
X121150Y355130D01*
X121135Y355173D01*
X121106Y355232D01*
X121062Y355305D01*
X121033Y355408D01*
X120989Y355510D01*
X120960Y355642D01*
X120931Y355788D01*
X120901Y355935D01*
X120887Y356286D01*
X120901Y356491D01*
X120931Y356696D01*
X120975Y356916D01*
X121048Y357150D01*
Y357165D01*
X121062Y357208D01*
X121092Y357267D01*
X121135Y357355D01*
X121179Y357457D01*
X121238Y357589D01*
X121399Y357867D01*
X121604Y358189D01*
X121882Y358526D01*
X122029Y358702D01*
X122204Y358863D01*
X122380Y359024D01*
X122585Y359185D01*
X122599Y359199D01*
X122629Y359214D01*
X122702Y359258D01*
X122775Y359317D01*
X122878Y359375D01*
X123009Y359434D01*
X123156Y359507D01*
X123317Y359595D01*
X123478Y359668D01*
X123668Y359741D01*
X124093Y359858D01*
X124547Y359961D01*
X124795Y359975D01*
X125044Y359990D01*
X125162D01*
X125249Y359975D01*
D02*
G37*
G36*
X119188Y355759D02*
Y355744D01*
X119174Y355700D01*
X119144Y355642D01*
X119130Y355554D01*
X119115Y355408D01*
Y355349D01*
X119130Y355305D01*
X119159Y355291D01*
X119188D01*
X119262Y355276D01*
X119349Y355261D01*
X119496Y355247D01*
X119671Y355232D01*
X119789Y355217D01*
X119906D01*
X119789Y354807D01*
X117563Y354310D01*
X117900Y355291D01*
X117871Y355276D01*
X117812Y355217D01*
X117710Y355130D01*
X117563Y355027D01*
X117402Y354910D01*
X117212Y354778D01*
X117007Y354661D01*
X116787Y354559D01*
X116758Y354544D01*
X116685Y354515D01*
X116583Y354471D01*
X116436Y354427D01*
X116260Y354383D01*
X116085Y354339D01*
X115880Y354310D01*
X115689Y354295D01*
X115660D01*
X115572Y354310D01*
X115455Y354324D01*
X115294Y354354D01*
X115133Y354427D01*
X114972Y354515D01*
X114811Y354632D01*
X114694Y354807D01*
X114679Y354837D01*
X114650Y354910D01*
X114621Y355012D01*
X114591Y355173D01*
X114577Y355378D01*
Y355613D01*
X114621Y355876D01*
X114694Y356184D01*
X115631Y358921D01*
Y358936D01*
X115646Y358951D01*
Y359009D01*
Y359082D01*
X115602Y359141D01*
X115587Y359156D01*
X115543Y359170D01*
X115484Y359199D01*
X115397Y359214D01*
X115279Y359258D01*
X115119Y359287D01*
X114913Y359331D01*
X115060Y359756D01*
X117022D01*
X115821Y356242D01*
X115807Y356213D01*
X115792Y356140D01*
X115763Y356037D01*
X115733Y355920D01*
X115704Y355774D01*
X115689Y355642D01*
Y355525D01*
X115719Y355422D01*
Y355408D01*
X115748Y355393D01*
X115777Y355364D01*
X115850Y355320D01*
X115924Y355276D01*
X116041Y355247D01*
X116187Y355232D01*
X116363Y355217D01*
X116451D01*
X116509Y355232D01*
X116583D01*
X116670Y355247D01*
X116890Y355291D01*
X117153Y355364D01*
X117446Y355466D01*
X117754Y355613D01*
X118076Y355818D01*
X119130Y358907D01*
Y358921D01*
X119144Y358936D01*
Y359009D01*
X119130Y359082D01*
X119101Y359112D01*
X119057Y359141D01*
X119027Y359156D01*
X118969Y359170D01*
X118881Y359185D01*
X118764Y359199D01*
X118588Y359229D01*
X118471Y359243D01*
X118354Y359258D01*
X118208Y359273D01*
X118046Y359287D01*
X118208Y359756D01*
X120550D01*
X119188Y355759D01*
D02*
G37*
G36*
X138791Y355364D02*
X138777Y355334D01*
X138762Y355276D01*
X138747Y355188D01*
Y355130D01*
X138762Y355100D01*
X138806Y355086D01*
X138865Y355071D01*
X139582Y354881D01*
X139436Y354456D01*
X139406D01*
X139333Y354471D01*
X139201D01*
X139026Y354485D01*
X138806D01*
X138542Y354500D01*
X137283D01*
X137035Y354485D01*
X136771D01*
X136507Y354471D01*
X136273Y354456D01*
X136434Y354895D01*
X137327Y355056D01*
X137342D01*
X137386Y355071D01*
X137430Y355086D01*
X137503Y355115D01*
X137576Y355159D01*
X137635Y355217D01*
X137693Y355305D01*
X137737Y355393D01*
X138791Y358482D01*
Y358497D01*
X138806Y358526D01*
X138821Y358629D01*
X138835Y358746D01*
X138821Y358804D01*
X138791Y358848D01*
X138777Y358863D01*
X138733Y358892D01*
X138689Y358921D01*
X138616Y358951D01*
X138513Y358995D01*
X138381Y359038D01*
X138206Y359082D01*
X138338Y359478D01*
X138352D01*
X138381Y359492D01*
X138440Y359507D01*
X138513Y359522D01*
X138601Y359551D01*
X138718Y359595D01*
X138952Y359697D01*
X139231Y359829D01*
X139523Y359990D01*
X139816Y360195D01*
X140094Y360444D01*
X140519D01*
X138791Y355364D01*
D02*
G37*
G36*
X92134Y371348D02*
Y371328D01*
Y371269D01*
Y371191D01*
X92154Y371074D01*
X92193Y370879D01*
X92212Y370801D01*
X92251Y370742D01*
X92290Y370723D01*
X92349D01*
X92427Y370703D01*
X92564Y370684D01*
X92759Y370664D01*
X93013D01*
X93150Y370644D01*
X93325D01*
Y370059D01*
X93306D01*
X93267Y370039D01*
X93189D01*
X93071Y370000D01*
X92954Y369981D01*
X92798Y369961D01*
X92447Y369883D01*
X92036Y369824D01*
X91587Y369746D01*
X91118Y369688D01*
X90650Y369649D01*
Y370430D01*
X90630Y370410D01*
X90532Y370371D01*
X90415Y370312D01*
X90240Y370234D01*
X90044Y370156D01*
X89829Y370059D01*
X89361Y369902D01*
X89341D01*
X89244Y369883D01*
X89126Y369844D01*
X88951Y369824D01*
X88755Y369785D01*
X88521Y369746D01*
X88248Y369727D01*
X87857D01*
X87779Y369746D01*
X87544Y369785D01*
X87252Y369863D01*
X86919Y369981D01*
X86568Y370156D01*
X86392Y370273D01*
X86216Y370430D01*
X86041Y370586D01*
X85865Y370762D01*
Y370781D01*
X85826Y370801D01*
X85787Y370859D01*
X85728Y370957D01*
X85670Y371055D01*
X85591Y371172D01*
X85435Y371465D01*
X85259Y371816D01*
X85123Y372246D01*
X85025Y372695D01*
X85005Y372949D01*
X84986Y373203D01*
Y373222D01*
Y373281D01*
Y373359D01*
X85005Y373496D01*
X85025Y373633D01*
X85045Y373808D01*
X85084Y374004D01*
X85123Y374199D01*
X85240Y374668D01*
X85435Y375156D01*
X85572Y375390D01*
X85709Y375644D01*
X85865Y375879D01*
X86060Y376113D01*
X86080Y376132D01*
X86119Y376171D01*
X86177Y376230D01*
X86256Y376308D01*
X86353Y376386D01*
X86470Y376503D01*
X86783Y376718D01*
X87154Y376933D01*
X87584Y377129D01*
X87818Y377207D01*
X88052Y377265D01*
X88306Y377304D01*
X88579Y377324D01*
X88814D01*
X88931Y377304D01*
X89068D01*
X89361Y377265D01*
X89712Y377207D01*
X90044Y377129D01*
X90376Y377011D01*
X90650Y376855D01*
Y379706D01*
Y379726D01*
Y379804D01*
Y379902D01*
X90630Y380019D01*
X90572Y380273D01*
X90532Y380390D01*
X90474Y380468D01*
X90435Y380507D01*
X90357Y380546D01*
X90259Y380585D01*
X90103Y380644D01*
X89908Y380722D01*
X89634Y380800D01*
X89458Y380859D01*
X89283Y380898D01*
Y381464D01*
X89341D01*
X89400Y381484D01*
X89497D01*
X89615Y381503D01*
X89732Y381523D01*
X90025Y381562D01*
X90376Y381620D01*
X90747Y381698D01*
X91118Y381777D01*
X91470Y381894D01*
X92134D01*
Y371348D01*
D02*
G37*
G36*
X158966Y377714D02*
Y377675D01*
Y377617D01*
X158985Y377539D01*
Y377441D01*
Y377324D01*
X159005Y377031D01*
X159024Y376699D01*
Y376308D01*
X159044Y375918D01*
Y375547D01*
X159063Y375625D01*
X159083Y375742D01*
X159122Y375879D01*
X159200Y376054D01*
X159317Y376250D01*
X159493Y376464D01*
X159708Y376699D01*
X159747Y376718D01*
X159825Y376796D01*
X159962Y376894D01*
X160118Y377011D01*
X160313Y377129D01*
X160509Y377226D01*
X160723Y377304D01*
X160938Y377324D01*
X161016D01*
X161094Y377304D01*
X161212Y377285D01*
X161329Y377246D01*
X161466Y377187D01*
X161583Y377109D01*
X161700Y377011D01*
X161719Y376992D01*
X161739Y376953D01*
X161797Y376894D01*
X161856Y376816D01*
X161895Y376699D01*
X161954Y376582D01*
X161973Y376425D01*
X161993Y376269D01*
Y376250D01*
Y376210D01*
X161973Y376132D01*
X161954Y376054D01*
X161895Y375859D01*
X161817Y375761D01*
X161739Y375664D01*
X161719D01*
X161700Y375625D01*
X161641Y375605D01*
X161583Y375566D01*
X161368Y375488D01*
X161251Y375468D01*
X161114Y375449D01*
X160997D01*
X160919Y375468D01*
X160723Y375507D01*
X160489Y375586D01*
X160469D01*
X160430Y375605D01*
X160372Y375625D01*
X160294Y375664D01*
X160137Y375703D01*
X159981Y375722D01*
X159942D01*
X159884Y375703D01*
X159805Y375644D01*
X159708Y375586D01*
X159610Y375488D01*
X159493Y375351D01*
X159376Y375156D01*
X159356Y375136D01*
X159317Y375058D01*
X159278Y374961D01*
X159220Y374843D01*
X159102Y374570D01*
X159063Y374433D01*
X159044Y374297D01*
Y371387D01*
Y371367D01*
Y371328D01*
Y371250D01*
X159063Y371172D01*
X159083Y371016D01*
X159102Y370957D01*
X159141Y370898D01*
X159161Y370879D01*
X159259Y370840D01*
X159317Y370820D01*
X159415Y370801D01*
X159532Y370762D01*
X159669Y370742D01*
X161192Y370527D01*
Y369941D01*
X161075D01*
X160997Y369961D01*
X160762D01*
X160450Y369981D01*
X160079D01*
X159649Y370000D01*
X157872D01*
X157481Y369981D01*
X157071D01*
X156622Y369961D01*
X156173Y369941D01*
Y370527D01*
X157169Y370703D01*
X157188D01*
X157208Y370723D01*
X157325Y370762D01*
X157442Y370820D01*
X157481Y370859D01*
X157520Y370898D01*
X157540Y370918D01*
X157560Y371016D01*
X157579Y371074D01*
Y371172D01*
X157599Y371289D01*
Y371426D01*
Y374785D01*
Y374804D01*
Y374824D01*
X157579Y374941D01*
X157560Y375058D01*
X157481Y375175D01*
X157462Y375195D01*
X157423Y375215D01*
X157364Y375254D01*
X157306Y375273D01*
X157188Y375312D01*
X157052Y375351D01*
X156895Y375390D01*
X156310Y375527D01*
X156368Y376054D01*
X156407Y376074D01*
X156485Y376093D01*
X156642Y376152D01*
X156798Y376230D01*
X156993Y376308D01*
X157188Y376406D01*
X157384Y376503D01*
X157560Y376621D01*
X157579Y376640D01*
X157638Y376679D01*
X157716Y376757D01*
X157813Y376875D01*
X157950Y377031D01*
X158087Y377226D01*
X158223Y377461D01*
X158360Y377734D01*
X158966D01*
Y377714D01*
D02*
G37*
G36*
X105297Y381425D02*
X105668Y381405D01*
X106059Y381386D01*
X106410Y381347D01*
X106742Y381288D01*
X106781D01*
X106879Y381269D01*
X107035Y381210D01*
X107231Y381152D01*
X107485Y381073D01*
X107758Y380976D01*
X108031Y380839D01*
X108344Y380663D01*
Y380644D01*
Y380624D01*
X108363Y380507D01*
X108383Y380312D01*
X108403Y380078D01*
X108422Y379765D01*
Y379433D01*
Y379062D01*
Y378652D01*
X107778D01*
Y378671D01*
X107758Y378691D01*
X107738Y378749D01*
X107699Y378828D01*
X107621Y379023D01*
X107504Y379257D01*
X107328Y379511D01*
X107133Y379765D01*
X106899Y380019D01*
X106625Y380234D01*
X106586Y380253D01*
X106489Y380312D01*
X106313Y380390D01*
X106098Y380488D01*
X105824Y380585D01*
X105492Y380663D01*
X105141Y380722D01*
X104731Y380742D01*
X104555D01*
X104438Y380722D01*
X104301Y380702D01*
X104125Y380663D01*
X103930Y380624D01*
X103715Y380566D01*
X103500Y380488D01*
X103266Y380390D01*
X103012Y380273D01*
X102778Y380117D01*
X102524Y379960D01*
X102290Y379765D01*
X102055Y379531D01*
X101821Y379277D01*
X101801Y379257D01*
X101762Y379218D01*
X101723Y379120D01*
X101645Y379023D01*
X101548Y378867D01*
X101450Y378691D01*
X101352Y378496D01*
X101254Y378261D01*
X101137Y378007D01*
X101040Y377714D01*
X100942Y377402D01*
X100844Y377070D01*
X100766Y376699D01*
X100727Y376328D01*
X100688Y375918D01*
X100669Y375488D01*
Y375468D01*
Y375371D01*
Y375254D01*
X100688Y375078D01*
X100708Y374863D01*
X100727Y374629D01*
X100747Y374355D01*
X100805Y374062D01*
X100923Y373457D01*
X101098Y372812D01*
X101215Y372519D01*
X101352Y372226D01*
X101508Y371953D01*
X101684Y371699D01*
X101704Y371680D01*
X101743Y371640D01*
X101801Y371582D01*
X101880Y371504D01*
X101977Y371406D01*
X102114Y371308D01*
X102270Y371191D01*
X102465Y371074D01*
X102661Y370957D01*
X102895Y370840D01*
X103149Y370742D01*
X103422Y370644D01*
X103715Y370566D01*
X104028Y370508D01*
X104379Y370469D01*
X104750Y370449D01*
X104848D01*
X104965Y370469D01*
X105121Y370488D01*
X105317Y370527D01*
X105532Y370566D01*
X105786Y370644D01*
X106039Y370742D01*
X106332Y370859D01*
X106606Y371016D01*
X106899Y371191D01*
X107172Y371426D01*
X107465Y371680D01*
X107719Y371992D01*
X107973Y372344D01*
X108207Y372754D01*
X108735D01*
Y372734D01*
Y372695D01*
X108715Y372637D01*
X108695Y372539D01*
X108676Y372422D01*
X108656Y372285D01*
X108598Y371953D01*
X108520Y371562D01*
X108422Y371133D01*
X108305Y370664D01*
X108168Y370195D01*
X108149D01*
X108109Y370176D01*
X108031Y370156D01*
X107934Y370117D01*
X107817Y370078D01*
X107660Y370039D01*
X107485Y370000D01*
X107270Y369961D01*
X107035Y369922D01*
X106781Y369883D01*
X106508Y369844D01*
X106196Y369805D01*
X105864Y369766D01*
X105512Y369746D01*
X105141Y369727D01*
X104633D01*
X104477Y369746D01*
X104282D01*
X104047Y369766D01*
X103774Y369805D01*
X103461Y369863D01*
X103129Y369922D01*
X102778Y370000D01*
X102407Y370098D01*
X102036Y370234D01*
X101665Y370371D01*
X101294Y370547D01*
X100923Y370762D01*
X100591Y370996D01*
X100259Y371269D01*
X100239Y371289D01*
X100180Y371348D01*
X100102Y371426D01*
X100005Y371562D01*
X99868Y371719D01*
X99731Y371894D01*
X99575Y372129D01*
X99438Y372363D01*
X99282Y372656D01*
X99126Y372969D01*
X98989Y373301D01*
X98852Y373672D01*
X98755Y374062D01*
X98677Y374472D01*
X98618Y374922D01*
X98598Y375390D01*
Y375410D01*
Y375468D01*
Y375547D01*
X98618Y375664D01*
Y375800D01*
X98637Y375957D01*
X98657Y376152D01*
X98696Y376367D01*
X98794Y376816D01*
X98930Y377324D01*
X99126Y377851D01*
X99380Y378378D01*
Y378398D01*
X99419Y378437D01*
X99458Y378515D01*
X99516Y378613D01*
X99594Y378730D01*
X99692Y378867D01*
X99946Y379199D01*
X100239Y379550D01*
X100610Y379921D01*
X101040Y380292D01*
X101508Y380624D01*
X101528Y380644D01*
X101567Y380663D01*
X101645Y380702D01*
X101743Y380761D01*
X101860Y380820D01*
X102016Y380878D01*
X102192Y380956D01*
X102387Y381034D01*
X102817Y381191D01*
X103305Y381308D01*
X103852Y381405D01*
X104418Y381445D01*
X104946D01*
X105297Y381425D01*
D02*
G37*
G36*
X53621D02*
X53758D01*
X53914Y381405D01*
X54285Y381347D01*
X54715Y381230D01*
X55183Y381073D01*
X55632Y380878D01*
X55867Y380742D01*
X56082Y380585D01*
X56003Y378339D01*
X55437D01*
Y378359D01*
X55418Y378437D01*
X55379Y378554D01*
X55320Y378691D01*
X55261Y378867D01*
X55183Y379062D01*
X55066Y379277D01*
X54949Y379492D01*
X54812Y379687D01*
X54636Y379902D01*
X54441Y380097D01*
X54226Y380273D01*
X53972Y380410D01*
X53699Y380527D01*
X53386Y380605D01*
X53054Y380624D01*
X52918D01*
X52762Y380605D01*
X52547Y380566D01*
X52332Y380507D01*
X52078Y380410D01*
X51844Y380292D01*
X51609Y380136D01*
X51590Y380117D01*
X51531Y380058D01*
X51433Y379941D01*
X51336Y379804D01*
X51219Y379648D01*
X51140Y379452D01*
X51062Y379218D01*
X51043Y378984D01*
Y378964D01*
Y378906D01*
X51062Y378808D01*
X51101Y378671D01*
X51160Y378515D01*
X51238Y378359D01*
X51355Y378183D01*
X51512Y378007D01*
X51531Y377988D01*
X51609Y377929D01*
X51746Y377832D01*
X51961Y377675D01*
X52078Y377597D01*
X52234Y377500D01*
X52410Y377402D01*
X52586Y377285D01*
X52801Y377168D01*
X53035Y377031D01*
X53289Y376894D01*
X53582Y376738D01*
X53601D01*
X53660Y376699D01*
X53738Y376660D01*
X53855Y376582D01*
X53992Y376523D01*
X54168Y376425D01*
X54539Y376210D01*
X54929Y375976D01*
X55339Y375703D01*
X55730Y375449D01*
X55906Y375312D01*
X56062Y375175D01*
X56101Y375136D01*
X56179Y375058D01*
X56316Y374902D01*
X56453Y374668D01*
X56589Y374394D01*
X56726Y374043D01*
X56804Y373633D01*
X56843Y373164D01*
Y373144D01*
Y373105D01*
Y373008D01*
X56824Y372910D01*
X56804Y372773D01*
X56785Y372617D01*
X56707Y372266D01*
X56570Y371875D01*
X56375Y371465D01*
X56257Y371250D01*
X56121Y371055D01*
X55945Y370859D01*
X55750Y370664D01*
X55730Y370644D01*
X55691Y370625D01*
X55632Y370586D01*
X55554Y370527D01*
X55437Y370449D01*
X55300Y370371D01*
X55144Y370293D01*
X54968Y370195D01*
X54773Y370117D01*
X54558Y370020D01*
X54304Y369941D01*
X54031Y369883D01*
X53758Y369805D01*
X53445Y369766D01*
X53113Y369746D01*
X52762Y369727D01*
X52586D01*
X52469Y369746D01*
X52312D01*
X52136Y369766D01*
X51922Y369805D01*
X51707Y369844D01*
X51199Y369941D01*
X50652Y370098D01*
X50086Y370312D01*
X49793Y370449D01*
X49500Y370605D01*
X49695Y373496D01*
X50281D01*
Y373476D01*
X50301Y373437D01*
Y373359D01*
X50320Y373261D01*
X50340Y373144D01*
X50379Y373008D01*
X50476Y372695D01*
X50594Y372344D01*
X50770Y371972D01*
X51004Y371621D01*
X51277Y371308D01*
X51297D01*
X51316Y371269D01*
X51433Y371191D01*
X51590Y371055D01*
X51824Y370918D01*
X52097Y370781D01*
X52410Y370644D01*
X52762Y370566D01*
X53133Y370527D01*
X53289D01*
X53484Y370566D01*
X53699Y370605D01*
X53953Y370664D01*
X54226Y370762D01*
X54500Y370898D01*
X54754Y371094D01*
X54773Y371113D01*
X54851Y371191D01*
X54949Y371308D01*
X55086Y371484D01*
X55203Y371680D01*
X55300Y371894D01*
X55379Y372168D01*
X55398Y372441D01*
Y372480D01*
Y372558D01*
X55379Y372676D01*
X55339Y372851D01*
X55261Y373027D01*
X55183Y373222D01*
X55046Y373418D01*
X54871Y373613D01*
X54851Y373633D01*
X54773Y373711D01*
X54636Y373808D01*
X54441Y373945D01*
X54187Y374121D01*
X53875Y374316D01*
X53504Y374551D01*
X53054Y374785D01*
X53035Y374804D01*
X52976Y374824D01*
X52879Y374883D01*
X52762Y374941D01*
X52605Y375039D01*
X52429Y375136D01*
X52039Y375371D01*
X51609Y375644D01*
X51160Y375937D01*
X50770Y376230D01*
X50594Y376386D01*
X50437Y376542D01*
X50398Y376582D01*
X50320Y376679D01*
X50203Y376855D01*
X50066Y377089D01*
X49930Y377363D01*
X49812Y377675D01*
X49734Y378027D01*
X49695Y378417D01*
Y378437D01*
Y378476D01*
Y378554D01*
X49715Y378632D01*
X49734Y378749D01*
X49754Y378886D01*
X49832Y379179D01*
X49949Y379531D01*
X50125Y379902D01*
X50242Y380078D01*
X50379Y380253D01*
X50535Y380429D01*
X50711Y380585D01*
X50730Y380605D01*
X50750Y380624D01*
X50809Y380663D01*
X50887Y380722D01*
X51004Y380781D01*
X51121Y380859D01*
X51258Y380937D01*
X51414Y381015D01*
X51805Y381171D01*
X52254Y381308D01*
X52762Y381405D01*
X53054Y381445D01*
X53504D01*
X53621Y381425D01*
D02*
G37*
G36*
X345330Y371368D02*
X344705Y371231D01*
X344695D01*
X344666Y371222D01*
X344637Y371212D01*
X344588Y371202D01*
X344490Y371163D01*
X344451Y371134D01*
X344412Y371105D01*
X344403Y371085D01*
X344393Y371065D01*
X344383Y371036D01*
X344363Y370997D01*
X344354Y370948D01*
X344344Y370880D01*
Y370802D01*
Y366839D01*
Y366830D01*
Y366800D01*
Y366752D01*
Y366703D01*
X344354Y366595D01*
X344363Y366547D01*
X344373Y366517D01*
X344383Y366508D01*
X344403Y366488D01*
X344451Y366459D01*
X344529Y366429D01*
X345339Y366264D01*
Y365981D01*
X345105D01*
X345017Y365990D01*
X344598D01*
X344373Y366000D01*
X343427D01*
X343192Y365990D01*
X342939D01*
X342646Y365981D01*
Y366264D01*
X343222Y366381D01*
X343231D01*
X343251Y366390D01*
X343319Y366410D01*
X343397Y366439D01*
X343427Y366459D01*
X343446Y366478D01*
X343456Y366488D01*
Y366508D01*
X343466Y366537D01*
X343475Y366576D01*
Y366634D01*
X343485Y366693D01*
Y366771D01*
Y370773D01*
X341621Y365932D01*
X339386Y371144D01*
Y366722D01*
Y366712D01*
Y366673D01*
X339396Y366615D01*
X339405Y366556D01*
X339425Y366488D01*
X339454Y366439D01*
X339493Y366390D01*
X339552Y366371D01*
X340450Y366273D01*
Y365981D01*
X340284D01*
X340215Y365990D01*
X339874D01*
X339659Y366000D01*
X338732D01*
X338517Y365990D01*
X338273D01*
X338000Y365981D01*
Y366273D01*
X338547Y366371D01*
X338556D01*
X338595Y366381D01*
X338644Y366390D01*
X338703Y366400D01*
X338761Y366420D01*
X338820Y366439D01*
X338869Y366459D01*
X338898Y366478D01*
X338908Y366488D01*
X338927Y366537D01*
X338937Y366615D01*
X338947Y366664D01*
Y366722D01*
Y371261D01*
X338146Y371358D01*
Y371661D01*
X338195D01*
X338264Y371651D01*
X338478D01*
X338644Y371641D01*
X339405D01*
X339542Y371651D01*
X339825D01*
X339942Y371661D01*
X341816Y367327D01*
X343524Y371661D01*
X343602D01*
X343700Y371651D01*
X343954D01*
X344110Y371641D01*
X344715D01*
X344851Y371651D01*
X345164D01*
X345330Y371661D01*
Y371368D01*
D02*
G37*
G36*
X348453Y371349D02*
X347604Y371261D01*
X347594D01*
X347555Y371251D01*
X347516Y371241D01*
X347487Y371222D01*
X347477Y371192D01*
X347467Y371153D01*
Y371114D01*
Y371075D01*
Y366556D01*
Y366537D01*
Y366498D01*
X347477Y366449D01*
X347487Y366410D01*
X347497D01*
X347506Y366400D01*
X347545Y366390D01*
X347604D01*
X348453Y366342D01*
Y365971D01*
X348404D01*
X348365Y365981D01*
X348189D01*
X348102Y365990D01*
X347789D01*
X347662Y366000D01*
X346491D01*
X346257Y365990D01*
X346023D01*
X345798Y365981D01*
X345701D01*
X345613Y365971D01*
Y366342D01*
X346452Y366390D01*
X346472D01*
X346511Y366400D01*
X346550Y366410D01*
X346579Y366420D01*
Y366429D01*
X346589Y366449D01*
X346599Y366488D01*
Y366556D01*
Y371075D01*
Y371085D01*
Y371095D01*
Y371134D01*
X346589Y371183D01*
X346569Y371222D01*
X346560Y371231D01*
X346540Y371241D01*
X346511Y371261D01*
X346452Y371270D01*
X345613Y371358D01*
Y371661D01*
X345710D01*
X345769Y371651D01*
X346169D01*
X346325Y371641D01*
X347848D01*
X347994Y371651D01*
X348307D01*
X348453Y371661D01*
Y371349D01*
D02*
G37*
G36*
X246651Y373210D02*
X246875Y373200D01*
X247099Y373180D01*
X247324Y373151D01*
X247529Y373122D01*
X247549D01*
X247578Y373112D01*
X247617Y373102D01*
X247714Y373073D01*
X247841Y373044D01*
X247997Y372995D01*
X248163Y372927D01*
X248329Y372849D01*
X248505Y372761D01*
X248515D01*
X248524Y372751D01*
X248583Y372712D01*
X248661Y372663D01*
X248768Y372585D01*
X248886Y372497D01*
X249012Y372390D01*
X249139Y372273D01*
X249256Y372146D01*
X249266Y372126D01*
X249305Y372087D01*
X249354Y372009D01*
X249422Y371921D01*
X249491Y371804D01*
X249569Y371668D01*
X249637Y371511D01*
X249705Y371345D01*
X249715Y371326D01*
X249735Y371267D01*
X249754Y371180D01*
X249793Y371062D01*
X249823Y370916D01*
X249842Y370760D01*
X249862Y370584D01*
X249871Y370399D01*
Y370389D01*
Y370360D01*
Y370321D01*
X249862Y370252D01*
Y370184D01*
X249852Y370096D01*
X249832Y369989D01*
X249813Y369881D01*
X249754Y369628D01*
X249676Y369354D01*
X249559Y369062D01*
X249481Y368915D01*
X249403Y368769D01*
X249393Y368759D01*
X249383Y368740D01*
X249354Y368691D01*
X249315Y368642D01*
X249276Y368583D01*
X249217Y368505D01*
X249071Y368349D01*
X248895Y368173D01*
X248690Y368007D01*
X248456Y367861D01*
X248320Y367793D01*
X248183Y367744D01*
X248173D01*
X248154Y367734D01*
X248105Y367724D01*
X248056Y367705D01*
X247988Y367685D01*
X247910Y367666D01*
X247822Y367646D01*
X247724Y367627D01*
X247500Y367578D01*
X247256Y367539D01*
X246992Y367510D01*
X246729Y367500D01*
X245313Y367519D01*
X243479D01*
Y367822D01*
X244211Y367978D01*
X244230D01*
X244279Y367998D01*
X244337Y368017D01*
X244376Y368056D01*
X244386Y368066D01*
Y368086D01*
X244396Y368115D01*
X244406Y368154D01*
Y368203D01*
X244415Y368261D01*
Y368339D01*
Y372399D01*
Y372409D01*
Y372429D01*
Y372458D01*
Y372497D01*
X244396Y372585D01*
X244386Y372614D01*
X244376Y372643D01*
X244367Y372653D01*
X244347Y372673D01*
X244298Y372702D01*
X244230Y372722D01*
X243566Y372839D01*
Y373141D01*
X244455D01*
X244728Y373151D01*
X245021Y373171D01*
X245099D01*
X245157Y373180D01*
X245216D01*
X245294Y373190D01*
X245470Y373200D01*
X245655D01*
X245841Y373210D01*
X246016Y373219D01*
X246455D01*
X246651Y373210D01*
D02*
G37*
G36*
X145169Y249521D02*
X145184Y249511D01*
X145203Y249491D01*
X145213Y249472D01*
X145218Y249443D01*
X145213Y248706D01*
Y248701D01*
Y248686D01*
X145208Y248672D01*
X145203Y248652D01*
X145194Y248628D01*
X145174Y248613D01*
X145155Y248598D01*
X145125Y248593D01*
X145121D01*
X145111Y248598D01*
X145096Y248603D01*
X145081Y248613D01*
X145062Y248633D01*
X145043Y248657D01*
X145023Y248696D01*
X145008Y248745D01*
Y248750D01*
Y248755D01*
X144999Y248779D01*
X144989Y248813D01*
X144974Y248857D01*
X144940Y248955D01*
X144921Y248994D01*
X144896Y249028D01*
X144891Y249033D01*
X144881Y249038D01*
X144867Y249052D01*
X144842Y249067D01*
X144803Y249077D01*
X144759Y249091D01*
X144701Y249096D01*
X144628Y249101D01*
X144130D01*
Y246890D01*
Y246885D01*
Y246876D01*
Y246856D01*
X144135Y246832D01*
X144140Y246788D01*
X144145Y246773D01*
X144149Y246759D01*
X144154Y246754D01*
X144169Y246744D01*
X144198Y246729D01*
X144223Y246725D01*
X144247Y246715D01*
X144623Y246632D01*
Y246490D01*
X144545D01*
X144511Y246495D01*
X144320D01*
X144262Y246500D01*
X143461D01*
X143344Y246495D01*
X143242D01*
X143198Y246490D01*
X143164D01*
Y246632D01*
X143505Y246700D01*
X143510D01*
X143525Y246705D01*
X143544Y246710D01*
X143564Y246720D01*
X143613Y246739D01*
X143632Y246749D01*
X143647Y246763D01*
X143652Y246773D01*
X143661Y246793D01*
X143671Y246837D01*
X143676Y246861D01*
Y246895D01*
Y249101D01*
X143134D01*
X143105Y249096D01*
X143042Y249077D01*
X143008Y249062D01*
X142973Y249043D01*
X142968Y249038D01*
X142959Y249028D01*
X142939Y249008D01*
X142910Y248979D01*
X142876Y248940D01*
X142832Y248886D01*
X142778Y248818D01*
X142720Y248735D01*
X142715Y248730D01*
X142705Y248715D01*
X142685Y248691D01*
X142666Y248667D01*
X142641Y248642D01*
X142617Y248618D01*
X142588Y248603D01*
X142563Y248598D01*
X142554D01*
X142534Y248608D01*
X142519Y248623D01*
X142510Y248637D01*
X142505Y248662D01*
X142500Y248691D01*
Y248696D01*
Y248701D01*
Y248715D01*
X142505Y248735D01*
X142510Y248784D01*
X142524Y248852D01*
X142656Y249340D01*
Y249350D01*
X142666Y249369D01*
X142676Y249399D01*
X142685Y249433D01*
X142705Y249467D01*
X142725Y249496D01*
X142744Y249516D01*
X142768Y249526D01*
X142778D01*
X142793Y249521D01*
X142807Y249511D01*
X142827Y249496D01*
X142847Y249472D01*
X142871Y249443D01*
X142895Y249404D01*
Y249399D01*
X142900Y249394D01*
X142915Y249369D01*
X142929Y249340D01*
X142934Y249330D01*
X142944Y249325D01*
X142968D01*
X142983Y249321D01*
X144828D01*
X144891Y249325D01*
X144916Y249330D01*
X144935Y249335D01*
X144940Y249340D01*
X144959Y249355D01*
X144969Y249369D01*
X144979Y249389D01*
X144994Y249409D01*
X145008Y249438D01*
Y249443D01*
X145018Y249452D01*
X145038Y249487D01*
X145072Y249516D01*
X145091Y249526D01*
X145116Y249531D01*
X145130D01*
X145169Y249521D01*
D02*
G37*
G36*
X148249Y249184D02*
X147946Y249135D01*
X147941D01*
X147927Y249125D01*
X147907Y249116D01*
X147873Y249091D01*
X147834Y249052D01*
X147785Y249003D01*
X147756Y248974D01*
X147722Y248935D01*
X147687Y248896D01*
X147653Y248847D01*
X146994Y247988D01*
X147819Y246920D01*
X147829Y246910D01*
X147848Y246885D01*
X147878Y246847D01*
X147917Y246803D01*
X147956Y246759D01*
X148005Y246720D01*
X148049Y246690D01*
X148068Y246681D01*
X148088Y246676D01*
X148410Y246632D01*
Y246485D01*
X148375D01*
X148351Y246490D01*
X148244D01*
X148200Y246495D01*
X148092D01*
X147970Y246500D01*
X147483D01*
X147380Y246495D01*
X147258D01*
X147126Y246490D01*
X146980Y246485D01*
Y246632D01*
X147209Y246661D01*
X147214D01*
X147229Y246666D01*
X147253D01*
X147277Y246671D01*
X147331Y246681D01*
X147351Y246685D01*
X147365Y246690D01*
X147370Y246695D01*
X147380Y246700D01*
X147390Y246705D01*
X147395Y246710D01*
Y246715D01*
X147390Y246734D01*
X147380Y246763D01*
X147356Y246807D01*
X146736Y247661D01*
X146233Y246978D01*
X146228Y246973D01*
X146219Y246959D01*
X146204Y246939D01*
X146189Y246910D01*
X146160Y246851D01*
X146150Y246822D01*
X146145Y246793D01*
Y246783D01*
X146150Y246763D01*
X146170Y246734D01*
X146179Y246720D01*
X146199Y246705D01*
X146204D01*
X146209Y246700D01*
X146238Y246690D01*
X146277Y246676D01*
X146331Y246666D01*
X146638Y246632D01*
Y246485D01*
X146609D01*
X146585Y246490D01*
X146487D01*
X146443Y246495D01*
X146341D01*
X146219Y246500D01*
X145721D01*
X145613Y246495D01*
X145496D01*
X145374Y246490D01*
X145243Y246485D01*
Y246632D01*
X145565Y246681D01*
X145570D01*
X145579Y246685D01*
X145599Y246690D01*
X145623Y246700D01*
X145682Y246725D01*
X145745Y246768D01*
X145750Y246773D01*
X145760Y246783D01*
X145779Y246798D01*
X145804Y246822D01*
X145833Y246851D01*
X145867Y246890D01*
X145906Y246934D01*
X145945Y246988D01*
X146604Y247822D01*
X145809Y248916D01*
X145804Y248920D01*
X145789Y248940D01*
X145774Y248964D01*
X145750Y248994D01*
X145701Y249052D01*
X145677Y249077D01*
X145657Y249096D01*
X145652Y249101D01*
X145633Y249116D01*
X145604Y249135D01*
X145565Y249145D01*
X145243Y249184D01*
Y249335D01*
X145296D01*
X145330Y249330D01*
X145462D01*
X145526Y249325D01*
X145745D01*
X145838Y249321D01*
X146336D01*
X146419Y249325D01*
X146507D01*
X146599Y249330D01*
X146687Y249335D01*
Y249184D01*
X146385Y249135D01*
X146380D01*
X146365Y249130D01*
X146345Y249125D01*
X146326Y249121D01*
X146306Y249111D01*
X146287Y249096D01*
X146272Y249081D01*
X146267Y249062D01*
Y249057D01*
Y249052D01*
X146272Y249038D01*
X146277Y249018D01*
X146287Y248994D01*
X146301Y248964D01*
X146321Y248925D01*
X146350Y248886D01*
X146863Y248145D01*
X147419Y248916D01*
X147424Y248920D01*
X147429Y248930D01*
X147448Y248959D01*
X147468Y248994D01*
X147478Y249013D01*
Y249033D01*
Y249038D01*
Y249043D01*
X147473Y249052D01*
X147463Y249067D01*
X147448Y249081D01*
X147424Y249096D01*
X147395Y249111D01*
X147356Y249121D01*
X147073Y249184D01*
Y249335D01*
X147121D01*
X147146Y249330D01*
X147253D01*
X147341Y249325D01*
X147439D01*
X147546Y249321D01*
X147892D01*
X147990Y249325D01*
X148088D01*
X148175Y249330D01*
X148214Y249335D01*
X148249D01*
Y249184D01*
D02*
G37*
G36*
X352279Y371710D02*
X352464Y371700D01*
X352660Y371690D01*
X352835Y371671D01*
X353001Y371641D01*
X353021D01*
X353069Y371632D01*
X353148Y371602D01*
X353245Y371573D01*
X353372Y371534D01*
X353509Y371485D01*
X353645Y371417D01*
X353801Y371329D01*
Y371319D01*
Y371309D01*
X353811Y371251D01*
X353821Y371153D01*
X353831Y371036D01*
X353840Y370880D01*
Y370714D01*
Y370529D01*
Y370324D01*
X353518D01*
Y370333D01*
X353509Y370343D01*
X353499Y370373D01*
X353479Y370411D01*
X353440Y370509D01*
X353382Y370626D01*
X353294Y370753D01*
X353196Y370880D01*
X353079Y371007D01*
X352943Y371114D01*
X352923Y371124D01*
X352874Y371153D01*
X352786Y371192D01*
X352679Y371241D01*
X352542Y371290D01*
X352377Y371329D01*
X352201Y371358D01*
X351996Y371368D01*
X351908D01*
X351849Y371358D01*
X351781Y371349D01*
X351693Y371329D01*
X351596Y371309D01*
X351488Y371280D01*
X351381Y371241D01*
X351264Y371192D01*
X351137Y371134D01*
X351020Y371056D01*
X350893Y370978D01*
X350776Y370880D01*
X350659Y370763D01*
X350542Y370636D01*
X350532Y370626D01*
X350512Y370607D01*
X350493Y370558D01*
X350454Y370509D01*
X350405Y370431D01*
X350356Y370343D01*
X350307Y370246D01*
X350259Y370128D01*
X350200Y370002D01*
X350151Y369855D01*
X350102Y369699D01*
X350054Y369533D01*
X350015Y369348D01*
X349995Y369162D01*
X349975Y368957D01*
X349966Y368743D01*
Y368733D01*
Y368684D01*
Y368625D01*
X349975Y368538D01*
X349985Y368430D01*
X349995Y368313D01*
X350005Y368177D01*
X350034Y368030D01*
X350093Y367727D01*
X350181Y367405D01*
X350239Y367259D01*
X350307Y367113D01*
X350385Y366976D01*
X350473Y366849D01*
X350483Y366839D01*
X350503Y366820D01*
X350532Y366791D01*
X350571Y366752D01*
X350620Y366703D01*
X350688Y366654D01*
X350766Y366595D01*
X350864Y366537D01*
X350961Y366478D01*
X351078Y366420D01*
X351205Y366371D01*
X351342Y366322D01*
X351488Y366283D01*
X351644Y366254D01*
X351820Y366234D01*
X352006Y366225D01*
X352054D01*
X352113Y366234D01*
X352191Y366244D01*
X352289Y366264D01*
X352396Y366283D01*
X352523Y366322D01*
X352650Y366371D01*
X352796Y366429D01*
X352933Y366508D01*
X353079Y366595D01*
X353216Y366712D01*
X353362Y366839D01*
X353489Y366996D01*
X353616Y367171D01*
X353733Y367376D01*
X353997D01*
Y367366D01*
Y367347D01*
X353987Y367318D01*
X353977Y367269D01*
X353967Y367210D01*
X353958Y367142D01*
X353928Y366976D01*
X353889Y366781D01*
X353840Y366566D01*
X353782Y366332D01*
X353714Y366098D01*
X353704D01*
X353684Y366088D01*
X353645Y366078D01*
X353596Y366059D01*
X353538Y366039D01*
X353460Y366020D01*
X353372Y366000D01*
X353265Y365981D01*
X353148Y365961D01*
X353021Y365941D01*
X352884Y365922D01*
X352728Y365902D01*
X352562Y365883D01*
X352386Y365873D01*
X352201Y365863D01*
X351947D01*
X351869Y365873D01*
X351771D01*
X351654Y365883D01*
X351518Y365902D01*
X351361Y365932D01*
X351196Y365961D01*
X351020Y366000D01*
X350834Y366049D01*
X350649Y366117D01*
X350464Y366185D01*
X350278Y366273D01*
X350093Y366381D01*
X349927Y366498D01*
X349761Y366634D01*
X349751Y366644D01*
X349722Y366673D01*
X349683Y366712D01*
X349634Y366781D01*
X349566Y366859D01*
X349497Y366947D01*
X349419Y367064D01*
X349351Y367181D01*
X349273Y367327D01*
X349195Y367483D01*
X349126Y367649D01*
X349058Y367835D01*
X349009Y368030D01*
X348970Y368235D01*
X348941Y368460D01*
X348931Y368694D01*
Y368704D01*
Y368733D01*
Y368772D01*
X348941Y368830D01*
Y368899D01*
X348951Y368977D01*
X348960Y369074D01*
X348980Y369182D01*
X349029Y369406D01*
X349097Y369660D01*
X349195Y369923D01*
X349322Y370187D01*
Y370197D01*
X349341Y370216D01*
X349361Y370255D01*
X349390Y370304D01*
X349429Y370363D01*
X349478Y370431D01*
X349605Y370597D01*
X349751Y370773D01*
X349937Y370958D01*
X350151Y371144D01*
X350385Y371309D01*
X350395Y371319D01*
X350415Y371329D01*
X350454Y371349D01*
X350503Y371378D01*
X350561Y371407D01*
X350639Y371436D01*
X350727Y371475D01*
X350825Y371514D01*
X351039Y371592D01*
X351283Y371651D01*
X351557Y371700D01*
X351840Y371719D01*
X352103D01*
X352279Y371710D01*
D02*
G37*
G36*
X233641Y373210D02*
X233748D01*
X233865Y373200D01*
X234002Y373180D01*
X234148Y373161D01*
X234304Y373141D01*
X234460Y373112D01*
X234802Y373034D01*
X235143Y372917D01*
X235319Y372849D01*
X235475Y372770D01*
X235553Y371599D01*
X235280Y371550D01*
X235270Y371570D01*
X235251Y371609D01*
X235222Y371668D01*
X235173Y371755D01*
X235114Y371853D01*
X235046Y371960D01*
X234958Y372087D01*
X234860Y372204D01*
X234753Y372331D01*
X234626Y372448D01*
X234490Y372556D01*
X234333Y372653D01*
X234168Y372741D01*
X233982Y372800D01*
X233787Y372849D01*
X233582Y372858D01*
X233465D01*
X233387Y372849D01*
X233289Y372839D01*
X233172Y372819D01*
X233045Y372800D01*
X232899Y372770D01*
X232752Y372731D01*
X232606Y372692D01*
X232450Y372634D01*
X232294Y372565D01*
X232137Y372487D01*
X231991Y372390D01*
X231854Y372292D01*
X231718Y372165D01*
X231708Y372155D01*
X231688Y372136D01*
X231659Y372097D01*
X231610Y372038D01*
X231562Y371970D01*
X231503Y371882D01*
X231445Y371785D01*
X231386Y371677D01*
X231318Y371550D01*
X231259Y371404D01*
X231201Y371258D01*
X231152Y371092D01*
X231103Y370906D01*
X231074Y370711D01*
X231054Y370506D01*
X231044Y370291D01*
Y370282D01*
Y370243D01*
Y370194D01*
X231054Y370116D01*
X231064Y370028D01*
X231083Y369930D01*
X231103Y369813D01*
X231132Y369686D01*
X231171Y369550D01*
X231210Y369403D01*
X231269Y369257D01*
X231337Y369110D01*
X231415Y368954D01*
X231513Y368798D01*
X231620Y368652D01*
X231737Y368505D01*
X231747Y368495D01*
X231767Y368476D01*
X231806Y368437D01*
X231864Y368388D01*
X231932Y368330D01*
X232011Y368261D01*
X232108Y368193D01*
X232215Y368125D01*
X232333Y368056D01*
X232459Y367988D01*
X232606Y367920D01*
X232752Y367861D01*
X232918Y367812D01*
X233084Y367773D01*
X233260Y367754D01*
X233445Y367744D01*
X233494D01*
X233562Y367754D01*
X233641D01*
X233728Y367773D01*
X233836Y367793D01*
X233943Y367812D01*
X234060Y367851D01*
X234168Y367900D01*
X234275Y367949D01*
X234382Y368017D01*
X234480Y368105D01*
X234548Y368203D01*
X234616Y368310D01*
X234655Y368447D01*
X234665Y368593D01*
Y369559D01*
Y369569D01*
Y369608D01*
X234646Y369647D01*
X234626Y369676D01*
X234616Y369686D01*
X234587Y369696D01*
X234538Y369706D01*
X234460Y369715D01*
X233553Y369784D01*
Y370106D01*
X233680D01*
X233738Y370096D01*
X233982D01*
X234168Y370086D01*
X234372D01*
X234568Y370077D01*
X235290D01*
X235544Y370086D01*
X235827D01*
X236110Y370096D01*
X236403Y370106D01*
Y369784D01*
X235749Y369715D01*
X235729D01*
X235690Y369706D01*
X235641Y369696D01*
X235602Y369676D01*
Y369667D01*
X235593Y369647D01*
X235583Y369618D01*
X235573Y369559D01*
Y368593D01*
Y368583D01*
Y368544D01*
Y368486D01*
Y368417D01*
X235563Y368281D01*
Y368213D01*
X235553Y368154D01*
Y368144D01*
Y368134D01*
X235534Y368076D01*
X235505Y367998D01*
X235446Y367910D01*
X235427Y367890D01*
X235397Y367871D01*
X235358Y367842D01*
X235300Y367803D01*
X235222Y367754D01*
X235124Y367705D01*
X234997Y367656D01*
X234978Y367646D01*
X234939Y367637D01*
X234860Y367607D01*
X234763Y367578D01*
X234636Y367539D01*
X234499Y367500D01*
X234343Y367471D01*
X234177Y367441D01*
X234158D01*
X234099Y367432D01*
X234002Y367422D01*
X233885Y367402D01*
X233738Y367393D01*
X233572Y367373D01*
X233397Y367363D01*
X233143D01*
X233074Y367373D01*
X232967D01*
X232840Y367383D01*
X232703Y367402D01*
X232538Y367432D01*
X232372Y367461D01*
X232186Y367500D01*
X232001Y367559D01*
X231806Y367617D01*
X231610Y367695D01*
X231415Y367783D01*
X231220Y367890D01*
X231044Y368007D01*
X230869Y368144D01*
X230859Y368154D01*
X230830Y368183D01*
X230791Y368222D01*
X230732Y368291D01*
X230664Y368369D01*
X230595Y368457D01*
X230517Y368564D01*
X230439Y368691D01*
X230351Y368837D01*
X230273Y368984D01*
X230205Y369159D01*
X230137Y369335D01*
X230078Y369530D01*
X230039Y369745D01*
X230010Y369959D01*
X230000Y370194D01*
Y370213D01*
Y370252D01*
X230010Y370321D01*
X230019Y370418D01*
X230029Y370526D01*
X230049Y370662D01*
X230078Y370809D01*
X230117Y370965D01*
X230176Y371141D01*
X230234Y371316D01*
X230312Y371492D01*
X230410Y371677D01*
X230517Y371863D01*
X230644Y372038D01*
X230800Y372204D01*
X230966Y372370D01*
X230976Y372380D01*
X231015Y372409D01*
X231064Y372448D01*
X231142Y372507D01*
X231240Y372565D01*
X231357Y372643D01*
X231484Y372712D01*
X231640Y372800D01*
X231806Y372878D01*
X232001Y372956D01*
X232196Y373024D01*
X232420Y373083D01*
X232655Y373141D01*
X232909Y373180D01*
X233172Y373210D01*
X233445Y373219D01*
X233562D01*
X233641Y373210D01*
D02*
G37*
G36*
X381319Y357154D02*
Y357144D01*
X381329Y357134D01*
X381349Y357086D01*
X381378Y357027D01*
X381407Y356988D01*
X381417D01*
X381446Y356968D01*
X381485Y356949D01*
X381563Y356920D01*
X382110Y356754D01*
Y356481D01*
X381963D01*
X381905Y356490D01*
X381563D01*
X381358Y356500D01*
X380256D01*
X380051Y356490D01*
X379836D01*
X379631Y356481D01*
Y356764D01*
X380285Y356861D01*
X380295D01*
X380304Y356871D01*
X380363Y356881D01*
X380421Y356890D01*
X380451Y356900D01*
X380480D01*
X380490Y356910D01*
X380500Y356929D01*
X380509Y356939D01*
Y356949D01*
Y356968D01*
X380490Y357017D01*
X380470Y357086D01*
X379777Y358979D01*
X378196D01*
X377513Y357027D01*
Y357017D01*
X377503Y356978D01*
X377493Y356939D01*
Y356900D01*
Y356881D01*
X377513Y356851D01*
X377523D01*
X377542Y356842D01*
X377591D01*
X377630Y356832D01*
X377679D01*
X378372Y356783D01*
Y356490D01*
X378186D01*
X378128Y356500D01*
X376332D01*
X376254Y356490D01*
X376049D01*
Y356783D01*
X376674Y356832D01*
X376683D01*
X376713Y356842D01*
X376752Y356851D01*
X376800Y356861D01*
X376908Y356910D01*
X376957Y356949D01*
X376996Y356988D01*
X378977Y362444D01*
X379358D01*
X381319Y357154D01*
D02*
G37*
G36*
X380379Y204710D02*
X380467D01*
X380565Y204700D01*
X380672Y204690D01*
X380789Y204671D01*
X381033Y204631D01*
X381297Y204563D01*
X381541Y204475D01*
X381658Y204427D01*
X381765Y204358D01*
X381775D01*
X381785Y204339D01*
X381814Y204319D01*
X381853Y204290D01*
X381941Y204212D01*
X382048Y204095D01*
X382146Y203958D01*
X382234Y203782D01*
X382273Y203675D01*
X382302Y203568D01*
X382312Y203460D01*
X382322Y203333D01*
Y203324D01*
Y203304D01*
X382312Y203265D01*
Y203216D01*
X382292Y203158D01*
X382273Y203089D01*
X382243Y203011D01*
X382205Y202933D01*
X382156Y202845D01*
X382087Y202758D01*
X382019Y202670D01*
X381921Y202582D01*
X381814Y202494D01*
X381687Y202416D01*
X381541Y202338D01*
X381375Y202270D01*
X381394D01*
X381433Y202250D01*
X381502Y202231D01*
X381590Y202201D01*
X381687Y202162D01*
X381804Y202104D01*
X381921Y202035D01*
X382048Y201957D01*
X382175Y201860D01*
X382292Y201752D01*
X382409Y201625D01*
X382507Y201489D01*
X382595Y201333D01*
X382663Y201147D01*
X382702Y200952D01*
X382722Y200737D01*
Y200728D01*
Y200718D01*
Y200689D01*
Y200649D01*
X382702Y200562D01*
X382683Y200435D01*
X382644Y200298D01*
X382585Y200142D01*
X382507Y199976D01*
X382400Y199820D01*
X382390Y199800D01*
X382341Y199751D01*
X382273Y199673D01*
X382165Y199586D01*
X382048Y199488D01*
X381892Y199381D01*
X381716Y199283D01*
X381521Y199195D01*
X381511D01*
X381492Y199185D01*
X381463Y199176D01*
X381424Y199166D01*
X381375Y199146D01*
X381316Y199137D01*
X381170Y199098D01*
X380984Y199059D01*
X380789Y199029D01*
X380565Y199010D01*
X380321Y199000D01*
X377793D01*
Y199293D01*
X378388Y199410D01*
X378398D01*
X378418Y199420D01*
X378476Y199429D01*
X378544Y199469D01*
X378574Y199488D01*
X378593Y199507D01*
X378603Y199517D01*
X378613Y199537D01*
X378623Y199566D01*
X378632Y199605D01*
X378642Y199664D01*
X378652Y199722D01*
Y199800D01*
Y204036D01*
Y204046D01*
Y204056D01*
Y204095D01*
X378642Y204144D01*
X378623Y204173D01*
X378613Y204183D01*
X378603D01*
X378574Y204192D01*
X378544Y204202D01*
X378496Y204212D01*
X378427Y204222D01*
X378340Y204231D01*
X377686Y204290D01*
Y204602D01*
X378281Y204631D01*
X378349D01*
X378437Y204641D01*
X378544D01*
X378681Y204651D01*
X378828Y204661D01*
X378984Y204671D01*
X379150Y204680D01*
X379491Y204690D01*
X379657Y204700D01*
X379803Y204710D01*
X379940D01*
X380057Y204719D01*
X380311D01*
X380379Y204710D01*
D02*
G37*
G36*
X374328D02*
X374416D01*
X374523Y204690D01*
X374650Y204671D01*
X374787Y204651D01*
X374943Y204612D01*
X375099Y204573D01*
X375275Y204514D01*
X375441Y204446D01*
X375626Y204368D01*
X375802Y204270D01*
X375978Y204153D01*
X376153Y204026D01*
X376319Y203880D01*
X376329Y203870D01*
X376358Y203841D01*
X376397Y203792D01*
X376456Y203734D01*
X376524Y203646D01*
X376592Y203548D01*
X376671Y203441D01*
X376758Y203314D01*
X376836Y203168D01*
X376915Y203011D01*
X376983Y202836D01*
X377051Y202660D01*
X377110Y202465D01*
X377149Y202260D01*
X377178Y202035D01*
X377188Y201811D01*
Y201791D01*
Y201752D01*
X377178Y201684D01*
Y201596D01*
X377159Y201479D01*
X377139Y201352D01*
X377119Y201206D01*
X377080Y201050D01*
X377032Y200884D01*
X376983Y200708D01*
X376905Y200532D01*
X376827Y200357D01*
X376729Y200171D01*
X376612Y200005D01*
X376485Y199830D01*
X376329Y199673D01*
X376319Y199664D01*
X376290Y199634D01*
X376241Y199595D01*
X376173Y199547D01*
X376085Y199488D01*
X375987Y199420D01*
X375861Y199342D01*
X375724Y199273D01*
X375577Y199195D01*
X375402Y199117D01*
X375216Y199049D01*
X375021Y198990D01*
X374806Y198941D01*
X374582Y198902D01*
X374338Y198873D01*
X374084Y198863D01*
X374026D01*
X373948Y198873D01*
X373860D01*
X373743Y198893D01*
X373606Y198902D01*
X373450Y198932D01*
X373294Y198961D01*
X373118Y199010D01*
X372933Y199059D01*
X372747Y199127D01*
X372562Y199205D01*
X372376Y199303D01*
X372191Y199410D01*
X372015Y199527D01*
X371849Y199673D01*
X371839Y199683D01*
X371810Y199713D01*
X371771Y199761D01*
X371712Y199820D01*
X371654Y199898D01*
X371586Y199996D01*
X371508Y200113D01*
X371429Y200239D01*
X371342Y200386D01*
X371273Y200542D01*
X371195Y200718D01*
X371137Y200903D01*
X371078Y201098D01*
X371039Y201313D01*
X371010Y201528D01*
X371000Y201762D01*
Y201772D01*
Y201821D01*
X371010Y201879D01*
Y201967D01*
X371029Y202074D01*
X371049Y202191D01*
X371068Y202328D01*
X371107Y202484D01*
X371156Y202641D01*
X371215Y202806D01*
X371283Y202982D01*
X371371Y203158D01*
X371468Y203333D01*
X371586Y203509D01*
X371712Y203685D01*
X371869Y203851D01*
X371878Y203860D01*
X371908Y203890D01*
X371956Y203929D01*
X372025Y203987D01*
X372113Y204056D01*
X372220Y204124D01*
X372347Y204202D01*
X372493Y204290D01*
X372649Y204368D01*
X372825Y204446D01*
X373020Y204514D01*
X373225Y204583D01*
X373450Y204641D01*
X373694Y204680D01*
X373948Y204710D01*
X374211Y204719D01*
X374270D01*
X374328Y204710D01*
D02*
G37*
G36*
X242981Y372858D02*
X242542Y372809D01*
X242522D01*
X242493Y372800D01*
X242444Y372780D01*
X242415Y372741D01*
Y372731D01*
X242405Y372712D01*
Y372683D01*
Y372653D01*
Y372595D01*
Y372526D01*
Y372448D01*
X242493Y367393D01*
X242151D01*
X237964Y372019D01*
Y368173D01*
Y368164D01*
Y368144D01*
Y368105D01*
Y368066D01*
X237974Y367988D01*
X237984Y367959D01*
X237993Y367929D01*
X238003Y367920D01*
X238033Y367900D01*
X238071Y367881D01*
X238150Y367871D01*
X239038Y367773D01*
Y367480D01*
X238872D01*
X238813Y367490D01*
X238462D01*
X238257Y367500D01*
X237320D01*
X237105Y367490D01*
X236861D01*
X236588Y367480D01*
Y367773D01*
X237144Y367871D01*
X237154D01*
X237193Y367881D01*
X237232Y367890D01*
X237291Y367900D01*
X237398Y367929D01*
X237447Y367949D01*
X237476Y367969D01*
X237486Y367978D01*
X237505Y368017D01*
X237525Y368076D01*
X237535Y368125D01*
Y368173D01*
Y371980D01*
Y371999D01*
Y372038D01*
Y372107D01*
X237525Y372195D01*
X237505Y372370D01*
X237486Y372458D01*
X237457Y372526D01*
Y372536D01*
X237447Y372556D01*
X237398Y372614D01*
X237359Y372653D01*
X237320Y372683D01*
X237261Y372712D01*
X237193Y372731D01*
X236598Y372819D01*
Y373141D01*
X237808D01*
X237857Y373131D01*
X237954Y373122D01*
X237993Y373102D01*
X238033Y373083D01*
X238052Y373073D01*
X238071Y373053D01*
X238101Y373034D01*
X238140Y372995D01*
X238189Y372946D01*
X238237Y372878D01*
X238296Y372800D01*
X242063Y368593D01*
X241975Y372439D01*
Y372448D01*
Y372478D01*
X241966Y372507D01*
Y372556D01*
X241946Y372634D01*
X241936Y372673D01*
X241917Y372692D01*
X241907Y372702D01*
X241878Y372722D01*
X241819Y372741D01*
X241741Y372761D01*
X240912Y372858D01*
Y373161D01*
X240970D01*
X241058Y373151D01*
X241312D01*
X241488Y373141D01*
X242337D01*
X242512Y373151D01*
X242844D01*
X242981Y373161D01*
Y372858D01*
D02*
G37*
G36*
X331155Y382065D02*
X333273D01*
Y381518D01*
X331155D01*
Y379420D01*
X330589D01*
Y381518D01*
X328490D01*
Y382065D01*
X330589D01*
Y384183D01*
X331155D01*
Y382065D01*
D02*
G37*
G36*
X372828Y362210D02*
X372916D01*
X373023Y362190D01*
X373150Y362171D01*
X373287Y362151D01*
X373443Y362112D01*
X373599Y362073D01*
X373775Y362014D01*
X373941Y361946D01*
X374126Y361868D01*
X374302Y361770D01*
X374478Y361653D01*
X374653Y361526D01*
X374819Y361380D01*
X374829Y361370D01*
X374858Y361341D01*
X374897Y361292D01*
X374956Y361234D01*
X375024Y361146D01*
X375093Y361048D01*
X375171Y360941D01*
X375258Y360814D01*
X375337Y360667D01*
X375415Y360511D01*
X375483Y360336D01*
X375551Y360160D01*
X375610Y359965D01*
X375649Y359760D01*
X375678Y359535D01*
X375688Y359311D01*
Y359291D01*
Y359252D01*
X375678Y359184D01*
Y359096D01*
X375659Y358979D01*
X375639Y358852D01*
X375620Y358706D01*
X375581Y358550D01*
X375532Y358384D01*
X375483Y358208D01*
X375405Y358032D01*
X375327Y357857D01*
X375229Y357671D01*
X375112Y357505D01*
X374985Y357330D01*
X374829Y357173D01*
X374819Y357164D01*
X374790Y357134D01*
X374741Y357095D01*
X374673Y357047D01*
X374585Y356988D01*
X374487Y356920D01*
X374360Y356842D01*
X374224Y356773D01*
X374077Y356695D01*
X373902Y356617D01*
X373716Y356549D01*
X373521Y356490D01*
X373306Y356441D01*
X373082Y356402D01*
X372838Y356373D01*
X372584Y356363D01*
X372526D01*
X372447Y356373D01*
X372360D01*
X372243Y356393D01*
X372106Y356402D01*
X371950Y356432D01*
X371794Y356461D01*
X371618Y356510D01*
X371432Y356559D01*
X371247Y356627D01*
X371062Y356705D01*
X370876Y356803D01*
X370691Y356910D01*
X370515Y357027D01*
X370349Y357173D01*
X370339Y357183D01*
X370310Y357212D01*
X370271Y357261D01*
X370213Y357320D01*
X370154Y357398D01*
X370086Y357495D01*
X370007Y357613D01*
X369929Y357739D01*
X369842Y357886D01*
X369773Y358042D01*
X369695Y358218D01*
X369637Y358403D01*
X369578Y358598D01*
X369539Y358813D01*
X369510Y359028D01*
X369500Y359262D01*
Y359272D01*
Y359321D01*
X369510Y359379D01*
Y359467D01*
X369529Y359574D01*
X369549Y359692D01*
X369568Y359828D01*
X369607Y359984D01*
X369656Y360140D01*
X369715Y360306D01*
X369783Y360482D01*
X369871Y360658D01*
X369969Y360833D01*
X370086Y361009D01*
X370213Y361185D01*
X370369Y361351D01*
X370378Y361361D01*
X370408Y361390D01*
X370457Y361429D01*
X370525Y361487D01*
X370613Y361556D01*
X370720Y361624D01*
X370847Y361702D01*
X370993Y361790D01*
X371149Y361868D01*
X371325Y361946D01*
X371520Y362014D01*
X371725Y362083D01*
X371950Y362141D01*
X372194Y362180D01*
X372447Y362210D01*
X372711Y362219D01*
X372770D01*
X372828Y362210D01*
D02*
G37*
G36*
X144974Y238474D02*
X143988D01*
X143934Y237747D01*
X143939Y237752D01*
X143959Y237762D01*
X143988Y237776D01*
X144027Y237796D01*
X144076Y237810D01*
X144134Y237825D01*
X144203Y237835D01*
X144276Y237840D01*
X144315D01*
X144339Y237835D01*
X144374Y237830D01*
X144413Y237825D01*
X144500Y237806D01*
X144603Y237776D01*
X144710Y237732D01*
X144764Y237703D01*
X144818Y237669D01*
X144871Y237625D01*
X144920Y237581D01*
X144925Y237576D01*
X144930Y237571D01*
X144945Y237557D01*
X144959Y237532D01*
X144983Y237508D01*
X145003Y237479D01*
X145027Y237440D01*
X145052Y237401D01*
X145101Y237303D01*
X145145Y237191D01*
X145174Y237059D01*
X145179Y236986D01*
X145184Y236913D01*
Y236908D01*
Y236893D01*
Y236869D01*
X145179Y236839D01*
X145174Y236800D01*
X145169Y236752D01*
X145159Y236703D01*
X145145Y236649D01*
X145106Y236537D01*
X145081Y236473D01*
X145047Y236415D01*
X145013Y236356D01*
X144969Y236298D01*
X144920Y236244D01*
X144861Y236190D01*
X144857Y236185D01*
X144847Y236181D01*
X144827Y236166D01*
X144803Y236151D01*
X144774Y236132D01*
X144739Y236107D01*
X144696Y236083D01*
X144647Y236063D01*
X144539Y236015D01*
X144413Y235971D01*
X144276Y235941D01*
X144203Y235937D01*
X144125Y235932D01*
X144086D01*
X144042Y235937D01*
X143983Y235941D01*
X143920Y235951D01*
X143846Y235966D01*
X143773Y235985D01*
X143695Y236010D01*
X143685Y236015D01*
X143666Y236024D01*
X143632Y236044D01*
X143598Y236068D01*
X143559Y236098D01*
X143524Y236132D01*
X143505Y236171D01*
X143495Y236215D01*
Y236220D01*
Y236225D01*
X143500Y236254D01*
X143515Y236293D01*
X143544Y236337D01*
X143549Y236342D01*
X143554Y236347D01*
X143583Y236366D01*
X143627Y236385D01*
X143656Y236395D01*
X143700D01*
X143729Y236390D01*
X143759Y236385D01*
X143793Y236366D01*
X143798D01*
X143807Y236356D01*
X143822Y236347D01*
X143842Y236332D01*
X143895Y236293D01*
X143964Y236254D01*
X144037Y236215D01*
X144115Y236176D01*
X144193Y236151D01*
X144227Y236146D01*
X144261Y236141D01*
X144271D01*
X144300Y236146D01*
X144339Y236151D01*
X144398Y236166D01*
X144457Y236190D01*
X144525Y236225D01*
X144593Y236273D01*
X144661Y236337D01*
X144671Y236347D01*
X144691Y236371D01*
X144715Y236415D01*
X144749Y236473D01*
X144783Y236542D01*
X144808Y236620D01*
X144827Y236713D01*
X144837Y236810D01*
Y236815D01*
Y236825D01*
Y236839D01*
X144832Y236859D01*
X144827Y236913D01*
X144813Y236976D01*
X144793Y237054D01*
X144759Y237132D01*
X144715Y237215D01*
X144657Y237288D01*
X144647Y237298D01*
X144627Y237318D01*
X144588Y237347D01*
X144535Y237386D01*
X144471Y237420D01*
X144398Y237449D01*
X144315Y237469D01*
X144222Y237479D01*
X144183D01*
X144154Y237474D01*
X144086Y237464D01*
X144012Y237444D01*
X144008D01*
X143998Y237440D01*
X143978Y237430D01*
X143959Y237420D01*
X143910Y237381D01*
X143866Y237332D01*
X143720D01*
X143803Y238821D01*
X144637D01*
X144701Y238825D01*
X144749D01*
X144759Y238830D01*
X144779D01*
X144798Y238840D01*
X144842Y238860D01*
X144881Y238894D01*
X145018D01*
X144974Y238474D01*
D02*
G37*
G36*
X143320Y267855D02*
X143374D01*
X143432Y267850D01*
X143501Y267840D01*
X143574Y267830D01*
X143652Y267821D01*
X143730Y267806D01*
X143901Y267767D01*
X144072Y267708D01*
X144160Y267674D01*
X144238Y267635D01*
X144277Y267050D01*
X144140Y267025D01*
X144135Y267035D01*
X144125Y267055D01*
X144111Y267084D01*
X144086Y267128D01*
X144057Y267177D01*
X144023Y267230D01*
X143979Y267294D01*
X143930Y267352D01*
X143877Y267416D01*
X143813Y267474D01*
X143745Y267528D01*
X143667Y267577D01*
X143584Y267621D01*
X143491Y267650D01*
X143393Y267674D01*
X143291Y267679D01*
X143232D01*
X143193Y267674D01*
X143145Y267669D01*
X143086Y267660D01*
X143023Y267650D01*
X142949Y267635D01*
X142876Y267616D01*
X142803Y267596D01*
X142725Y267567D01*
X142647Y267533D01*
X142569Y267494D01*
X142496Y267445D01*
X142427Y267396D01*
X142359Y267333D01*
X142354Y267328D01*
X142344Y267318D01*
X142330Y267299D01*
X142305Y267269D01*
X142281Y267235D01*
X142252Y267191D01*
X142222Y267142D01*
X142193Y267089D01*
X142159Y267025D01*
X142130Y266952D01*
X142100Y266879D01*
X142076Y266796D01*
X142051Y266703D01*
X142037Y266605D01*
X142027Y266503D01*
X142022Y266396D01*
Y266391D01*
Y266371D01*
Y266347D01*
X142027Y266308D01*
X142032Y266264D01*
X142042Y266215D01*
X142051Y266157D01*
X142066Y266093D01*
X142086Y266025D01*
X142105Y265952D01*
X142134Y265878D01*
X142169Y265805D01*
X142208Y265727D01*
X142256Y265649D01*
X142310Y265576D01*
X142369Y265503D01*
X142374Y265498D01*
X142383Y265488D01*
X142403Y265469D01*
X142432Y265444D01*
X142466Y265415D01*
X142505Y265381D01*
X142554Y265347D01*
X142608Y265312D01*
X142666Y265278D01*
X142730Y265244D01*
X142803Y265210D01*
X142876Y265181D01*
X142959Y265156D01*
X143042Y265137D01*
X143130Y265127D01*
X143223Y265122D01*
X143247D01*
X143281Y265127D01*
X143320D01*
X143364Y265137D01*
X143418Y265146D01*
X143472Y265156D01*
X143530Y265176D01*
X143584Y265200D01*
X143637Y265225D01*
X143691Y265259D01*
X143740Y265303D01*
X143774Y265351D01*
X143808Y265405D01*
X143828Y265473D01*
X143833Y265547D01*
Y266030D01*
Y266035D01*
Y266054D01*
X143823Y266074D01*
X143813Y266088D01*
X143808Y266093D01*
X143794Y266098D01*
X143769Y266103D01*
X143730Y266108D01*
X143276Y266142D01*
Y266303D01*
X143340D01*
X143369Y266298D01*
X143491D01*
X143584Y266293D01*
X143686D01*
X143784Y266288D01*
X144145D01*
X144272Y266293D01*
X144413D01*
X144555Y266298D01*
X144701Y266303D01*
Y266142D01*
X144374Y266108D01*
X144365D01*
X144345Y266103D01*
X144321Y266098D01*
X144301Y266088D01*
Y266083D01*
X144296Y266074D01*
X144291Y266059D01*
X144287Y266030D01*
Y265547D01*
Y265542D01*
Y265522D01*
Y265493D01*
Y265459D01*
X144282Y265390D01*
Y265356D01*
X144277Y265327D01*
Y265322D01*
Y265317D01*
X144267Y265288D01*
X144252Y265249D01*
X144223Y265205D01*
X144213Y265195D01*
X144199Y265185D01*
X144179Y265171D01*
X144150Y265151D01*
X144111Y265127D01*
X144062Y265103D01*
X143999Y265078D01*
X143989Y265073D01*
X143969Y265068D01*
X143930Y265054D01*
X143881Y265039D01*
X143818Y265019D01*
X143750Y265000D01*
X143672Y264985D01*
X143589Y264971D01*
X143579D01*
X143550Y264966D01*
X143501Y264961D01*
X143442Y264951D01*
X143369Y264946D01*
X143286Y264937D01*
X143198Y264932D01*
X143071D01*
X143037Y264937D01*
X142983D01*
X142920Y264941D01*
X142852Y264951D01*
X142769Y264966D01*
X142686Y264981D01*
X142593Y265000D01*
X142500Y265029D01*
X142403Y265059D01*
X142305Y265098D01*
X142208Y265142D01*
X142110Y265195D01*
X142022Y265254D01*
X141934Y265322D01*
X141929Y265327D01*
X141915Y265342D01*
X141895Y265361D01*
X141866Y265395D01*
X141832Y265434D01*
X141798Y265478D01*
X141759Y265532D01*
X141720Y265595D01*
X141676Y265669D01*
X141637Y265742D01*
X141603Y265830D01*
X141568Y265917D01*
X141539Y266015D01*
X141519Y266122D01*
X141505Y266230D01*
X141500Y266347D01*
Y266357D01*
Y266376D01*
X141505Y266410D01*
X141510Y266459D01*
X141515Y266513D01*
X141524Y266581D01*
X141539Y266654D01*
X141559Y266732D01*
X141588Y266820D01*
X141617Y266908D01*
X141656Y266996D01*
X141705Y267089D01*
X141759Y267181D01*
X141822Y267269D01*
X141900Y267352D01*
X141983Y267435D01*
X141988Y267440D01*
X142008Y267455D01*
X142032Y267474D01*
X142071Y267503D01*
X142120Y267533D01*
X142178Y267572D01*
X142242Y267606D01*
X142320Y267650D01*
X142403Y267689D01*
X142500Y267728D01*
X142598Y267762D01*
X142710Y267791D01*
X142827Y267821D01*
X142954Y267840D01*
X143086Y267855D01*
X143223Y267860D01*
X143281D01*
X143320Y267855D01*
D02*
G37*
G36*
X296280Y183654D02*
Y183644D01*
X296290Y183634D01*
X296309Y183586D01*
X296339Y183527D01*
X296368Y183488D01*
X296378D01*
X296407Y183468D01*
X296446Y183449D01*
X296524Y183420D01*
X297071Y183254D01*
Y182981D01*
X296924D01*
X296866Y182990D01*
X296524D01*
X296319Y183000D01*
X295216D01*
X295011Y182990D01*
X294797D01*
X294592Y182981D01*
Y183264D01*
X295246Y183361D01*
X295255D01*
X295265Y183371D01*
X295324Y183381D01*
X295382Y183390D01*
X295411Y183400D01*
X295441D01*
X295451Y183410D01*
X295460Y183429D01*
X295470Y183439D01*
Y183449D01*
Y183468D01*
X295451Y183517D01*
X295431Y183586D01*
X294738Y185479D01*
X293157D01*
X292474Y183527D01*
Y183517D01*
X292464Y183478D01*
X292454Y183439D01*
Y183400D01*
Y183381D01*
X292474Y183351D01*
X292483D01*
X292503Y183342D01*
X292552D01*
X292591Y183332D01*
X292640D01*
X293333Y183283D01*
Y182990D01*
X293147D01*
X293089Y183000D01*
X291293D01*
X291215Y182990D01*
X291010D01*
Y183283D01*
X291634Y183332D01*
X291644D01*
X291673Y183342D01*
X291712Y183351D01*
X291761Y183361D01*
X291869Y183410D01*
X291917Y183449D01*
X291956Y183488D01*
X293938Y188944D01*
X294318D01*
X296280Y183654D01*
D02*
G37*
G36*
X300360Y188710D02*
X300584Y188700D01*
X300809Y188680D01*
X301033Y188651D01*
X301238Y188622D01*
X301258D01*
X301287Y188612D01*
X301326Y188602D01*
X301424Y188573D01*
X301551Y188544D01*
X301707Y188495D01*
X301873Y188427D01*
X302039Y188348D01*
X302214Y188261D01*
X302224D01*
X302234Y188251D01*
X302292Y188212D01*
X302370Y188163D01*
X302478Y188085D01*
X302595Y187997D01*
X302722Y187890D01*
X302849Y187773D01*
X302966Y187646D01*
X302976Y187626D01*
X303015Y187587D01*
X303063Y187509D01*
X303132Y187421D01*
X303200Y187304D01*
X303278Y187168D01*
X303346Y187011D01*
X303415Y186845D01*
X303425Y186826D01*
X303444Y186767D01*
X303464Y186679D01*
X303503Y186562D01*
X303532Y186416D01*
X303551Y186260D01*
X303571Y186084D01*
X303581Y185899D01*
Y185889D01*
Y185860D01*
Y185821D01*
X303571Y185752D01*
Y185684D01*
X303561Y185596D01*
X303542Y185489D01*
X303522Y185381D01*
X303464Y185128D01*
X303385Y184854D01*
X303268Y184562D01*
X303190Y184415D01*
X303112Y184269D01*
X303102Y184259D01*
X303093Y184239D01*
X303063Y184191D01*
X303024Y184142D01*
X302985Y184083D01*
X302927Y184005D01*
X302780Y183849D01*
X302605Y183673D01*
X302400Y183508D01*
X302165Y183361D01*
X302029Y183293D01*
X301892Y183244D01*
X301882D01*
X301863Y183234D01*
X301814Y183224D01*
X301765Y183205D01*
X301697Y183185D01*
X301619Y183166D01*
X301531Y183146D01*
X301433Y183127D01*
X301209Y183078D01*
X300965Y183039D01*
X300701Y183010D01*
X300438Y183000D01*
X299023Y183019D01*
X297188D01*
Y183322D01*
X297920Y183478D01*
X297939D01*
X297988Y183498D01*
X298047Y183517D01*
X298086Y183556D01*
X298095Y183566D01*
Y183586D01*
X298105Y183615D01*
X298115Y183654D01*
Y183703D01*
X298125Y183761D01*
Y183839D01*
Y187899D01*
Y187909D01*
Y187929D01*
Y187958D01*
Y187997D01*
X298105Y188085D01*
X298095Y188114D01*
X298086Y188144D01*
X298076Y188153D01*
X298057Y188173D01*
X298008Y188202D01*
X297939Y188222D01*
X297276Y188339D01*
Y188641D01*
X298164D01*
X298437Y188651D01*
X298730Y188671D01*
X298808D01*
X298867Y188680D01*
X298925D01*
X299003Y188690D01*
X299179Y188700D01*
X299364D01*
X299550Y188710D01*
X299725Y188719D01*
X300165D01*
X300360Y188710D01*
D02*
G37*
G36*
X143788Y258860D02*
X143827D01*
X143876Y258855D01*
X143925Y258850D01*
X143979Y258845D01*
X144096Y258821D01*
X144213Y258791D01*
X144330Y258747D01*
X144379Y258718D01*
X144428Y258689D01*
X144432D01*
X144437Y258679D01*
X144467Y258655D01*
X144506Y258616D01*
X144550Y258557D01*
X144594Y258484D01*
X144633Y258391D01*
X144662Y258284D01*
X144667Y258220D01*
X144672Y258157D01*
Y258152D01*
Y258147D01*
Y258133D01*
Y258113D01*
X144667Y258064D01*
X144652Y258001D01*
X144637Y257932D01*
X144613Y257859D01*
X144579Y257786D01*
X144530Y257723D01*
X144525Y257718D01*
X144506Y257698D01*
X144472Y257664D01*
X144432Y257630D01*
X144374Y257586D01*
X144310Y257542D01*
X144232Y257498D01*
X144145Y257454D01*
X144608Y256659D01*
X144613Y256654D01*
X144618Y256644D01*
X144628Y256625D01*
X144642Y256605D01*
X144681Y256547D01*
X144725Y256478D01*
X144779Y256405D01*
X144833Y256337D01*
X144881Y256283D01*
X144906Y256259D01*
X144930Y256244D01*
X144935Y256239D01*
X144955Y256234D01*
X144979Y256224D01*
X145023Y256210D01*
X145072Y256190D01*
X145135Y256176D01*
X145213Y256161D01*
X145301Y256146D01*
Y256144D01*
X145540Y256181D01*
X145545D01*
X145555Y256185D01*
X145574Y256190D01*
X145599Y256200D01*
X145657Y256224D01*
X145721Y256268D01*
X145726Y256273D01*
X145735Y256283D01*
X145755Y256298D01*
X145779Y256322D01*
X145809Y256351D01*
X145843Y256390D01*
X145882Y256434D01*
X145921Y256488D01*
X146580Y257323D01*
X145784Y258416D01*
X145779Y258420D01*
X145765Y258440D01*
X145750Y258464D01*
X145726Y258494D01*
X145677Y258552D01*
X145652Y258577D01*
X145633Y258596D01*
X145628Y258601D01*
X145609Y258616D01*
X145579Y258635D01*
X145540Y258645D01*
X145218Y258684D01*
Y258835D01*
X145272D01*
X145306Y258830D01*
X145438D01*
X145501Y258825D01*
X145721D01*
X145814Y258821D01*
X146311D01*
X146394Y258825D01*
X146482D01*
X146575Y258830D01*
X146663Y258835D01*
Y258684D01*
X146360Y258635D01*
X146355D01*
X146341Y258630D01*
X146321Y258625D01*
X146301Y258621D01*
X146282Y258611D01*
X146263Y258596D01*
X146248Y258581D01*
X146243Y258562D01*
Y258557D01*
Y258552D01*
X146248Y258538D01*
X146253Y258518D01*
X146263Y258494D01*
X146277Y258464D01*
X146297Y258425D01*
X146326Y258386D01*
X146838Y257645D01*
X147395Y258416D01*
X147399Y258420D01*
X147404Y258430D01*
X147424Y258459D01*
X147443Y258494D01*
X147453Y258513D01*
Y258533D01*
Y258538D01*
Y258542D01*
X147448Y258552D01*
X147439Y258567D01*
X147424Y258581D01*
X147399Y258596D01*
X147370Y258611D01*
X147331Y258621D01*
X147048Y258684D01*
Y258835D01*
X147097D01*
X147121Y258830D01*
X147229D01*
X147317Y258825D01*
X147414D01*
X147521Y258821D01*
X147868D01*
X147966Y258825D01*
X148063D01*
X148151Y258830D01*
X148190Y258835D01*
X148224D01*
Y258684D01*
X147922Y258635D01*
X147917D01*
X147902Y258625D01*
X147883Y258616D01*
X147848Y258591D01*
X147809Y258552D01*
X147761Y258503D01*
X147731Y258474D01*
X147697Y258435D01*
X147663Y258396D01*
X147629Y258347D01*
X146970Y257488D01*
X147795Y256420D01*
X147805Y256410D01*
X147824Y256385D01*
X147853Y256347D01*
X147892Y256303D01*
X147931Y256259D01*
X147980Y256220D01*
X148024Y256190D01*
X148044Y256181D01*
X148063Y256176D01*
X148385Y256132D01*
Y255985D01*
X148351D01*
X148327Y255990D01*
X148219D01*
X148175Y255995D01*
X148068D01*
X147946Y256000D01*
X147458D01*
X147356Y255995D01*
X147234D01*
X147102Y255990D01*
X146955Y255985D01*
Y256132D01*
X147185Y256161D01*
X147190D01*
X147204Y256166D01*
X147229D01*
X147253Y256171D01*
X147307Y256181D01*
X147326Y256185D01*
X147341Y256190D01*
X147346Y256195D01*
X147356Y256200D01*
X147365Y256205D01*
X147370Y256210D01*
Y256215D01*
X147365Y256234D01*
X147356Y256263D01*
X147331Y256307D01*
X146711Y257161D01*
X146209Y256478D01*
X146204Y256473D01*
X146194Y256459D01*
X146179Y256439D01*
X146165Y256410D01*
X146136Y256351D01*
X146126Y256322D01*
X146121Y256293D01*
Y256283D01*
X146126Y256263D01*
X146145Y256234D01*
X146155Y256220D01*
X146175Y256205D01*
X146179D01*
X146184Y256200D01*
X146214Y256190D01*
X146253Y256176D01*
X146306Y256166D01*
X146614Y256132D01*
Y255985D01*
X146585D01*
X146560Y255990D01*
X146463D01*
X146419Y255995D01*
X146316D01*
X146194Y256000D01*
X145696D01*
X145589Y255995D01*
X145472D01*
X145350Y255990D01*
X145218Y255985D01*
Y256000D01*
X144462D01*
X143779Y257254D01*
X143774Y257259D01*
X143769Y257274D01*
X143754Y257288D01*
X143735Y257313D01*
X143705Y257332D01*
X143676Y257347D01*
X143642Y257362D01*
X143598Y257366D01*
X143403D01*
Y256376D01*
Y256371D01*
Y256361D01*
Y256347D01*
X143408Y256327D01*
X143417Y256283D01*
X143422Y256259D01*
X143432Y256244D01*
X143437Y256239D01*
X143461Y256224D01*
X143500Y256205D01*
X143525Y256200D01*
X143554Y256190D01*
X143803Y256127D01*
Y255985D01*
X143769D01*
X143739Y255990D01*
X143671D01*
X143583Y255995D01*
X143481D01*
X143374Y256000D01*
X142939D01*
X142842Y255995D01*
X142729D01*
X142612Y255990D01*
X142495Y255985D01*
Y256132D01*
X142778Y256161D01*
X142783D01*
X142798Y256166D01*
X142817D01*
X142837Y256171D01*
X142885Y256185D01*
X142905Y256190D01*
X142920Y256200D01*
X142925Y256205D01*
X142929Y256215D01*
X142934Y256229D01*
X142939Y256249D01*
X142944Y256273D01*
X142949Y256307D01*
Y256347D01*
Y258396D01*
Y258401D01*
Y258416D01*
Y258435D01*
X142944Y258464D01*
X142939Y258518D01*
X142929Y258538D01*
X142920Y258557D01*
X142915Y258567D01*
X142905Y258572D01*
X142890Y258581D01*
X142866Y258596D01*
X142837Y258606D01*
X142793Y258621D01*
X142744Y258630D01*
X142515Y258669D01*
X142510Y258821D01*
X142822D01*
X143539Y258860D01*
X143574D01*
X143598Y258865D01*
X143754D01*
X143788Y258860D01*
D02*
G37*
G36*
X148414Y238679D02*
X148126Y238635D01*
X148121D01*
X148112Y238630D01*
X148097Y238625D01*
X148073Y238611D01*
X148053Y238596D01*
X148029Y238572D01*
X148009Y238543D01*
X147990Y238503D01*
X146979Y235902D01*
X146823D01*
X145745Y238440D01*
Y238445D01*
X145740Y238459D01*
X145730Y238474D01*
X145720Y238499D01*
X145696Y238543D01*
X145681Y238562D01*
X145672Y238577D01*
X145667Y238581D01*
X145647Y238596D01*
X145618Y238611D01*
X145579Y238625D01*
X145315Y238684D01*
Y238830D01*
X145374D01*
X145398Y238825D01*
X145559D01*
X145613Y238821D01*
X146238D01*
X146345Y238825D01*
X146574D01*
X146677Y238830D01*
Y238674D01*
X146350Y238655D01*
X146316D01*
X146296Y238650D01*
X146247Y238645D01*
X146228Y238635D01*
X146213Y238630D01*
X146208Y238625D01*
X146199Y238621D01*
X146189Y238601D01*
X146184Y238577D01*
Y238572D01*
Y238562D01*
X146189Y238547D01*
X146194Y238523D01*
X146203Y238484D01*
X146213Y238435D01*
X146233Y238377D01*
X146257Y238303D01*
X146999Y236473D01*
X147663Y238401D01*
Y238406D01*
X147668Y238421D01*
X147677Y238435D01*
X147682Y238459D01*
X147697Y238508D01*
X147702Y238533D01*
Y238552D01*
Y238557D01*
X147697Y238577D01*
X147682Y238591D01*
X147658Y238611D01*
X147648Y238616D01*
X147633Y238621D01*
X147614Y238625D01*
X147589Y238630D01*
X147555Y238635D01*
X147506Y238645D01*
X147453Y238650D01*
X147243Y238679D01*
Y238830D01*
X147277D01*
X147316Y238825D01*
X147458D01*
X147502Y238821D01*
X148063D01*
X148165Y238825D01*
X148346D01*
X148385Y238830D01*
X148414D01*
Y238679D01*
D02*
G37*
G36*
X147990Y267679D02*
X147771Y267655D01*
X147761D01*
X147746Y267650D01*
X147722Y267640D01*
X147707Y267621D01*
Y267616D01*
X147703Y267606D01*
Y267591D01*
Y267577D01*
Y267547D01*
Y267513D01*
Y267474D01*
X147746Y264946D01*
X147576D01*
X145482Y267259D01*
Y265337D01*
Y265332D01*
Y265322D01*
Y265303D01*
Y265283D01*
X145487Y265244D01*
X145492Y265229D01*
X145497Y265215D01*
X145502Y265210D01*
X145516Y265200D01*
X145536Y265190D01*
X145575Y265185D01*
X146019Y265137D01*
Y264990D01*
X145936D01*
X145907Y264995D01*
X145731D01*
X145628Y265000D01*
X145160D01*
X145053Y264995D01*
X144931D01*
X144794Y264990D01*
Y265137D01*
X145072Y265185D01*
X145077D01*
X145097Y265190D01*
X145116Y265195D01*
X145145Y265200D01*
X145199Y265215D01*
X145223Y265225D01*
X145238Y265234D01*
X145243Y265239D01*
X145253Y265259D01*
X145263Y265288D01*
X145267Y265312D01*
Y265337D01*
Y267240D01*
Y267250D01*
Y267269D01*
Y267303D01*
X145263Y267347D01*
X145253Y267435D01*
X145243Y267479D01*
X145228Y267513D01*
Y267518D01*
X145223Y267528D01*
X145199Y267557D01*
X145179Y267577D01*
X145160Y267591D01*
X145131Y267606D01*
X145097Y267616D01*
X144799Y267660D01*
Y267821D01*
X145404D01*
X145428Y267816D01*
X145477Y267811D01*
X145497Y267801D01*
X145516Y267791D01*
X145526Y267787D01*
X145536Y267777D01*
X145550Y267767D01*
X145570Y267747D01*
X145594Y267723D01*
X145619Y267689D01*
X145648Y267650D01*
X147532Y265547D01*
X147488Y267469D01*
Y267474D01*
Y267489D01*
X147483Y267503D01*
Y267528D01*
X147473Y267567D01*
X147468Y267586D01*
X147459Y267596D01*
X147454Y267601D01*
X147439Y267611D01*
X147410Y267621D01*
X147371Y267630D01*
X146956Y267679D01*
Y267830D01*
X146985D01*
X147029Y267826D01*
X147156D01*
X147244Y267821D01*
X147668D01*
X147756Y267826D01*
X147922D01*
X147990Y267830D01*
Y267679D01*
D02*
G37*
G36*
X149825Y267855D02*
X149937Y267850D01*
X150050Y267840D01*
X150162Y267826D01*
X150265Y267811D01*
X150274D01*
X150289Y267806D01*
X150308Y267801D01*
X150357Y267787D01*
X150421Y267772D01*
X150499Y267747D01*
X150582Y267713D01*
X150665Y267674D01*
X150752Y267630D01*
X150757D01*
X150762Y267625D01*
X150792Y267606D01*
X150831Y267582D01*
X150884Y267543D01*
X150943Y267499D01*
X151006Y267445D01*
X151070Y267386D01*
X151128Y267323D01*
X151133Y267313D01*
X151153Y267294D01*
X151177Y267255D01*
X151211Y267211D01*
X151245Y267152D01*
X151284Y267084D01*
X151319Y267006D01*
X151353Y266923D01*
X151358Y266913D01*
X151367Y266884D01*
X151377Y266840D01*
X151397Y266781D01*
X151411Y266708D01*
X151421Y266630D01*
X151431Y266542D01*
X151436Y266449D01*
Y266444D01*
Y266430D01*
Y266410D01*
X151431Y266376D01*
Y266342D01*
X151426Y266298D01*
X151416Y266244D01*
X151406Y266191D01*
X151377Y266064D01*
X151338Y265927D01*
X151279Y265781D01*
X151241Y265708D01*
X151201Y265634D01*
X151197Y265630D01*
X151192Y265620D01*
X151177Y265595D01*
X151157Y265571D01*
X151138Y265542D01*
X151109Y265503D01*
X151035Y265425D01*
X150948Y265337D01*
X150845Y265254D01*
X150728Y265181D01*
X150660Y265146D01*
X150591Y265122D01*
X150587D01*
X150577Y265117D01*
X150552Y265112D01*
X150528Y265103D01*
X150494Y265093D01*
X150455Y265083D01*
X150411Y265073D01*
X150362Y265063D01*
X150250Y265039D01*
X150128Y265019D01*
X149996Y265005D01*
X149864Y265000D01*
X149157Y265010D01*
X148239D01*
Y265161D01*
X148605Y265239D01*
X148615D01*
X148639Y265249D01*
X148669Y265259D01*
X148688Y265278D01*
X148693Y265283D01*
Y265293D01*
X148698Y265307D01*
X148703Y265327D01*
Y265351D01*
X148708Y265381D01*
Y265420D01*
Y267450D01*
Y267455D01*
Y267464D01*
Y267479D01*
Y267499D01*
X148698Y267543D01*
X148693Y267557D01*
X148688Y267572D01*
X148683Y267577D01*
X148674Y267586D01*
X148649Y267601D01*
X148615Y267611D01*
X148283Y267669D01*
Y267821D01*
X148727D01*
X148864Y267826D01*
X149010Y267835D01*
X149049D01*
X149079Y267840D01*
X149108D01*
X149147Y267845D01*
X149235Y267850D01*
X149328D01*
X149420Y267855D01*
X149508Y267860D01*
X149728D01*
X149825Y267855D01*
D02*
G37*
%LPC*%
G36*
X293928Y187929D02*
X293245Y185850D01*
X294650D01*
X293928Y187929D01*
D02*
G37*
G36*
X299647Y188329D02*
X299501D01*
X299413Y188319D01*
X299325Y188309D01*
X299237Y188300D01*
X299169Y188280D01*
X299120Y188261D01*
X299111Y188241D01*
X299091Y188222D01*
X299081Y188192D01*
X299062Y188144D01*
X299042Y188075D01*
X299032Y187997D01*
Y187899D01*
Y184054D01*
Y184044D01*
Y184015D01*
X299042Y183966D01*
X299062Y183908D01*
X299101Y183839D01*
X299140Y183761D01*
X299208Y183673D01*
X299296Y183595D01*
X299306Y183586D01*
X299345Y183566D01*
X299413Y183527D01*
X299501Y183488D01*
X299618Y183449D01*
X299755Y183410D01*
X299921Y183390D01*
X300106Y183381D01*
X300204D01*
X300272Y183390D01*
X300350Y183400D01*
X300448Y183410D01*
X300565Y183429D01*
X300682Y183459D01*
X300945Y183537D01*
X301082Y183586D01*
X301228Y183644D01*
X301375Y183722D01*
X301521Y183810D01*
X301668Y183908D01*
X301804Y184015D01*
X301814Y184025D01*
X301834Y184044D01*
X301873Y184083D01*
X301921Y184132D01*
X301970Y184201D01*
X302039Y184288D01*
X302107Y184386D01*
X302175Y184493D01*
X302243Y184620D01*
X302302Y184767D01*
X302370Y184923D01*
X302419Y185098D01*
X302468Y185284D01*
X302507Y185489D01*
X302527Y185704D01*
X302536Y185938D01*
Y185948D01*
Y185987D01*
Y186045D01*
X302527Y186123D01*
X302517Y186211D01*
X302497Y186328D01*
X302468Y186445D01*
X302439Y186572D01*
X302400Y186709D01*
X302351Y186855D01*
X302292Y187002D01*
X302214Y187148D01*
X302126Y187285D01*
X302029Y187431D01*
X301912Y187558D01*
X301775Y187685D01*
X301765Y187695D01*
X301736Y187714D01*
X301697Y187743D01*
X301638Y187782D01*
X301560Y187831D01*
X301463Y187890D01*
X301355Y187948D01*
X301228Y188007D01*
X301082Y188065D01*
X300926Y188124D01*
X300750Y188183D01*
X300555Y188231D01*
X300350Y188270D01*
X300135Y188300D01*
X299901Y188319D01*
X299647Y188329D01*
D02*
G37*
G36*
X88755Y376562D02*
X88716D01*
X88599Y376542D01*
X88423Y376523D01*
X88228Y376464D01*
X87974Y376367D01*
X87720Y376210D01*
X87466Y375996D01*
X87330Y375879D01*
X87212Y375722D01*
X87193Y375683D01*
X87115Y375566D01*
X87017Y375390D01*
X86919Y375117D01*
X86802Y374804D01*
X86705Y374414D01*
X86626Y373965D01*
X86607Y373457D01*
Y373437D01*
Y373398D01*
Y373340D01*
X86626Y373261D01*
X86646Y373027D01*
X86685Y372754D01*
X86783Y372422D01*
X86900Y372090D01*
X87056Y371777D01*
X87291Y371465D01*
X87330Y371426D01*
X87408Y371348D01*
X87564Y371230D01*
X87759Y371094D01*
X87994Y370937D01*
X88287Y370820D01*
X88619Y370742D01*
X88970Y370703D01*
X89165D01*
X89302Y370723D01*
X89458Y370742D01*
X89615Y370762D01*
X89986Y370840D01*
X90005D01*
X90064Y370859D01*
X90162Y370898D01*
X90259Y370937D01*
X90474Y371016D01*
X90572Y371074D01*
X90650Y371113D01*
Y375019D01*
Y375058D01*
Y375136D01*
X90630Y375273D01*
X90591Y375429D01*
X90532Y375605D01*
X90435Y375800D01*
X90318Y375996D01*
X90142Y376152D01*
X90122Y376171D01*
X90044Y376210D01*
X89947Y376289D01*
X89790Y376367D01*
X89595Y376425D01*
X89361Y376503D01*
X89068Y376542D01*
X88755Y376562D01*
D02*
G37*
G36*
X380106Y204339D02*
X379989D01*
X379921Y204329D01*
X379833D01*
X379735Y204319D01*
X379550Y204280D01*
Y202270D01*
X379647D01*
X379716Y202260D01*
X380194D01*
X380233Y202270D01*
X380340Y202279D01*
X380467Y202299D01*
X380623Y202338D01*
X380770Y202396D01*
X380926Y202465D01*
X381063Y202572D01*
X381082Y202592D01*
X381121Y202631D01*
X381170Y202699D01*
X381238Y202797D01*
X381307Y202914D01*
X381355Y203060D01*
X381394Y203226D01*
X381414Y203412D01*
Y203421D01*
Y203431D01*
Y203480D01*
X381394Y203568D01*
X381375Y203665D01*
X381336Y203773D01*
X381277Y203890D01*
X381189Y203997D01*
X381082Y204095D01*
X381063Y204104D01*
X381024Y204134D01*
X380945Y204173D01*
X380838Y204222D01*
X380701Y204261D01*
X380536Y204300D01*
X380331Y204329D01*
X380106Y204339D01*
D02*
G37*
G36*
X380272Y201879D02*
X379940D01*
X379852Y201869D01*
X379755D01*
X379550Y201850D01*
Y199976D01*
Y199966D01*
Y199947D01*
X379559Y199927D01*
X379569Y199888D01*
X379599Y199791D01*
X379628Y199742D01*
X379667Y199693D01*
X379716Y199634D01*
X379774Y199586D01*
X379852Y199537D01*
X379940Y199488D01*
X380047Y199449D01*
X380174Y199429D01*
X380311Y199410D01*
X380477Y199400D01*
X380526D01*
X380565Y199410D01*
X380662Y199420D01*
X380789Y199449D01*
X380936Y199488D01*
X381082Y199556D01*
X381248Y199644D01*
X381394Y199761D01*
X381414Y199781D01*
X381453Y199830D01*
X381521Y199898D01*
X381590Y200005D01*
X381658Y200122D01*
X381726Y200269D01*
X381765Y200425D01*
X381785Y200601D01*
Y200610D01*
Y200630D01*
Y200659D01*
X381775Y200708D01*
X381765Y200825D01*
X381736Y200972D01*
X381687Y201128D01*
X381609Y201284D01*
X381511Y201440D01*
X381375Y201567D01*
X381355Y201577D01*
X381297Y201616D01*
X381258Y201635D01*
X381199Y201664D01*
X381141Y201694D01*
X381072Y201723D01*
X380984Y201752D01*
X380897Y201782D01*
X380789Y201811D01*
X380672Y201830D01*
X380555Y201850D01*
X380418Y201869D01*
X380272Y201879D01*
D02*
G37*
G36*
X62253Y376640D02*
X61960D01*
X61882Y376621D01*
X61667Y376601D01*
X61433Y376542D01*
X61140Y376445D01*
X60847Y376289D01*
X60574Y376093D01*
X60320Y375820D01*
X60300Y375781D01*
X60222Y375664D01*
X60124Y375488D01*
X60027Y375215D01*
X59968Y375058D01*
X59909Y374863D01*
X59851Y374668D01*
X59812Y374453D01*
X59773Y374199D01*
X59734Y373945D01*
X59714Y373652D01*
Y373359D01*
Y373340D01*
Y373301D01*
Y373222D01*
X59734Y373125D01*
Y373008D01*
X59753Y372871D01*
X59792Y372558D01*
X59870Y372207D01*
X59988Y371855D01*
X60124Y371504D01*
X60339Y371172D01*
X60378Y371133D01*
X60456Y371055D01*
X60593Y370918D01*
X60788Y370781D01*
X61023Y370644D01*
X61296Y370508D01*
X61609Y370430D01*
X61960Y370391D01*
X62058D01*
X62136Y370410D01*
X62331Y370430D01*
X62566Y370488D01*
X62839Y370605D01*
X63132Y370742D01*
X63405Y370957D01*
X63542Y371074D01*
X63679Y371230D01*
Y371250D01*
X63718Y371269D01*
X63796Y371387D01*
X63894Y371562D01*
X64030Y371836D01*
X64148Y372148D01*
X64265Y372539D01*
X64343Y372969D01*
X64362Y373476D01*
Y373496D01*
Y373535D01*
Y373613D01*
Y373711D01*
X64343Y373847D01*
X64323Y373984D01*
X64284Y374316D01*
X64206Y374668D01*
X64089Y375058D01*
X63933Y375429D01*
X63718Y375781D01*
Y375800D01*
X63698Y375820D01*
X63601Y375918D01*
X63464Y376054D01*
X63269Y376210D01*
X63034Y376367D01*
X62761Y376503D01*
X62429Y376601D01*
X62253Y376640D01*
D02*
G37*
G36*
X374084Y204378D02*
X374016D01*
X373967Y204368D01*
X373908D01*
X373840Y204358D01*
X373684Y204329D01*
X373499Y204290D01*
X373303Y204222D01*
X373108Y204134D01*
X372913Y204007D01*
X372903D01*
X372893Y203987D01*
X372835Y203939D01*
X372747Y203860D01*
X372640Y203743D01*
X372523Y203607D01*
X372405Y203431D01*
X372288Y203226D01*
X372191Y203002D01*
Y202992D01*
X372181Y202972D01*
X372171Y202943D01*
X372152Y202894D01*
X372142Y202836D01*
X372122Y202767D01*
X372083Y202601D01*
X372035Y202406D01*
X372005Y202182D01*
X371976Y201947D01*
X371966Y201694D01*
Y201684D01*
Y201645D01*
Y201596D01*
X371976Y201528D01*
X371986Y201440D01*
X371995Y201333D01*
X372015Y201216D01*
X372044Y201089D01*
X372113Y200815D01*
X372161Y200669D01*
X372220Y200523D01*
X372288Y200366D01*
X372366Y200220D01*
X372454Y200074D01*
X372562Y199927D01*
X372571Y199917D01*
X372591Y199898D01*
X372620Y199859D01*
X372669Y199810D01*
X372727Y199751D01*
X372796Y199693D01*
X372884Y199625D01*
X372972Y199556D01*
X373079Y199488D01*
X373186Y199420D01*
X373440Y199303D01*
X373586Y199254D01*
X373733Y199215D01*
X373879Y199195D01*
X374045Y199185D01*
X374152D01*
X374221Y199195D01*
X374309Y199205D01*
X374416Y199224D01*
X374533Y199244D01*
X374650Y199264D01*
X374914Y199342D01*
X375050Y199400D01*
X375187Y199459D01*
X375314Y199537D01*
X375441Y199625D01*
X375568Y199722D01*
X375675Y199839D01*
X375685Y199849D01*
X375695Y199869D01*
X375724Y199908D01*
X375763Y199966D01*
X375802Y200035D01*
X375851Y200113D01*
X375900Y200210D01*
X375958Y200327D01*
X376007Y200454D01*
X376056Y200601D01*
X376104Y200757D01*
X376144Y200923D01*
X376183Y201118D01*
X376212Y201313D01*
X376222Y201528D01*
X376231Y201762D01*
Y201772D01*
Y201811D01*
Y201879D01*
X376222Y201957D01*
X376212Y202055D01*
X376202Y202172D01*
X376183Y202299D01*
X376153Y202435D01*
X376085Y202738D01*
X376036Y202894D01*
X375978Y203060D01*
X375909Y203216D01*
X375831Y203363D01*
X375743Y203519D01*
X375636Y203656D01*
X375626Y203665D01*
X375607Y203685D01*
X375577Y203724D01*
X375529Y203773D01*
X375470Y203821D01*
X375402Y203880D01*
X375314Y203948D01*
X375226Y204017D01*
X375119Y204085D01*
X375002Y204153D01*
X374875Y204212D01*
X374738Y204261D01*
X374582Y204309D01*
X374426Y204348D01*
X374260Y204368D01*
X374084Y204378D01*
D02*
G37*
G36*
X151544Y376640D02*
X151251D01*
X151173Y376621D01*
X150958Y376601D01*
X150724Y376542D01*
X150431Y376445D01*
X150138Y376289D01*
X149865Y376093D01*
X149611Y375820D01*
X149591Y375781D01*
X149513Y375664D01*
X149416Y375488D01*
X149318Y375215D01*
X149259Y375058D01*
X149201Y374863D01*
X149142Y374668D01*
X149103Y374453D01*
X149064Y374199D01*
X149025Y373945D01*
X149005Y373652D01*
Y373359D01*
Y373340D01*
Y373301D01*
Y373222D01*
X149025Y373125D01*
Y373008D01*
X149044Y372871D01*
X149083Y372558D01*
X149162Y372207D01*
X149279Y371855D01*
X149416Y371504D01*
X149630Y371172D01*
X149669Y371133D01*
X149748Y371055D01*
X149884Y370918D01*
X150080Y370781D01*
X150314Y370644D01*
X150587Y370508D01*
X150900Y370430D01*
X151251Y370391D01*
X151349D01*
X151427Y370410D01*
X151622Y370430D01*
X151857Y370488D01*
X152130Y370605D01*
X152423Y370742D01*
X152697Y370957D01*
X152833Y371074D01*
X152970Y371230D01*
Y371250D01*
X153009Y371269D01*
X153087Y371387D01*
X153185Y371562D01*
X153322Y371836D01*
X153439Y372148D01*
X153556Y372539D01*
X153634Y372969D01*
X153654Y373476D01*
Y373496D01*
Y373535D01*
Y373613D01*
Y373711D01*
X153634Y373847D01*
X153614Y373984D01*
X153575Y374316D01*
X153497Y374668D01*
X153380Y375058D01*
X153224Y375429D01*
X153009Y375781D01*
Y375800D01*
X152989Y375820D01*
X152892Y375918D01*
X152755Y376054D01*
X152560Y376210D01*
X152325Y376367D01*
X152052Y376503D01*
X151720Y376601D01*
X151544Y376640D01*
D02*
G37*
G36*
X114066D02*
X113773D01*
X113695Y376621D01*
X113480Y376601D01*
X113246Y376542D01*
X112953Y376445D01*
X112660Y376289D01*
X112387Y376093D01*
X112133Y375820D01*
X112113Y375781D01*
X112035Y375664D01*
X111937Y375488D01*
X111840Y375215D01*
X111781Y375058D01*
X111723Y374863D01*
X111664Y374668D01*
X111625Y374453D01*
X111586Y374199D01*
X111547Y373945D01*
X111527Y373652D01*
Y373359D01*
Y373340D01*
Y373301D01*
Y373222D01*
X111547Y373125D01*
Y373008D01*
X111566Y372871D01*
X111605Y372558D01*
X111683Y372207D01*
X111801Y371855D01*
X111937Y371504D01*
X112152Y371172D01*
X112191Y371133D01*
X112269Y371055D01*
X112406Y370918D01*
X112601Y370781D01*
X112836Y370644D01*
X113109Y370508D01*
X113422Y370430D01*
X113773Y370391D01*
X113871D01*
X113949Y370410D01*
X114144Y370430D01*
X114379Y370488D01*
X114652Y370605D01*
X114945Y370742D01*
X115218Y370957D01*
X115355Y371074D01*
X115492Y371230D01*
Y371250D01*
X115531Y371269D01*
X115609Y371387D01*
X115707Y371562D01*
X115843Y371836D01*
X115961Y372148D01*
X116078Y372539D01*
X116156Y372969D01*
X116175Y373476D01*
Y373496D01*
Y373535D01*
Y373613D01*
Y373711D01*
X116156Y373847D01*
X116136Y373984D01*
X116097Y374316D01*
X116019Y374668D01*
X115902Y375058D01*
X115746Y375429D01*
X115531Y375781D01*
Y375800D01*
X115511Y375820D01*
X115414Y375918D01*
X115277Y376054D01*
X115082Y376210D01*
X114847Y376367D01*
X114574Y376503D01*
X114242Y376601D01*
X114066Y376640D01*
D02*
G37*
G36*
X130745Y376562D02*
X130628D01*
X130510Y376542D01*
X130335Y376503D01*
X130159Y376445D01*
X129964Y376367D01*
X129749Y376269D01*
X129553Y376113D01*
X129534Y376093D01*
X129475Y376035D01*
X129378Y375937D01*
X129280Y375820D01*
X129163Y375664D01*
X129065Y375488D01*
X128968Y375312D01*
X128890Y375097D01*
X131917D01*
X132034Y375117D01*
X132131Y375175D01*
X132151Y375234D01*
X132170Y375293D01*
Y375312D01*
Y375351D01*
X132151Y375410D01*
X132131Y375507D01*
X132092Y375625D01*
X132034Y375761D01*
X131956Y375898D01*
X131858Y376074D01*
X131839Y376093D01*
X131799Y376152D01*
X131721Y376230D01*
X131604Y376328D01*
X131448Y376406D01*
X131253Y376484D01*
X131018Y376542D01*
X130745Y376562D01*
D02*
G37*
G36*
X106608Y285096D02*
X106495D01*
X106456Y285091D01*
X106413Y285086D01*
X106364Y285076D01*
X106315Y285067D01*
X106271Y285052D01*
X106266D01*
X106256Y285047D01*
X106237Y285037D01*
X106217Y285027D01*
X106198Y285013D01*
X106178Y284998D01*
X106169Y284983D01*
X106164Y284969D01*
Y284012D01*
Y284003D01*
Y283983D01*
X106169Y283954D01*
X106178Y283915D01*
X106188Y283871D01*
X106208Y283822D01*
X106232Y283778D01*
X106266Y283739D01*
X106271Y283734D01*
X106286Y283724D01*
X106310Y283710D01*
X106344Y283690D01*
X106388Y283671D01*
X106437Y283656D01*
X106495Y283646D01*
X106564Y283642D01*
X106588D01*
X106622Y283646D01*
X106661Y283651D01*
X106705Y283661D01*
X106759Y283676D01*
X106813Y283700D01*
X106871Y283729D01*
X106930Y283764D01*
X106983Y283807D01*
X107037Y283866D01*
X107081Y283929D01*
X107120Y284008D01*
X107154Y284100D01*
X107174Y284203D01*
X107179Y284325D01*
Y284330D01*
Y284339D01*
Y284359D01*
X107174Y284383D01*
Y284408D01*
X107169Y284442D01*
X107154Y284520D01*
X107135Y284608D01*
X107101Y284700D01*
X107057Y284793D01*
X106998Y284876D01*
Y284881D01*
X106988Y284886D01*
X106969Y284910D01*
X106930Y284945D01*
X106876Y284988D01*
X106813Y285027D01*
X106739Y285062D01*
X106652Y285086D01*
X106608Y285096D01*
D02*
G37*
G36*
X149469Y267665D02*
X149396D01*
X149352Y267660D01*
X149308Y267655D01*
X149264Y267650D01*
X149230Y267640D01*
X149206Y267630D01*
X149201Y267621D01*
X149191Y267611D01*
X149186Y267596D01*
X149176Y267572D01*
X149167Y267538D01*
X149162Y267499D01*
Y267450D01*
Y265527D01*
Y265522D01*
Y265508D01*
X149167Y265483D01*
X149176Y265454D01*
X149196Y265420D01*
X149215Y265381D01*
X149249Y265337D01*
X149293Y265298D01*
X149298Y265293D01*
X149318Y265283D01*
X149352Y265264D01*
X149396Y265244D01*
X149454Y265225D01*
X149523Y265205D01*
X149606Y265195D01*
X149698Y265190D01*
X149747D01*
X149781Y265195D01*
X149820Y265200D01*
X149869Y265205D01*
X149928Y265215D01*
X149986Y265229D01*
X150118Y265268D01*
X150186Y265293D01*
X150260Y265322D01*
X150333Y265361D01*
X150406Y265405D01*
X150479Y265454D01*
X150548Y265508D01*
X150552Y265512D01*
X150562Y265522D01*
X150582Y265542D01*
X150606Y265566D01*
X150630Y265600D01*
X150665Y265644D01*
X150699Y265693D01*
X150733Y265747D01*
X150767Y265810D01*
X150796Y265883D01*
X150831Y265961D01*
X150855Y266049D01*
X150879Y266142D01*
X150899Y266244D01*
X150909Y266352D01*
X150914Y266469D01*
Y266474D01*
Y266493D01*
Y266523D01*
X150909Y266562D01*
X150904Y266605D01*
X150894Y266664D01*
X150879Y266723D01*
X150865Y266786D01*
X150845Y266854D01*
X150821Y266928D01*
X150792Y267001D01*
X150752Y267074D01*
X150709Y267142D01*
X150660Y267215D01*
X150601Y267279D01*
X150533Y267342D01*
X150528Y267347D01*
X150513Y267357D01*
X150494Y267372D01*
X150465Y267391D01*
X150426Y267416D01*
X150377Y267445D01*
X150323Y267474D01*
X150260Y267503D01*
X150186Y267533D01*
X150108Y267562D01*
X150021Y267591D01*
X149923Y267616D01*
X149820Y267635D01*
X149713Y267650D01*
X149596Y267660D01*
X149469Y267665D01*
D02*
G37*
G36*
X115583Y344493D02*
X115363D01*
X115231Y344479D01*
X115099Y344464D01*
X114968Y344449D01*
X114865Y344420D01*
X114792Y344391D01*
X114777Y344362D01*
X114748Y344332D01*
X114733Y344288D01*
X114704Y344215D01*
X114675Y344113D01*
X114660Y343996D01*
Y343849D01*
Y338081D01*
Y338067D01*
Y338023D01*
X114675Y337949D01*
X114704Y337861D01*
X114763Y337759D01*
X114821Y337642D01*
X114924Y337510D01*
X115055Y337393D01*
X115070Y337378D01*
X115129Y337349D01*
X115231Y337291D01*
X115363Y337232D01*
X115539Y337173D01*
X115744Y337115D01*
X115992Y337086D01*
X116271Y337071D01*
X116417D01*
X116519Y337086D01*
X116637Y337100D01*
X116783Y337115D01*
X116959Y337144D01*
X117134Y337188D01*
X117530Y337305D01*
X117735Y337378D01*
X117954Y337466D01*
X118174Y337583D01*
X118393Y337715D01*
X118613Y337861D01*
X118818Y338023D01*
X118833Y338037D01*
X118862Y338067D01*
X118920Y338125D01*
X118994Y338198D01*
X119067Y338301D01*
X119169Y338433D01*
X119272Y338579D01*
X119374Y338740D01*
X119477Y338930D01*
X119565Y339150D01*
X119667Y339384D01*
X119740Y339648D01*
X119813Y339926D01*
X119872Y340233D01*
X119901Y340555D01*
X119916Y340907D01*
Y340921D01*
Y340980D01*
Y341068D01*
X119901Y341185D01*
X119887Y341317D01*
X119857Y341492D01*
X119813Y341668D01*
X119770Y341858D01*
X119711Y342063D01*
X119638Y342283D01*
X119550Y342502D01*
X119433Y342722D01*
X119301Y342927D01*
X119155Y343147D01*
X118979Y343337D01*
X118774Y343527D01*
X118759Y343542D01*
X118715Y343571D01*
X118657Y343615D01*
X118569Y343674D01*
X118452Y343747D01*
X118306Y343835D01*
X118145Y343922D01*
X117954Y344010D01*
X117735Y344098D01*
X117500Y344186D01*
X117237Y344274D01*
X116944Y344347D01*
X116637Y344406D01*
X116314Y344449D01*
X115963Y344479D01*
X115583Y344493D01*
D02*
G37*
G36*
X108921Y285159D02*
X108848D01*
X108828Y285154D01*
X108774Y285149D01*
X108716Y285135D01*
X108643Y285110D01*
X108570Y285071D01*
X108501Y285023D01*
X108438Y284954D01*
X108433Y284945D01*
X108413Y284915D01*
X108389Y284871D01*
X108365Y284803D01*
X108350Y284764D01*
X108335Y284715D01*
X108321Y284666D01*
X108311Y284613D01*
X108301Y284549D01*
X108291Y284486D01*
X108286Y284413D01*
Y284339D01*
Y284334D01*
Y284325D01*
Y284305D01*
X108291Y284281D01*
Y284251D01*
X108296Y284217D01*
X108306Y284139D01*
X108326Y284051D01*
X108355Y283964D01*
X108389Y283876D01*
X108443Y283793D01*
X108452Y283783D01*
X108472Y283764D01*
X108506Y283729D01*
X108555Y283695D01*
X108613Y283661D01*
X108682Y283627D01*
X108760Y283607D01*
X108848Y283598D01*
X108872D01*
X108892Y283602D01*
X108940Y283607D01*
X108999Y283622D01*
X109067Y283651D01*
X109141Y283685D01*
X109209Y283739D01*
X109243Y283768D01*
X109277Y283807D01*
Y283812D01*
X109287Y283817D01*
X109306Y283846D01*
X109331Y283890D01*
X109365Y283959D01*
X109394Y284037D01*
X109423Y284134D01*
X109443Y284242D01*
X109448Y284369D01*
Y284373D01*
Y284383D01*
Y284403D01*
Y284427D01*
X109443Y284461D01*
X109438Y284495D01*
X109428Y284578D01*
X109409Y284666D01*
X109380Y284764D01*
X109341Y284857D01*
X109287Y284945D01*
Y284949D01*
X109282Y284954D01*
X109258Y284979D01*
X109223Y285013D01*
X109175Y285052D01*
X109116Y285091D01*
X109048Y285125D01*
X108965Y285149D01*
X108921Y285159D01*
D02*
G37*
G36*
X111200D02*
X111127D01*
X111107Y285154D01*
X111053Y285149D01*
X110995Y285135D01*
X110922Y285110D01*
X110848Y285071D01*
X110780Y285023D01*
X110717Y284954D01*
X110712Y284945D01*
X110692Y284915D01*
X110668Y284871D01*
X110643Y284803D01*
X110629Y284764D01*
X110614Y284715D01*
X110600Y284666D01*
X110590Y284613D01*
X110580Y284549D01*
X110570Y284486D01*
X110565Y284413D01*
Y284339D01*
Y284334D01*
Y284325D01*
Y284305D01*
X110570Y284281D01*
Y284251D01*
X110575Y284217D01*
X110585Y284139D01*
X110605Y284051D01*
X110634Y283964D01*
X110668Y283876D01*
X110722Y283793D01*
X110731Y283783D01*
X110751Y283764D01*
X110785Y283729D01*
X110834Y283695D01*
X110892Y283661D01*
X110961Y283627D01*
X111039Y283607D01*
X111127Y283598D01*
X111151D01*
X111171Y283602D01*
X111219Y283607D01*
X111278Y283622D01*
X111346Y283651D01*
X111419Y283685D01*
X111488Y283739D01*
X111522Y283768D01*
X111556Y283807D01*
Y283812D01*
X111566Y283817D01*
X111585Y283846D01*
X111610Y283890D01*
X111644Y283959D01*
X111673Y284037D01*
X111703Y284134D01*
X111722Y284242D01*
X111727Y284369D01*
Y284373D01*
Y284383D01*
Y284403D01*
Y284427D01*
X111722Y284461D01*
X111717Y284495D01*
X111707Y284578D01*
X111688Y284666D01*
X111659Y284764D01*
X111619Y284857D01*
X111566Y284945D01*
Y284949D01*
X111561Y284954D01*
X111537Y284979D01*
X111502Y285013D01*
X111454Y285052D01*
X111395Y285091D01*
X111327Y285125D01*
X111244Y285149D01*
X111200Y285159D01*
D02*
G37*
G36*
X114655Y286174D02*
X114626D01*
X114606Y286169D01*
X114557Y286160D01*
X114494Y286135D01*
X114430Y286101D01*
X114396Y286077D01*
X114362Y286042D01*
X114328Y286008D01*
X114299Y285969D01*
X114269Y285921D01*
X114245Y285867D01*
Y285862D01*
X114240Y285852D01*
X114235Y285833D01*
X114225Y285808D01*
X114216Y285774D01*
X114206Y285735D01*
X114196Y285686D01*
X114186Y285633D01*
X114177Y285569D01*
X114167Y285496D01*
X114157Y285418D01*
X114147Y285330D01*
X114138Y285232D01*
X114133Y285125D01*
X114128Y285013D01*
Y284891D01*
Y284886D01*
Y284876D01*
Y284861D01*
Y284837D01*
Y284808D01*
X114133Y284774D01*
X114138Y284691D01*
X114143Y284593D01*
X114157Y284486D01*
X114172Y284373D01*
X114196Y284256D01*
X114221Y284134D01*
X114255Y284022D01*
X114299Y283915D01*
X114352Y283817D01*
X114411Y283734D01*
X114445Y283700D01*
X114479Y283671D01*
X114518Y283646D01*
X114562Y283632D01*
X114606Y283622D01*
X114655Y283617D01*
X114684D01*
X114704Y283622D01*
X114752Y283632D01*
X114816Y283656D01*
X114884Y283690D01*
X114918Y283715D01*
X114953Y283744D01*
X114982Y283778D01*
X115016Y283822D01*
X115040Y283866D01*
X115065Y283920D01*
Y283925D01*
X115070Y283934D01*
X115075Y283954D01*
X115084Y283978D01*
X115094Y284012D01*
X115104Y284051D01*
X115114Y284100D01*
X115123Y284154D01*
X115133Y284217D01*
X115143Y284291D01*
X115153Y284369D01*
X115162Y284456D01*
X115172Y284554D01*
X115177Y284657D01*
X115182Y284769D01*
Y284891D01*
Y284901D01*
Y284920D01*
Y284954D01*
Y284998D01*
X115177Y285057D01*
Y285120D01*
X115172Y285189D01*
X115167Y285262D01*
X115153Y285423D01*
X115133Y285584D01*
X115119Y285662D01*
X115104Y285735D01*
X115084Y285803D01*
X115065Y285867D01*
Y285872D01*
X115060Y285881D01*
X115050Y285896D01*
X115040Y285916D01*
X115011Y285964D01*
X114972Y286023D01*
X114913Y286077D01*
X114840Y286125D01*
X114801Y286145D01*
X114757Y286160D01*
X114709Y286169D01*
X114655Y286174D01*
D02*
G37*
G36*
X124957Y359478D02*
X124737D01*
X124678Y359463D01*
X124532Y359448D01*
X124327Y359404D01*
X124093Y359331D01*
X123844Y359214D01*
X123580Y359068D01*
X123317Y358863D01*
X123288Y358833D01*
X123200Y358746D01*
X123083Y358614D01*
X122936Y358409D01*
X122848Y358292D01*
X122761Y358145D01*
X122673Y357999D01*
X122570Y357838D01*
X122482Y357648D01*
X122395Y357457D01*
X122307Y357238D01*
X122233Y357018D01*
Y357003D01*
X122219Y356974D01*
X122204Y356916D01*
X122175Y356842D01*
X122160Y356755D01*
X122131Y356652D01*
X122087Y356418D01*
X122058Y356154D01*
X122043Y355891D01*
X122073Y355627D01*
X122102Y355496D01*
X122146Y355378D01*
X122160Y355349D01*
X122204Y355291D01*
X122277Y355188D01*
X122380Y355086D01*
X122512Y354983D01*
X122687Y354881D01*
X122907Y354822D01*
X123156Y354793D01*
X123229D01*
X123288Y354807D01*
X123434Y354822D01*
X123639Y354866D01*
X123859Y354954D01*
X124107Y355056D01*
X124386Y355217D01*
X124517Y355305D01*
X124649Y355422D01*
X124664Y355437D01*
X124678Y355452D01*
X124766Y355539D01*
X124898Y355671D01*
X125059Y355876D01*
X125235Y356110D01*
X125425Y356403D01*
X125601Y356725D01*
X125747Y357106D01*
Y357121D01*
X125762Y357150D01*
X125776Y357208D01*
X125806Y357282D01*
X125820Y357384D01*
X125850Y357487D01*
X125893Y357735D01*
X125937Y357999D01*
X125952Y358292D01*
X125923Y358570D01*
X125893Y358702D01*
X125850Y358833D01*
Y358848D01*
X125835Y358863D01*
X125791Y358936D01*
X125733Y359038D01*
X125630Y359156D01*
X125484Y359273D01*
X125308Y359375D01*
X125088Y359448D01*
X124957Y359478D01*
D02*
G37*
G36*
X372584Y361878D02*
X372516D01*
X372467Y361868D01*
X372409D01*
X372340Y361858D01*
X372184Y361829D01*
X371999Y361790D01*
X371803Y361722D01*
X371608Y361634D01*
X371413Y361507D01*
X371403D01*
X371393Y361487D01*
X371335Y361439D01*
X371247Y361361D01*
X371140Y361243D01*
X371023Y361107D01*
X370905Y360931D01*
X370788Y360726D01*
X370691Y360502D01*
Y360492D01*
X370681Y360472D01*
X370671Y360443D01*
X370652Y360394D01*
X370642Y360336D01*
X370622Y360267D01*
X370583Y360101D01*
X370535Y359906D01*
X370505Y359682D01*
X370476Y359448D01*
X370466Y359194D01*
Y359184D01*
Y359145D01*
Y359096D01*
X370476Y359028D01*
X370486Y358940D01*
X370496Y358833D01*
X370515Y358716D01*
X370544Y358589D01*
X370613Y358315D01*
X370661Y358169D01*
X370720Y358023D01*
X370788Y357866D01*
X370866Y357720D01*
X370954Y357574D01*
X371062Y357427D01*
X371071Y357417D01*
X371091Y357398D01*
X371120Y357359D01*
X371169Y357310D01*
X371228Y357252D01*
X371296Y357193D01*
X371384Y357125D01*
X371472Y357056D01*
X371579Y356988D01*
X371686Y356920D01*
X371940Y356803D01*
X372086Y356754D01*
X372233Y356715D01*
X372379Y356695D01*
X372545Y356685D01*
X372653D01*
X372721Y356695D01*
X372809Y356705D01*
X372916Y356725D01*
X373033Y356744D01*
X373150Y356764D01*
X373414Y356842D01*
X373550Y356900D01*
X373687Y356959D01*
X373814Y357037D01*
X373941Y357125D01*
X374068Y357222D01*
X374175Y357339D01*
X374185Y357349D01*
X374195Y357369D01*
X374224Y357408D01*
X374263Y357466D01*
X374302Y357535D01*
X374351Y357613D01*
X374399Y357710D01*
X374458Y357827D01*
X374507Y357954D01*
X374556Y358101D01*
X374605Y358257D01*
X374643Y358423D01*
X374683Y358618D01*
X374712Y358813D01*
X374722Y359028D01*
X374731Y359262D01*
Y359272D01*
Y359311D01*
Y359379D01*
X374722Y359457D01*
X374712Y359555D01*
X374702Y359672D01*
X374683Y359799D01*
X374653Y359935D01*
X374585Y360238D01*
X374536Y360394D01*
X374478Y360560D01*
X374409Y360716D01*
X374331Y360863D01*
X374243Y361019D01*
X374136Y361156D01*
X374126Y361165D01*
X374107Y361185D01*
X374077Y361224D01*
X374029Y361273D01*
X373970Y361321D01*
X373902Y361380D01*
X373814Y361448D01*
X373726Y361517D01*
X373619Y361585D01*
X373502Y361653D01*
X373375Y361712D01*
X373238Y361761D01*
X373082Y361809D01*
X372926Y361848D01*
X372760Y361868D01*
X372584Y361878D01*
D02*
G37*
G36*
X378967Y361429D02*
X378284Y359350D01*
X379689D01*
X378967Y361429D01*
D02*
G37*
G36*
X143500Y258650D02*
X143403D01*
Y257571D01*
X143476D01*
X143525Y257576D01*
X143588Y257581D01*
X143652Y257591D01*
X143725Y257606D01*
X143798Y257625D01*
X143871Y257649D01*
X143945Y257684D01*
X144008Y257728D01*
X144071Y257776D01*
X144120Y257840D01*
X144159Y257908D01*
X144184Y257991D01*
X144193Y258089D01*
Y258094D01*
Y258098D01*
X144188Y258133D01*
X144184Y258176D01*
X144169Y258235D01*
X144149Y258298D01*
X144115Y258367D01*
X144071Y258430D01*
X144008Y258494D01*
X143998Y258499D01*
X143974Y258518D01*
X143935Y258542D01*
X143876Y258572D01*
X143803Y258601D01*
X143715Y258625D01*
X143613Y258645D01*
X143500Y258650D01*
D02*
G37*
G36*
X245938Y372829D02*
X245792D01*
X245704Y372819D01*
X245616Y372809D01*
X245528Y372800D01*
X245460Y372780D01*
X245411Y372761D01*
X245401Y372741D01*
X245382Y372722D01*
X245372Y372692D01*
X245353Y372643D01*
X245333Y372575D01*
X245323Y372497D01*
Y372399D01*
Y368554D01*
Y368544D01*
Y368515D01*
X245333Y368466D01*
X245353Y368408D01*
X245392Y368339D01*
X245431Y368261D01*
X245499Y368173D01*
X245587Y368095D01*
X245597Y368086D01*
X245636Y368066D01*
X245704Y368027D01*
X245792Y367988D01*
X245909Y367949D01*
X246045Y367910D01*
X246211Y367890D01*
X246397Y367881D01*
X246494D01*
X246563Y367890D01*
X246641Y367900D01*
X246738Y367910D01*
X246855Y367929D01*
X246973Y367959D01*
X247236Y368037D01*
X247373Y368086D01*
X247519Y368144D01*
X247666Y368222D01*
X247812Y368310D01*
X247958Y368408D01*
X248095Y368515D01*
X248105Y368525D01*
X248124Y368544D01*
X248163Y368583D01*
X248212Y368632D01*
X248261Y368701D01*
X248329Y368788D01*
X248398Y368886D01*
X248466Y368993D01*
X248534Y369120D01*
X248593Y369267D01*
X248661Y369423D01*
X248710Y369598D01*
X248759Y369784D01*
X248798Y369989D01*
X248817Y370203D01*
X248827Y370438D01*
Y370447D01*
Y370487D01*
Y370545D01*
X248817Y370623D01*
X248808Y370711D01*
X248788Y370828D01*
X248759Y370945D01*
X248729Y371072D01*
X248690Y371209D01*
X248642Y371355D01*
X248583Y371502D01*
X248505Y371648D01*
X248417Y371785D01*
X248320Y371931D01*
X248202Y372058D01*
X248066Y372185D01*
X248056Y372195D01*
X248027Y372214D01*
X247988Y372243D01*
X247929Y372282D01*
X247851Y372331D01*
X247753Y372390D01*
X247646Y372448D01*
X247519Y372507D01*
X247373Y372565D01*
X247217Y372624D01*
X247041Y372683D01*
X246846Y372731D01*
X246641Y372770D01*
X246426Y372800D01*
X246192Y372819D01*
X245938Y372829D01*
D02*
G37*
G36*
X150254Y359478D02*
X150035D01*
X149976Y359463D01*
X149830Y359448D01*
X149625Y359404D01*
X149391Y359331D01*
X149142Y359214D01*
X148878Y359068D01*
X148615Y358863D01*
X148585Y358833D01*
X148498Y358746D01*
X148381Y358614D01*
X148234Y358409D01*
X148146Y358292D01*
X148058Y358145D01*
X147971Y357999D01*
X147868Y357838D01*
X147780Y357648D01*
X147693Y357457D01*
X147605Y357238D01*
X147531Y357018D01*
Y357003D01*
X147517Y356974D01*
X147502Y356916D01*
X147473Y356842D01*
X147458Y356755D01*
X147429Y356652D01*
X147385Y356418D01*
X147356Y356154D01*
X147341Y355891D01*
X147370Y355627D01*
X147400Y355496D01*
X147444Y355378D01*
X147458Y355349D01*
X147502Y355291D01*
X147575Y355188D01*
X147678Y355086D01*
X147810Y354983D01*
X147985Y354881D01*
X148205Y354822D01*
X148454Y354793D01*
X148527D01*
X148585Y354807D01*
X148732Y354822D01*
X148937Y354866D01*
X149156Y354954D01*
X149405Y355056D01*
X149683Y355217D01*
X149815Y355305D01*
X149947Y355422D01*
X149962Y355437D01*
X149976Y355452D01*
X150064Y355539D01*
X150196Y355671D01*
X150357Y355876D01*
X150533Y356110D01*
X150723Y356403D01*
X150899Y356725D01*
X151045Y357106D01*
Y357121D01*
X151060Y357150D01*
X151074Y357208D01*
X151104Y357282D01*
X151118Y357384D01*
X151147Y357487D01*
X151191Y357735D01*
X151235Y357999D01*
X151250Y358292D01*
X151221Y358570D01*
X151191Y358702D01*
X151147Y358833D01*
Y358848D01*
X151133Y358863D01*
X151089Y358936D01*
X151030Y359038D01*
X150928Y359156D01*
X150782Y359273D01*
X150606Y359375D01*
X150386Y359448D01*
X150254Y359478D01*
D02*
G37*
%LPD*%
D34*
X367500Y315000D02*
G03*
X367500Y315000I-500J0D01*
G01*
X279500Y269000D02*
G03*
X279500Y269000I-500J0D01*
G01*
X341500Y240500D02*
G03*
X341500Y240500I-500J0D01*
G01*
X299000Y203000D02*
Y205500D01*
X3000Y119500D02*
Y175500D01*
Y119500D02*
X64500D01*
Y175500D01*
X3000D02*
X64500D01*
X25500Y128000D02*
Y167000D01*
X3000Y128000D02*
X25500D01*
X3000Y167000D02*
X25500D01*
X189500Y317000D02*
X195500Y311000D01*
X235500D02*
X241000Y316500D01*
X171250Y108000D02*
Y317000D01*
Y108000D02*
X259750D01*
Y317000D01*
X195650Y310600D02*
X235350D01*
X171250Y317000D02*
X189750D01*
X241250D02*
X259750D01*
X60500Y62000D02*
X61000D01*
Y94500D02*
Y100000D01*
X5500Y67000D02*
X19000D01*
Y94500D01*
X5500D02*
X19000D01*
X5200Y62500D02*
Y100000D01*
X61000D01*
Y62000D02*
Y69500D01*
X5200Y62000D02*
X38500D01*
X70400Y61200D02*
Y102800D01*
X129600D01*
Y61200D02*
Y102800D01*
X70400Y61200D02*
X129600D01*
X323000Y27000D02*
Y85000D01*
X165500Y97500D02*
X310500D01*
X153000Y27000D02*
Y85000D01*
X165500Y14500D02*
X310500D01*
X369500Y345000D02*
X371600D01*
X369500Y315000D02*
Y345000D01*
Y315000D02*
X371600D01*
X352500Y312000D02*
Y349000D01*
X371500D01*
X371600Y348900D01*
Y345000D02*
Y348900D01*
X352500Y312000D02*
X371600D01*
Y315000D01*
X281500Y299000D02*
X283600D01*
X281500Y269000D02*
Y299000D01*
Y269000D02*
X283600D01*
X264500Y266000D02*
Y303000D01*
X283500D01*
X283600Y302900D01*
Y299000D02*
Y302900D01*
X264500Y266000D02*
X283600D01*
Y269000D01*
X311000Y243000D02*
Y245100D01*
Y243000D02*
X341000D01*
Y245100D01*
X307000Y226000D02*
X344000D01*
X307000D02*
Y245000D01*
X307100Y245100D01*
X311000D01*
X344000Y226000D02*
Y245100D01*
X341000D02*
X344000D01*
X110000Y241000D02*
Y243500D01*
X134000Y216000D02*
X136500D01*
X266500Y140500D02*
Y146498D01*
X269499D01*
X270499Y145498D01*
Y143499D01*
X269499Y142499D01*
X266500D01*
X276497Y140500D02*
X272498D01*
X276497Y144499D01*
Y145498D01*
X275497Y146498D01*
X273498D01*
X272498Y145498D01*
X266000Y198000D02*
Y203998D01*
X268999D01*
X269999Y202998D01*
Y200999D01*
X268999Y199999D01*
X266000D01*
X267999D02*
X269999Y198000D01*
X271998D02*
X273997D01*
X272998D01*
Y203998D01*
X271998Y202998D01*
X276996D02*
X277996Y203998D01*
X279995D01*
X280995Y202998D01*
Y201999D01*
X279995Y200999D01*
X280995Y199999D01*
Y199000D01*
X279995Y198000D01*
X277996D01*
X276996Y199000D01*
Y199999D01*
X277996Y200999D01*
X276996Y201999D01*
Y202998D01*
X277996Y200999D02*
X279995D01*
X312500Y211998D02*
Y206000D01*
X315499D01*
X316499Y207000D01*
Y207999D01*
X315499Y208999D01*
X312500D01*
X315499D01*
X316499Y209999D01*
Y210998D01*
X315499Y211998D01*
X312500D01*
X318498Y206000D02*
Y209999D01*
X320497Y211998D01*
X322497Y209999D01*
Y206000D01*
Y208999D01*
X318498D01*
X324496Y211998D02*
X328495D01*
X326496D01*
Y206000D01*
X334493Y211998D02*
X330494D01*
Y208999D01*
X332493Y209999D01*
X333493D01*
X334493Y208999D01*
Y207000D01*
X333493Y206000D01*
X331494D01*
X330494Y207000D01*
X339491Y206000D02*
Y211998D01*
X336492Y208999D01*
X340491D01*
X346489Y210998D02*
X345489Y211998D01*
X343490D01*
X342490Y210998D01*
Y209999D01*
X343490Y208999D01*
X345489D01*
X346489Y207999D01*
Y207000D01*
X345489Y206000D01*
X343490D01*
X342490Y207000D01*
X70000Y50500D02*
X71999D01*
X71000D01*
Y56498D01*
X70000Y55498D01*
X74998Y50500D02*
X76998D01*
X75998D01*
Y56498D01*
X74998Y55498D01*
X79997Y56498D02*
X83995D01*
Y55498D01*
X79997Y51500D01*
Y50500D01*
X89994Y55498D02*
X88994Y56498D01*
X86994D01*
X85995Y55498D01*
Y54499D01*
X86994Y53499D01*
X88994D01*
X89994Y52499D01*
Y51500D01*
X88994Y50500D01*
X86994D01*
X85995Y51500D01*
X34499Y245498D02*
X33499Y246498D01*
X31500D01*
X30500Y245498D01*
Y241500D01*
X31500Y240500D01*
X33499D01*
X34499Y241500D01*
X36498Y240500D02*
X38497D01*
X37498D01*
Y246498D01*
X36498Y245498D01*
X45499Y210998D02*
X44499Y211998D01*
X42500D01*
X41500Y210998D01*
Y207000D01*
X42500Y206000D01*
X44499D01*
X45499Y207000D01*
X51497Y206000D02*
X47498D01*
X51497Y209999D01*
Y210998D01*
X50497Y211998D01*
X48498D01*
X47498Y210998D01*
X73999Y261498D02*
X72999Y262498D01*
X71000D01*
X70000Y261498D01*
Y257500D01*
X71000Y256500D01*
X72999D01*
X73999Y257500D01*
X75998Y261498D02*
X76998Y262498D01*
X78997D01*
X79997Y261498D01*
Y260499D01*
X78997Y259499D01*
X77997D01*
X78997D01*
X79997Y258499D01*
Y257500D01*
X78997Y256500D01*
X76998D01*
X75998Y257500D01*
X135002Y229499D02*
X134002Y228499D01*
Y226500D01*
X135002Y225500D01*
X139000D01*
X140000Y226500D01*
Y228499D01*
X139000Y229499D01*
X140000Y234497D02*
X134002D01*
X137001Y231498D01*
Y235497D01*
X335499Y333498D02*
X334499Y334498D01*
X332500D01*
X331500Y333498D01*
Y329500D01*
X332500Y328500D01*
X334499D01*
X335499Y329500D01*
X341497Y334498D02*
X337498D01*
Y331499D01*
X339497Y332499D01*
X340497D01*
X341497Y331499D01*
Y329500D01*
X340497Y328500D01*
X338498D01*
X337498Y329500D01*
X313499Y333998D02*
X312499Y334998D01*
X310500D01*
X309500Y333998D01*
Y330000D01*
X310500Y329000D01*
X312499D01*
X313499Y330000D01*
X319497Y334998D02*
X317497Y333998D01*
X315498Y331999D01*
Y330000D01*
X316498Y329000D01*
X318497D01*
X319497Y330000D01*
Y330999D01*
X318497Y331999D01*
X315498D01*
X319999Y254498D02*
X318999Y255498D01*
X317000D01*
X316000Y254498D01*
Y250500D01*
X317000Y249500D01*
X318999D01*
X319999Y250500D01*
X321998Y255498D02*
X325997D01*
Y254498D01*
X321998Y250500D01*
Y249500D01*
X347502Y282999D02*
X346502Y281999D01*
Y280000D01*
X347502Y279000D01*
X351500D01*
X352500Y280000D01*
Y281999D01*
X351500Y282999D01*
X347502Y284998D02*
X346502Y285998D01*
Y287997D01*
X347502Y288997D01*
X348501D01*
X349501Y287997D01*
X350501Y288997D01*
X351500D01*
X352500Y287997D01*
Y285998D01*
X351500Y284998D01*
X350501D01*
X349501Y285998D01*
X348501Y284998D01*
X347502D01*
X349501Y285998D02*
Y287997D01*
X375002Y264499D02*
X374002Y263499D01*
Y261500D01*
X375002Y260500D01*
X379000D01*
X380000Y261500D01*
Y263499D01*
X379000Y264499D01*
Y266498D02*
X380000Y267498D01*
Y269497D01*
X379000Y270497D01*
X375002D01*
X374002Y269497D01*
Y267498D01*
X375002Y266498D01*
X376001D01*
X377001Y267498D01*
Y270497D01*
X321999Y139498D02*
X320999Y140498D01*
X319000D01*
X318000Y139498D01*
Y135500D01*
X319000Y134500D01*
X320999D01*
X321999Y135500D01*
X323998Y134500D02*
X325997D01*
X324998D01*
Y140498D01*
X323998Y139498D01*
X328996D02*
X329996Y140498D01*
X331996D01*
X332995Y139498D01*
Y135500D01*
X331996Y134500D01*
X329996D01*
X328996Y135500D01*
Y139498D01*
X342999D02*
X341999Y140498D01*
X340000D01*
X339000Y139498D01*
Y135500D01*
X340000Y134500D01*
X341999D01*
X342999Y135500D01*
X344998Y134500D02*
X346997D01*
X345998D01*
Y140498D01*
X344998Y139498D01*
X349996Y134500D02*
X351996D01*
X350996D01*
Y140498D01*
X349996Y139498D01*
X65499Y187998D02*
X64499Y188998D01*
X62500D01*
X61500Y187998D01*
Y184000D01*
X62500Y183000D01*
X64499D01*
X65499Y184000D01*
X67498Y188998D02*
Y183000D01*
Y185999D01*
X71497D01*
Y188998D01*
Y183000D01*
X73496Y187998D02*
X74496Y188998D01*
X76495D01*
X77495Y187998D01*
Y186999D01*
X76495Y185999D01*
X75495D01*
X76495D01*
X77495Y184999D01*
Y184000D01*
X76495Y183000D01*
X74496D01*
X73496Y184000D01*
X82493Y183000D02*
Y188998D01*
X79494Y185999D01*
X83493D01*
X85492Y187998D02*
X86492Y188998D01*
X88491D01*
X89491Y187998D01*
Y184000D01*
X88491Y183000D01*
X86492D01*
X85492Y184000D01*
Y187998D01*
X95489D02*
X94489Y188998D01*
X92490D01*
X91490Y187998D01*
Y184000D01*
X92490Y183000D01*
X94489D01*
X95489Y184000D01*
X4500Y56498D02*
Y50500D01*
X7499D01*
X8499Y51500D01*
Y55498D01*
X7499Y56498D01*
X4500D01*
X14497Y55498D02*
X13497Y56498D01*
X11498D01*
X10498Y55498D01*
Y51500D01*
X11498Y50500D01*
X13497D01*
X14497Y51500D01*
X16496Y55498D02*
X17496Y56498D01*
X19495D01*
X20495Y55498D01*
Y51500D01*
X19495Y50500D01*
X17496D01*
X16496Y51500D01*
Y55498D01*
X22494D02*
X23494Y56498D01*
X25493D01*
X26493Y55498D01*
Y51500D01*
X25493Y50500D01*
X23494D01*
X22494Y51500D01*
Y55498D01*
X32491Y56498D02*
X28492D01*
Y53499D01*
X30492Y54499D01*
X31491D01*
X32491Y53499D01*
Y51500D01*
X31491Y50500D01*
X29492D01*
X28492Y51500D01*
X360002Y208500D02*
X366000D01*
Y212499D01*
Y214498D02*
X360002D01*
X362001Y216497D01*
X360002Y218497D01*
X366000D01*
X361002Y220496D02*
X360002Y221496D01*
Y223495D01*
X361002Y224495D01*
X362001D01*
X363001Y223495D01*
Y222496D01*
Y223495D01*
X364001Y224495D01*
X365000D01*
X366000Y223495D01*
Y221496D01*
X365000Y220496D01*
X360002Y230493D02*
Y226494D01*
X363001D01*
X362001Y228493D01*
Y229493D01*
X363001Y230493D01*
X365000D01*
X366000Y229493D01*
Y227494D01*
X365000Y226494D01*
X361002Y232492D02*
X360002Y233492D01*
Y235491D01*
X361002Y236491D01*
X362001D01*
X363001Y235491D01*
X364001Y236491D01*
X365000D01*
X366000Y235491D01*
Y233492D01*
X365000Y232492D01*
X364001D01*
X363001Y233492D01*
X362001Y232492D01*
X361002D01*
X363001Y233492D02*
Y235491D01*
Y238490D02*
Y242489D01*
X366000Y244488D02*
Y246488D01*
Y245488D01*
X360002D01*
X361002Y244488D01*
X360502Y146000D02*
X366500D01*
Y149999D01*
Y151998D02*
X360502D01*
X362501Y153997D01*
X360502Y155997D01*
X366500D01*
X361502Y157996D02*
X360502Y158996D01*
Y160995D01*
X361502Y161995D01*
X362501D01*
X363501Y160995D01*
Y159995D01*
Y160995D01*
X364501Y161995D01*
X365500D01*
X366500Y160995D01*
Y158996D01*
X365500Y157996D01*
X360502Y167993D02*
Y163994D01*
X363501D01*
X362501Y165993D01*
Y166993D01*
X363501Y167993D01*
X365500D01*
X366500Y166993D01*
Y164994D01*
X365500Y163994D01*
X361502Y169992D02*
X360502Y170992D01*
Y172991D01*
X361502Y173991D01*
X362501D01*
X363501Y172991D01*
X364501Y173991D01*
X365500D01*
X366500Y172991D01*
Y170992D01*
X365500Y169992D01*
X364501D01*
X363501Y170992D01*
X362501Y169992D01*
X361502D01*
X363501Y170992D02*
Y172991D01*
Y175990D02*
Y179989D01*
X366500Y185987D02*
Y181988D01*
X362501Y185987D01*
X361502D01*
X360502Y184987D01*
Y182988D01*
X361502Y181988D01*
X333002Y42500D02*
X339000D01*
Y46499D01*
Y48498D02*
X333002D01*
X335001Y50497D01*
X333002Y52497D01*
X339000D01*
Y58495D02*
Y54496D01*
X335001Y58495D01*
X334002D01*
X333002Y57495D01*
Y55496D01*
X334002Y54496D01*
X333002Y64493D02*
Y60494D01*
X336001D01*
X335001Y62493D01*
Y63493D01*
X336001Y64493D01*
X338000D01*
X339000Y63493D01*
Y61494D01*
X338000Y60494D01*
Y66492D02*
X339000Y67492D01*
Y69491D01*
X338000Y70491D01*
X334002D01*
X333002Y69491D01*
Y67492D01*
X334002Y66492D01*
X335001D01*
X336001Y67492D01*
Y70491D01*
X333002Y76489D02*
X334002Y74490D01*
X336001Y72490D01*
X338000D01*
X339000Y73490D01*
Y75489D01*
X338000Y76489D01*
X337001D01*
X336001Y75489D01*
Y72490D01*
X78000Y124500D02*
X74001D01*
Y125500D01*
X75001Y126499D01*
X78000D01*
X75001D01*
X74001Y127499D01*
X75001Y128499D01*
X78000D01*
Y130498D02*
Y132497D01*
Y131498D01*
X74001D01*
Y130498D01*
Y139495D02*
Y136496D01*
X75001Y135496D01*
X77000D01*
X78000Y136496D01*
Y139495D01*
X74001Y141495D02*
X78000D01*
X76001D01*
X75001Y142494D01*
X74001Y143494D01*
Y144493D01*
X78000Y148492D02*
Y150492D01*
X77000Y151491D01*
X75001D01*
X74001Y150492D01*
Y148492D01*
X75001Y147493D01*
X77000D01*
X78000Y148492D01*
X72002Y153491D02*
X77000D01*
X78000Y154490D01*
Y156490D01*
X77000Y157489D01*
X72002D01*
X73002Y163487D02*
X72002Y162488D01*
Y160488D01*
X73002Y159489D01*
X74001D01*
X75001Y160488D01*
Y162488D01*
X76001Y163487D01*
X77000D01*
X78000Y162488D01*
Y160488D01*
X77000Y159489D01*
X72002Y165487D02*
X78000D01*
Y168486D01*
X77000Y169485D01*
X76001D01*
X75001Y168486D01*
Y165487D01*
Y168486D01*
X74001Y169485D01*
X73002D01*
X72002Y168486D01*
Y165487D01*
X305500Y366500D02*
Y372498D01*
X307499Y370499D01*
X309499Y372498D01*
Y366500D01*
X311498Y372498D02*
Y366500D01*
Y368499D01*
X315497Y372498D01*
X312498Y369499D01*
X315497Y366500D01*
X156000Y223000D02*
Y228998D01*
X158999D01*
X159999Y227998D01*
Y225999D01*
X158999Y224999D01*
X156000D01*
X161998Y223000D02*
X163997D01*
X162998D01*
Y228998D01*
X161998Y227998D01*
X106000Y197500D02*
Y203498D01*
X108999D01*
X109999Y202498D01*
Y200499D01*
X108999Y199499D01*
X106000D01*
X107999D02*
X109999Y197500D01*
X111998D02*
X113997D01*
X112998D01*
Y203498D01*
X111998Y202498D01*
X106000Y215000D02*
Y220998D01*
X108999D01*
X109999Y219998D01*
Y217999D01*
X108999Y216999D01*
X106000D01*
X107999D02*
X109999Y215000D01*
X115997D02*
X111998D01*
X115997Y218999D01*
Y219998D01*
X114997Y220998D01*
X112998D01*
X111998Y219998D01*
X90500Y242000D02*
Y247998D01*
X93499D01*
X94499Y246998D01*
Y244999D01*
X93499Y243999D01*
X90500D01*
X92499D02*
X94499Y242000D01*
X96498Y246998D02*
X97498Y247998D01*
X99497D01*
X100497Y246998D01*
Y245999D01*
X99497Y244999D01*
X98497D01*
X99497D01*
X100497Y243999D01*
Y243000D01*
X99497Y242000D01*
X97498D01*
X96498Y243000D01*
X332000Y311000D02*
Y316998D01*
X334999D01*
X335999Y315998D01*
Y313999D01*
X334999Y312999D01*
X332000D01*
X333999D02*
X335999Y311000D01*
X337998Y316998D02*
X341997D01*
Y315998D01*
X337998Y312000D01*
Y311000D01*
X310500D02*
Y316998D01*
X313499D01*
X314499Y315998D01*
Y313999D01*
X313499Y312999D01*
X310500D01*
X312499D02*
X314499Y311000D01*
X316498Y315998D02*
X317498Y316998D01*
X319497D01*
X320497Y315998D01*
Y314999D01*
X319497Y313999D01*
X320497Y312999D01*
Y312000D01*
X319497Y311000D01*
X317498D01*
X316498Y312000D01*
Y312999D01*
X317498Y313999D01*
X316498Y314999D01*
Y315998D01*
X317498Y313999D02*
X319497D01*
X305000Y323000D02*
X299002D01*
Y325999D01*
X300002Y326999D01*
X302001D01*
X303001Y325999D01*
Y323000D01*
Y324999D02*
X305000Y326999D01*
X304000Y328998D02*
X305000Y329998D01*
Y331997D01*
X304000Y332997D01*
X300002D01*
X299002Y331997D01*
Y329998D01*
X300002Y328998D01*
X301001D01*
X302001Y329998D01*
Y332997D01*
X293500Y288500D02*
Y294498D01*
X296499D01*
X297499Y293498D01*
Y291499D01*
X296499Y290499D01*
X293500D01*
X295499D02*
X297499Y288500D01*
X299498D02*
X301497D01*
X300498D01*
Y294498D01*
X299498Y293498D01*
X304496D02*
X305496Y294498D01*
X307495D01*
X308495Y293498D01*
Y289500D01*
X307495Y288500D01*
X305496D01*
X304496Y289500D01*
Y293498D01*
X297500Y262500D02*
Y268498D01*
X300499D01*
X301499Y267498D01*
Y265499D01*
X300499Y264499D01*
X297500D01*
X299499D02*
X301499Y262500D01*
X303498D02*
X305497D01*
X304498D01*
Y268498D01*
X303498Y267498D01*
X308496Y262500D02*
X310496D01*
X309496D01*
Y268498D01*
X308496Y267498D01*
X347000Y249000D02*
Y254998D01*
X349999D01*
X350999Y253998D01*
Y251999D01*
X349999Y250999D01*
X347000D01*
X348999D02*
X350999Y249000D01*
X352998D02*
X354997D01*
X353998D01*
Y254998D01*
X352998Y253998D01*
X361995Y249000D02*
X357996D01*
X361995Y252999D01*
Y253998D01*
X360996Y254998D01*
X358996D01*
X357996Y253998D01*
X309500Y347000D02*
Y352998D01*
X312499D01*
X313499Y351998D01*
Y349999D01*
X312499Y348999D01*
X309500D01*
X311499D02*
X313499Y347000D01*
X315498D02*
X317497D01*
X316498D01*
Y352998D01*
X315498Y351998D01*
X320496D02*
X321496Y352998D01*
X323496D01*
X324495Y351998D01*
Y350999D01*
X323496Y349999D01*
X322496D01*
X323496D01*
X324495Y348999D01*
Y348000D01*
X323496Y347000D01*
X321496D01*
X320496Y348000D01*
X318000Y116500D02*
Y122498D01*
X320999D01*
X321999Y121498D01*
Y119499D01*
X320999Y118499D01*
X318000D01*
X319999D02*
X321999Y116500D01*
X323998D02*
X325997D01*
X324998D01*
Y122498D01*
X323998Y121498D01*
X331996Y116500D02*
Y122498D01*
X328996Y119499D01*
X332995D01*
X340000Y116500D02*
Y122498D01*
X342999D01*
X343999Y121498D01*
Y119499D01*
X342999Y118499D01*
X340000D01*
X341999D02*
X343999Y116500D01*
X345998D02*
X347997D01*
X346998D01*
Y122498D01*
X345998Y121498D01*
X354995Y122498D02*
X350996D01*
Y119499D01*
X352996Y120499D01*
X353995D01*
X354995Y119499D01*
Y117500D01*
X353995Y116500D01*
X351996D01*
X350996Y117500D01*
X352000Y166500D02*
X346002D01*
Y169499D01*
X347002Y170499D01*
X349001D01*
X350001Y169499D01*
Y166500D01*
Y168499D02*
X352000Y170499D01*
Y172498D02*
Y174497D01*
Y173498D01*
X346002D01*
X347002Y172498D01*
X346002Y181495D02*
X347002Y179496D01*
X349001Y177496D01*
X351000D01*
X352000Y178496D01*
Y180496D01*
X351000Y181495D01*
X350001D01*
X349001Y180496D01*
Y177496D01*
X293500Y139500D02*
Y145498D01*
X296499D01*
X297499Y144498D01*
Y142499D01*
X296499Y141499D01*
X293500D01*
X295499D02*
X297499Y139500D01*
X299498D02*
X301497D01*
X300498D01*
Y145498D01*
X299498Y144498D01*
X304496Y145498D02*
X308495D01*
Y144498D01*
X304496Y140500D01*
Y139500D01*
X175799Y325498D02*
X174799Y326498D01*
X172800D01*
X171800Y325498D01*
Y324499D01*
X172800Y323499D01*
X174799D01*
X175799Y322499D01*
Y321500D01*
X174799Y320500D01*
X172800D01*
X171800Y321500D01*
X177798Y326498D02*
X181797D01*
X179797D01*
Y320500D01*
X183796D02*
Y326498D01*
X185795Y324499D01*
X187795Y326498D01*
Y320500D01*
X189794Y325498D02*
X190794Y326498D01*
X192793D01*
X193793Y325498D01*
Y324499D01*
X192793Y323499D01*
X191794D01*
X192793D01*
X193793Y322499D01*
Y321500D01*
X192793Y320500D01*
X190794D01*
X189794Y321500D01*
X199791Y320500D02*
X195792D01*
X199791Y324499D01*
Y325498D01*
X198791Y326498D01*
X196792D01*
X195792Y325498D01*
X352500Y301000D02*
Y306998D01*
X355499D01*
X356499Y305998D01*
Y303999D01*
X355499Y302999D01*
X352500D01*
X354499D02*
X356499Y301000D01*
X361497D02*
Y306998D01*
X358498Y303999D01*
X362497D01*
X264500Y256000D02*
Y261998D01*
X267499D01*
X268499Y260998D01*
Y258999D01*
X267499Y257999D01*
X264500D01*
X266499D02*
X268499Y256000D01*
X274497Y261998D02*
X270498D01*
Y258999D01*
X272497Y259999D01*
X273497D01*
X274497Y258999D01*
Y257000D01*
X273497Y256000D01*
X271498D01*
X270498Y257000D01*
X354500Y231000D02*
X348502D01*
Y233999D01*
X349502Y234999D01*
X351501D01*
X352501Y233999D01*
Y231000D01*
Y232999D02*
X354500Y234999D01*
X348502Y240997D02*
X349502Y238997D01*
X351501Y236998D01*
X353500D01*
X354500Y237998D01*
Y239997D01*
X353500Y240997D01*
X352501D01*
X351501Y239997D01*
Y236998D01*
X104000Y267998D02*
Y262000D01*
X105999Y263999D01*
X107999Y262000D01*
Y267998D01*
X109998Y262000D02*
X111997D01*
X110998D01*
Y267998D01*
X109998Y266998D01*
X150502Y278000D02*
X156500D01*
X154501Y279999D01*
X156500Y281999D01*
X150502D01*
X156500Y287997D02*
Y283998D01*
X152501Y287997D01*
X151502D01*
X150502Y286997D01*
Y284998D01*
X151502Y283998D01*
X113999Y233500D02*
Y237498D01*
X112999Y238498D01*
X111000D01*
X110000Y237498D01*
Y233500D01*
X111000Y232500D01*
X112999D01*
X111999Y234499D02*
X113999Y232500D01*
X112999D02*
X113999Y233500D01*
X115998Y232500D02*
X117997D01*
X116998D01*
Y238498D01*
X115998Y237498D01*
X139999Y199500D02*
Y203498D01*
X138999Y204498D01*
X137000D01*
X136000Y203498D01*
Y199500D01*
X137000Y198500D01*
X138999D01*
X137999Y200499D02*
X139999Y198500D01*
X138999D02*
X139999Y199500D01*
X145997Y198500D02*
X141998D01*
X145997Y202499D01*
Y203498D01*
X144997Y204498D01*
X142998D01*
X141998Y203498D01*
X291499Y352998D02*
X290499Y353998D01*
X288500D01*
X287500Y352998D01*
Y349000D01*
X288500Y348000D01*
X290499D01*
X291499Y349000D01*
X293498Y348000D02*
X295497D01*
X294498D01*
Y353998D01*
X293498Y352998D01*
X302495Y348000D02*
X298496D01*
X302495Y351999D01*
Y352998D01*
X301496Y353998D01*
X299496D01*
X298496Y352998D01*
X330999Y199998D02*
X329999Y200998D01*
X328000D01*
X327000Y199998D01*
Y196000D01*
X328000Y195000D01*
X329999D01*
X330999Y196000D01*
X332998Y195000D02*
X334997D01*
X333998D01*
Y200998D01*
X332998Y199998D01*
X337996D02*
X338996Y200998D01*
X340996D01*
X341995Y199998D01*
Y198999D01*
X340996Y197999D01*
X339996D01*
X340996D01*
X341995Y196999D01*
Y196000D01*
X340996Y195000D01*
X338996D01*
X337996Y196000D01*
X156499Y122498D02*
X155499Y123498D01*
X153500D01*
X152500Y122498D01*
Y118500D01*
X153500Y117500D01*
X155499D01*
X156499Y118500D01*
X158498Y117500D02*
X160497D01*
X159498D01*
Y123498D01*
X158498Y122498D01*
X166496Y117500D02*
Y123498D01*
X163496Y120499D01*
X167495D01*
X13500Y160500D02*
X15833D01*
Y159917D01*
X15249Y159334D01*
X13500D01*
X15249D01*
X15833Y158751D01*
X15249Y158167D01*
X13500D01*
Y157001D02*
Y155835D01*
Y156418D01*
X15833D01*
Y157001D01*
Y151753D02*
Y153502D01*
X15249Y154085D01*
X14083D01*
X13500Y153502D01*
Y151753D01*
X15833Y150586D02*
X13500D01*
X14666D01*
X15249Y150003D01*
X15833Y149420D01*
Y148837D01*
X13500Y146504D02*
Y145338D01*
X14083Y144755D01*
X15249D01*
X15833Y145338D01*
Y146504D01*
X15249Y147088D01*
X14083D01*
X13500Y146504D01*
X16999Y143589D02*
X14083D01*
X13500Y143006D01*
Y141839D01*
X14083Y141256D01*
X16999D01*
X16416Y137757D02*
X16999Y138340D01*
Y139507D01*
X16416Y140090D01*
X15833D01*
X15249Y139507D01*
Y138340D01*
X14666Y137757D01*
X14083D01*
X13500Y138340D01*
Y139507D01*
X14083Y140090D01*
X16999Y136591D02*
X13500D01*
Y134842D01*
X14083Y134258D01*
X14666D01*
X15249Y134842D01*
Y136591D01*
Y134842D01*
X15833Y134258D01*
X16416D01*
X16999Y134842D01*
Y136591D01*
X48916Y154167D02*
X49499Y154751D01*
Y155917D01*
X48916Y156500D01*
X48333D01*
X47749Y155917D01*
Y154751D01*
X47166Y154167D01*
X46583D01*
X46000Y154751D01*
Y155917D01*
X46583Y156500D01*
X49499Y153001D02*
Y151835D01*
Y152418D01*
X46000D01*
Y153001D01*
Y151835D01*
Y150085D02*
X49499D01*
Y148336D01*
X48916Y147753D01*
X47749D01*
X47166Y148336D01*
Y150085D01*
X47749Y146587D02*
Y144254D01*
X49499Y140755D02*
Y143088D01*
X47749D01*
X48333Y141921D01*
Y141338D01*
X47749Y140755D01*
X46583D01*
X46000Y141338D01*
Y142505D01*
X46583Y143088D01*
X211500Y280000D02*
Y276001D01*
X212833Y274668D01*
X214166Y276001D01*
Y278667D01*
X215499Y280000D01*
X216832Y278667D01*
Y274668D01*
X218164Y270670D02*
X216832D01*
Y272003D01*
Y269337D01*
Y270670D01*
X212833D01*
X211500Y269337D01*
Y265338D02*
X216832D01*
Y264005D01*
X215499Y262672D01*
X211500D01*
X215499D01*
X216832Y261339D01*
X215499Y260006D01*
X211500D01*
X218164Y257341D02*
X219497Y256008D01*
Y253342D01*
X218164Y252009D01*
X216832D01*
X215499Y253342D01*
Y254675D01*
Y253342D01*
X214166Y252009D01*
X212833D01*
X211500Y253342D01*
Y256008D01*
X212833Y257341D01*
X211500Y244012D02*
Y249343D01*
X216832Y244012D01*
X218164D01*
X219497Y245344D01*
Y248010D01*
X218164Y249343D01*
X211500Y240013D02*
X218164D01*
X215499D01*
Y241346D01*
Y238680D01*
Y240013D01*
X218164D01*
X219497Y238680D01*
X211500Y234681D02*
Y232015D01*
Y233348D01*
X219497D01*
X218164Y234681D01*
Y228017D02*
X219497Y226684D01*
Y224018D01*
X218164Y222685D01*
X212833D01*
X211500Y224018D01*
Y226684D01*
X212833Y228017D01*
X218164D01*
Y220019D02*
X219497Y218687D01*
Y216021D01*
X218164Y214688D01*
X216832D01*
X215499Y216021D01*
Y217354D01*
Y216021D01*
X214166Y214688D01*
X212833D01*
X211500Y216021D01*
Y218687D01*
X212833Y220019D01*
X216832Y206690D02*
Y210689D01*
X215499Y212022D01*
X212833D01*
X211500Y210689D01*
Y206690D01*
X218164Y204025D02*
X219497Y202692D01*
Y200026D01*
X218164Y198693D01*
X216832D01*
X215499Y200026D01*
X214166Y198693D01*
X212833D01*
X211500Y200026D01*
Y202692D01*
X212833Y204025D01*
X214166D01*
X215499Y202692D01*
X216832Y204025D01*
X218164D01*
X215499Y202692D02*
Y200026D01*
X218164Y194694D02*
X216832D01*
Y196027D01*
Y193361D01*
Y194694D01*
X212833D01*
X211500Y193361D01*
X219497Y184031D02*
X218164Y186697D01*
X215499Y189363D01*
X212833D01*
X211500Y188030D01*
Y185364D01*
X212833Y184031D01*
X214166D01*
X215499Y185364D01*
Y189363D01*
X30001Y67000D02*
Y72332D01*
X48000Y91999D02*
X53332D01*
X50666Y94665D02*
Y89333D01*
X280499Y29497D02*
X277833D01*
X276500Y28164D01*
Y22833D01*
X277833Y21500D01*
X280499D01*
X281832Y22833D01*
Y28164D01*
X280499Y29497D01*
X284497D02*
Y22833D01*
X285830Y21500D01*
X288496D01*
X289829Y22833D01*
Y29497D01*
X292495D02*
X297826D01*
X295161D01*
Y21500D01*
X300492Y25499D02*
X305824D01*
X280499Y90497D02*
X277833D01*
X276500Y89165D01*
Y83833D01*
X277833Y82500D01*
X280499D01*
X281832Y83833D01*
Y89165D01*
X280499Y90497D01*
X284497D02*
Y83833D01*
X285830Y82500D01*
X288496D01*
X289829Y83833D01*
Y90497D01*
X292495D02*
X297826D01*
X295161D01*
Y82500D01*
X300492Y86499D02*
X305824D01*
X303158Y89165D02*
Y83833D01*
X166000Y90497D02*
X168666D01*
X167333D01*
Y82500D01*
X166000D01*
X168666D01*
X172664D02*
Y90497D01*
X177996Y82500D01*
Y90497D01*
X180662Y86499D02*
X185994D01*
X183328Y89165D02*
Y83833D01*
X166000Y29497D02*
X168666D01*
X167333D01*
Y21500D01*
X166000D01*
X168666D01*
X172664D02*
Y29497D01*
X177996Y21500D01*
Y29497D01*
X180662Y25499D02*
X185994D01*
D35*
X309992Y388071D02*
G03*
X309992Y388071I-492J0D01*
G01*
X333839Y300189D02*
G03*
X333839Y300189I-492J0D01*
G01*
X306646Y158811D02*
G03*
X306646Y158811I-492J0D01*
G01*
D36*
X74761Y233900D02*
G03*
X77261Y233900I1250J0D01*
G01*
X265500Y151000D02*
X275500D01*
X265500D02*
Y191000D01*
X275500Y151000D02*
Y191000D01*
X265500D02*
X275500D01*
X303988Y374488D02*
Y385512D01*
X325012Y374488D02*
Y385512D01*
X303988D02*
X325012D01*
X303988Y374488D02*
X325012D01*
X69990Y233900D02*
X70020Y193900D01*
X82000D01*
Y233900D01*
X77261D02*
X82000D01*
X69990D02*
X74761D01*
X155000Y272500D02*
X165000D01*
Y232500D02*
Y272500D01*
X155000Y232500D02*
Y272500D01*
Y232500D02*
X165000D01*
X311673Y294874D02*
X333327D01*
X311673Y279126D02*
X333327D01*
Y294874D01*
X311673Y279126D02*
Y294874D01*
X306173Y164126D02*
X327827D01*
X306173Y179874D02*
X327827D01*
X306173Y164126D02*
Y179874D01*
X327827Y164126D02*
Y179874D01*
X95000Y281000D02*
X115000D01*
X95000Y271000D02*
Y281000D01*
Y271000D02*
X115000D01*
Y281000D01*
X135000Y270500D02*
Y290500D01*
Y270500D02*
X145000D01*
Y290500D01*
X135000D02*
X145000D01*
D37*
X330571Y290937D02*
G03*
X330571Y290937I-1181J0D01*
G01*
X311291Y168063D02*
G03*
X311291Y168063I-1181J0D01*
G01*
D38*
X303163Y208700D02*
Y209300D01*
X299163Y215099D02*
X301000D01*
X299163Y212500D02*
Y215099D01*
Y203099D02*
X301000D01*
X110163Y241099D02*
X112000D01*
X110163Y250500D02*
Y253099D01*
X112000D01*
X114163Y246700D02*
Y247300D01*
X134099Y214000D02*
Y215837D01*
X143500D02*
X146099D01*
Y214000D02*
Y215837D01*
X139700Y211837D02*
X140300D01*
M02*
