%FSLAX25Y25*%
%MOIN*%
G70*
G01*
G75*
G04 Layer_Color=255*
%ADD10C,0.02000*%
%ADD11C,0.03000*%
%ADD12R,0.04724X0.02756*%
%ADD13R,0.05315X0.03347*%
%ADD14R,0.03347X0.05315*%
%ADD15O,0.07087X0.02441*%
%ADD16R,0.07087X0.02441*%
%ADD17R,0.12000X0.12000*%
%ADD18O,0.02362X0.07480*%
%ADD19R,0.02756X0.04724*%
%ADD20C,0.05000*%
%ADD21C,0.05906*%
%ADD22R,0.05906X0.05906*%
%ADD23R,0.05906X0.05906*%
%ADD24R,0.06900X0.06900*%
%ADD25C,0.06900*%
%ADD26C,0.12000*%
%ADD27C,0.06500*%
%ADD28R,0.06500X0.06500*%
%ADD29O,0.05600X0.15200*%
%ADD30O,0.13200X0.05600*%
%ADD31O,0.06000X0.20200*%
%ADD32C,0.06000*%
%ADD33C,0.03000*%
%ADD34C,0.01000*%
D21*
X270500Y186000D02*
D03*
Y176000D02*
D03*
Y166000D02*
D03*
X319500Y380000D02*
D03*
X160000Y247500D02*
D03*
Y257500D02*
D03*
Y267500D02*
D03*
X110000Y276000D02*
D03*
X140000Y285500D02*
D03*
D22*
X270500Y156000D02*
D03*
X160000Y237500D02*
D03*
X140000Y275500D02*
D03*
D23*
X309500Y380000D02*
D03*
X100000Y276000D02*
D03*
D24*
X58000Y167500D02*
D03*
D25*
Y157500D02*
D03*
Y147500D02*
D03*
Y137500D02*
D03*
Y127500D02*
D03*
D26*
X378701Y15000D02*
D03*
X15000D02*
D03*
X378701Y378701D02*
D03*
X15000D02*
D03*
D27*
X245500Y257500D02*
D03*
Y297500D02*
D03*
Y277500D02*
D03*
Y267500D02*
D03*
Y217500D02*
D03*
Y227500D02*
D03*
Y237500D02*
D03*
Y247500D02*
D03*
Y287500D02*
D03*
Y307500D02*
D03*
Y207500D02*
D03*
Y187500D02*
D03*
Y147500D02*
D03*
Y137500D02*
D03*
Y127500D02*
D03*
Y117500D02*
D03*
Y167500D02*
D03*
Y177500D02*
D03*
Y197500D02*
D03*
Y157500D02*
D03*
X185500D02*
D03*
Y197500D02*
D03*
Y177500D02*
D03*
Y167500D02*
D03*
Y117500D02*
D03*
Y127500D02*
D03*
Y137500D02*
D03*
Y147500D02*
D03*
Y187500D02*
D03*
Y207500D02*
D03*
Y287500D02*
D03*
Y247500D02*
D03*
Y237500D02*
D03*
Y227500D02*
D03*
Y217500D02*
D03*
Y267500D02*
D03*
Y277500D02*
D03*
Y297500D02*
D03*
Y257500D02*
D03*
D28*
Y307500D02*
D03*
D29*
X59475Y82000D02*
D03*
X36000D02*
D03*
D30*
X50100Y63000D02*
D03*
D31*
X100000Y82000D02*
D03*
X120625D02*
D03*
D32*
X362000Y340000D02*
D03*
Y330000D02*
D03*
Y320000D02*
D03*
X274000Y294000D02*
D03*
Y284000D02*
D03*
Y274000D02*
D03*
X316000Y232000D02*
D03*
X326000D02*
D03*
X336000D02*
D03*
X257500Y367500D02*
D03*
X331000Y368500D02*
D03*
X362000Y360500D02*
D03*
X375000Y210500D02*
D03*
X295500Y195000D02*
D03*
M02*
