%FSLAX25Y25*%
%MOIN*%
G70*
G01*
G75*
G04 Layer_Physical_Order=2*
G04 Layer_Color=16711680*
%ADD10C,0.02000*%
%ADD11C,0.03000*%
%ADD12R,0.04724X0.02756*%
%ADD13R,0.05315X0.03347*%
%ADD14R,0.03347X0.05315*%
%ADD15O,0.07087X0.02441*%
%ADD16R,0.07087X0.02441*%
%ADD17R,0.12000X0.12000*%
%ADD18O,0.02362X0.07480*%
%ADD19R,0.02756X0.04724*%
%ADD20C,0.05000*%
%ADD21C,0.05906*%
%ADD22R,0.05906X0.05906*%
%ADD23R,0.05906X0.05906*%
%ADD24R,0.06900X0.06900*%
%ADD25C,0.06900*%
%ADD26C,0.15000*%
%ADD27C,0.06500*%
%ADD28R,0.06500X0.06500*%
%ADD29O,0.05600X0.15200*%
%ADD30O,0.13200X0.05600*%
%ADD31O,0.06000X0.20200*%
%ADD32C,0.06000*%
%ADD33C,0.03000*%
%ADD34C,0.01000*%
D10*
X72500Y220000D02*
G03*
X74207Y220707I0J2414D01*
G01*
X72500Y222000D02*
G03*
X77621Y224121I0J7243D01*
G01*
X375000Y208500D02*
G03*
X371586Y207086I0J-4828D01*
G01*
X371586Y207086D02*
G03*
X373000Y210500I-3414J3414D01*
G01*
X158619Y256119D02*
G03*
X155286Y257500I-3334J-3334D01*
G01*
D02*
G03*
X158619Y258881I0J4714D01*
G01*
Y246119D02*
G03*
X155286Y247500I-3334J-3334D01*
G01*
D02*
G03*
X158619Y248881I0J4714D01*
G01*
X161381D02*
G03*
X164714Y247500I3334J3334D01*
G01*
D02*
G03*
X161381Y246119I0J-4714D01*
G01*
X185500Y255250D02*
G03*
X181659Y253659I0J-5432D01*
G01*
D02*
G03*
X183250Y257500I-3841J3841D01*
G01*
X247091Y179091D02*
G03*
X250932Y177500I3841J3841D01*
G01*
D02*
G03*
X247091Y175909I0J-5432D01*
G01*
X270500Y184047D02*
G03*
X267166Y182667I0J-4714D01*
G01*
X267166Y182666D02*
G03*
X268547Y186000I-3334J3334D01*
G01*
X371586Y207086D02*
G03*
X373000Y210500I-3414J3414D01*
G01*
X375000Y208500D02*
G03*
X371586Y207086I0J-4828D01*
G01*
X155286Y257500D02*
G03*
X158619Y258881I0J4714D01*
G01*
Y256119D02*
G03*
X155286Y257500I-3334J-3334D01*
G01*
X164714Y247500D02*
G03*
X161381Y246119I0J-4714D01*
G01*
Y248881D02*
G03*
X164714Y247500I3334J3334D01*
G01*
X155286D02*
G03*
X158619Y248881I0J4714D01*
G01*
Y246119D02*
G03*
X155286Y247500I-3334J-3334D01*
G01*
X181659Y253659D02*
G03*
X183250Y257500I-3841J3841D01*
G01*
X185500Y255250D02*
G03*
X181659Y253659I0J-5432D01*
G01*
X72500Y222000D02*
G03*
X77621Y224121I0J7243D01*
G01*
X72500Y220000D02*
G03*
X74207Y220707I0J2414D01*
G01*
X262000Y177500D02*
X270500Y186000D01*
X245500Y177500D02*
X262000D01*
X103500Y257500D02*
X160000D01*
X72500Y226500D02*
X103500Y257500D01*
X101000Y247500D02*
X175500D01*
X75000Y221500D02*
X101000Y247500D01*
X72500Y221500D02*
X75000D01*
X358500Y128500D02*
Y181000D01*
X326000Y213500D02*
X358500Y181000D01*
X326000Y213500D02*
Y235500D01*
X175500Y247500D02*
X185500Y257500D01*
X358500Y194000D02*
X375000Y210500D01*
X358500Y181000D02*
Y194000D01*
D11*
X288500Y282500D02*
G03*
X287500Y280086I2414J-2414D01*
G01*
X158973Y266473D02*
G03*
X156493Y267500I-2480J-2480D01*
G01*
D02*
G03*
X158973Y268527I0J3507D01*
G01*
D02*
G03*
X160000Y271007I-2480J2480D01*
G01*
D02*
G03*
X161027Y268527I3507J0D01*
G01*
X35081Y87719D02*
G03*
X36000Y89938I-2219J2219D01*
G01*
D02*
G03*
X36919Y87719I3139J0D01*
G01*
X184263Y136263D02*
G03*
X181275Y137500I-2987J-2987D01*
G01*
D02*
G03*
X184263Y138737I0J4225D01*
G01*
X186737Y128737D02*
G03*
X189725Y127500I2987J2987D01*
G01*
D02*
G03*
X186737Y126263I0J-4225D01*
G01*
X243750Y117500D02*
G03*
X242513Y120487I-4225J0D01*
G01*
X242513Y120487D02*
G03*
X245500Y119250I2987J2987D01*
G01*
X246737Y306263D02*
G03*
X245500Y303275I2987J-2987D01*
G01*
D02*
G03*
X244263Y306263I-4225J0D01*
G01*
X245500Y285750D02*
G03*
X242513Y284513I0J-4225D01*
G01*
X242513Y284513D02*
G03*
X243750Y287500I-2987J2987D01*
G01*
X244263Y296263D02*
G03*
X241275Y297500I-2987J-2987D01*
G01*
D02*
G03*
X244263Y298737I0J4225D01*
G01*
D02*
G03*
X245500Y301725I-2987J2987D01*
G01*
D02*
G03*
X246737Y298737I4225J0D01*
G01*
X58000Y125550D02*
G03*
X54671Y124171I0J-4708D01*
G01*
D02*
G03*
X56050Y127500I-3329J3329D01*
G01*
X59379Y168879D02*
G03*
X62708Y167500I3329J3329D01*
G01*
D02*
G03*
X59379Y166121I0J-4708D01*
G01*
X271527Y157027D02*
G03*
X274007Y156000I2480J2480D01*
G01*
D02*
G03*
X271527Y154973I0J-3507D01*
G01*
X160000Y271007D02*
G03*
X161027Y268527I3507J0D01*
G01*
X158973D02*
G03*
X160000Y271007I-2480J2480D01*
G01*
X156493Y267500D02*
G03*
X158973Y268527I0J3507D01*
G01*
Y266473D02*
G03*
X156493Y267500I-2480J-2480D01*
G01*
X36000Y89938D02*
G03*
X36919Y87719I3139J0D01*
G01*
X35081D02*
G03*
X36000Y89938I-2219J2219D01*
G01*
X181275Y137500D02*
G03*
X184263Y138737I0J4225D01*
G01*
Y136263D02*
G03*
X181275Y137500I-2987J-2987D01*
G01*
X189725Y127500D02*
G03*
X186737Y126263I0J-4225D01*
G01*
Y128737D02*
G03*
X189725Y127500I2987J2987D01*
G01*
X242513Y120487D02*
G03*
X245500Y119250I2987J2987D01*
G01*
X243750Y117500D02*
G03*
X242513Y120487I-4225J0D01*
G01*
X245500Y303275D02*
G03*
X244263Y306263I-4225J0D01*
G01*
X246737D02*
G03*
X245500Y303275I2987J-2987D01*
G01*
X242513Y284513D02*
G03*
X243750Y287500I-2987J2987D01*
G01*
X245500Y285750D02*
G03*
X242513Y284513I0J-4225D01*
G01*
X241275Y297500D02*
G03*
X244263Y298737I0J4225D01*
G01*
Y296263D02*
G03*
X241275Y297500I-2987J-2987D01*
G01*
X245500Y301725D02*
G03*
X246737Y298737I4225J0D01*
G01*
X244263D02*
G03*
X245500Y301725I-2987J2987D01*
G01*
X54671Y124171D02*
G03*
X56050Y127500I-3329J3329D01*
G01*
X58000Y125550D02*
G03*
X54671Y124171I0J-4708D01*
G01*
X62708Y167500D02*
G03*
X59379Y166121I0J-4708D01*
G01*
Y168879D02*
G03*
X62708Y167500I3329J3329D01*
G01*
X287500Y156000D02*
Y185000D01*
Y111000D02*
Y156000D01*
X270500D02*
X287500D01*
Y185000D02*
Y281500D01*
X288500Y282500D01*
X105500Y242000D02*
X127500D01*
X96000Y267500D02*
X160000D01*
X90953Y263453D02*
X96000Y267500D01*
X200500Y294000D02*
Y305500D01*
X190500Y315500D02*
X200500Y305500D01*
X172500Y315500D02*
X190500D01*
X160000Y303000D02*
X172500Y315500D01*
X200500Y294000D02*
X216000Y278500D01*
X218500D01*
X160000Y267500D02*
Y303000D01*
X106000Y137500D02*
X179500D01*
X76000Y167500D02*
X106000Y137500D01*
X58000Y167500D02*
X76000D01*
X179500Y137500D02*
X185500D01*
X176000Y134000D02*
X179500Y137500D01*
X176000Y114500D02*
Y134000D01*
X179500Y111000D02*
X287500D01*
X176000Y114500D02*
X179500Y111000D01*
X285000Y286000D02*
X288500Y282500D01*
X285000Y286000D02*
Y333000D01*
X230500Y132500D02*
X245500Y117500D01*
X230500Y132500D02*
Y272500D01*
X245500Y287500D01*
X237500Y297500D02*
X245500D01*
X218500Y278500D02*
X237500Y297500D01*
X218500Y145000D02*
Y278500D01*
X201000Y127500D02*
X218500Y145000D01*
X185500Y127500D02*
X201000D01*
X245500Y297500D02*
Y307500D01*
X36000Y82000D02*
Y105500D01*
X58000Y127500D01*
X55000Y248000D02*
X62500Y240500D01*
X76000D01*
D20*
X46000Y63000D02*
G03*
X42818Y70682I-10864J0D01*
G01*
X46000Y63000D02*
G03*
X42818Y70682I-10864J0D01*
G01*
X36000Y77500D02*
X50000Y63500D01*
D21*
X270500Y186000D02*
D03*
Y176000D02*
D03*
Y166000D02*
D03*
X319500Y380000D02*
D03*
X160000Y247500D02*
D03*
Y257500D02*
D03*
Y267500D02*
D03*
X110000Y276000D02*
D03*
X140000Y285500D02*
D03*
D22*
X270500Y156000D02*
D03*
X160000Y237500D02*
D03*
X140000Y275500D02*
D03*
D23*
X309500Y380000D02*
D03*
X100000Y276000D02*
D03*
D24*
X58000Y167500D02*
D03*
D25*
Y157500D02*
D03*
Y147500D02*
D03*
Y137500D02*
D03*
Y127500D02*
D03*
D26*
X378701Y15000D02*
D03*
X15000D02*
D03*
X378701Y378701D02*
D03*
X15000D02*
D03*
D27*
X245500Y257500D02*
D03*
Y297500D02*
D03*
Y277500D02*
D03*
Y267500D02*
D03*
Y217500D02*
D03*
Y227500D02*
D03*
Y237500D02*
D03*
Y247500D02*
D03*
Y287500D02*
D03*
Y307500D02*
D03*
Y207500D02*
D03*
Y187500D02*
D03*
Y147500D02*
D03*
Y137500D02*
D03*
Y127500D02*
D03*
Y117500D02*
D03*
Y167500D02*
D03*
Y177500D02*
D03*
Y197500D02*
D03*
Y157500D02*
D03*
X185500D02*
D03*
Y197500D02*
D03*
Y177500D02*
D03*
Y167500D02*
D03*
Y117500D02*
D03*
Y127500D02*
D03*
Y137500D02*
D03*
Y147500D02*
D03*
Y187500D02*
D03*
Y207500D02*
D03*
Y287500D02*
D03*
Y247500D02*
D03*
Y237500D02*
D03*
Y227500D02*
D03*
Y217500D02*
D03*
Y267500D02*
D03*
Y277500D02*
D03*
Y297500D02*
D03*
Y257500D02*
D03*
D28*
Y307500D02*
D03*
D29*
X59475Y82000D02*
D03*
X36000D02*
D03*
D30*
X50100Y63000D02*
D03*
D31*
X100000Y82000D02*
D03*
X120625D02*
D03*
D32*
X362000Y340000D02*
D03*
Y330000D02*
D03*
Y320000D02*
D03*
X274000Y294000D02*
D03*
Y284000D02*
D03*
Y274000D02*
D03*
X316000Y235500D02*
D03*
X326000D02*
D03*
X336000D02*
D03*
X257500Y367500D02*
D03*
X331000Y368500D02*
D03*
X362000Y360500D02*
D03*
X375000Y210500D02*
D03*
X295500Y195000D02*
D03*
D33*
X105500Y242000D02*
D03*
X127500D02*
D03*
X91500Y263500D02*
D03*
X72500Y221500D02*
D03*
Y226500D02*
D03*
X358500Y128500D02*
D03*
X287500Y185000D02*
D03*
Y111000D02*
D03*
X285000Y333000D02*
D03*
X288500Y282500D02*
D03*
X76000Y240500D02*
D03*
X55000Y248000D02*
D03*
D34*
X36000Y77500D02*
Y82000D01*
M02*
