%FSLAX25Y25*%
%MOIN*%
G70*
G01*
G75*
G04 Layer_Color=16711935*
%ADD10C,0.02000*%
%ADD11C,0.03000*%
%ADD12R,0.04724X0.02756*%
%ADD13R,0.05315X0.03347*%
%ADD14R,0.03347X0.05315*%
%ADD15O,0.07087X0.02441*%
%ADD16R,0.07087X0.02441*%
%ADD17R,0.12000X0.12000*%
%ADD18O,0.02362X0.07480*%
%ADD19R,0.02756X0.04724*%
%ADD20C,0.05000*%
%ADD21C,0.05906*%
%ADD22R,0.05906X0.05906*%
%ADD23R,0.05906X0.05906*%
%ADD24R,0.06900X0.06900*%
%ADD25C,0.06900*%
%ADD26C,0.15000*%
%ADD27C,0.06500*%
%ADD28R,0.06500X0.06500*%
%ADD29O,0.05600X0.15200*%
%ADD30O,0.13200X0.05600*%
%ADD31O,0.06000X0.20200*%
%ADD32C,0.06000*%
%ADD33C,0.03000*%
%ADD34C,0.01000*%
%ADD35C,0.00984*%
%ADD36C,0.00787*%
%ADD37C,0.02362*%
%ADD38C,0.01181*%
%ADD39R,0.05524X0.03556*%
%ADD40R,0.06115X0.04147*%
%ADD41R,0.04147X0.06115*%
%ADD42O,0.07887X0.03241*%
%ADD43R,0.07887X0.03241*%
%ADD44R,0.12800X0.12800*%
%ADD45O,0.03162X0.08280*%
%ADD46R,0.03556X0.05524*%
%ADD47C,0.06706*%
%ADD48R,0.06706X0.06706*%
%ADD49R,0.06706X0.06706*%
%ADD50R,0.07700X0.07700*%
%ADD51C,0.07700*%
%ADD52C,0.15800*%
%ADD53C,0.07300*%
%ADD54R,0.07300X0.07300*%
%ADD55O,0.06400X0.16000*%
%ADD56O,0.14000X0.06400*%
%ADD57O,0.06800X0.21000*%
%ADD58C,0.06800*%
%ADD59C,0.03800*%
%ADD60C,0.00394*%
D60*
X331752Y294185D02*
G03*
X331752Y294185I-1969J0D01*
G01*
X311685Y164815D02*
G03*
X311685Y164815I-1969J0D01*
G01*
X267720Y209066D02*
Y217334D01*
X272680Y209066D02*
Y217334D01*
X267720Y209066D02*
X272680D01*
X267720Y217334D02*
X272680D01*
X125720Y234334D02*
X130680D01*
X125720Y226066D02*
X130680D01*
Y234334D01*
X125720Y226066D02*
Y234334D01*
X42320Y239666D02*
X47280D01*
X42320Y247934D02*
X47280D01*
X42320Y239666D02*
Y247934D01*
X47280Y239666D02*
Y247934D01*
X71666Y245720D02*
Y250680D01*
X79934Y245720D02*
Y250680D01*
X71666D02*
X79934D01*
X71666Y245720D02*
X79934D01*
X91666Y251720D02*
Y256680D01*
X99934Y251720D02*
Y256680D01*
X91666D02*
X99934D01*
X91666Y251720D02*
X99934D01*
X42320Y216666D02*
X47280D01*
X42320Y224934D02*
X47280D01*
X42320Y216666D02*
Y224934D01*
X47280Y216666D02*
Y224934D01*
X107666Y223720D02*
Y228680D01*
X115934Y223720D02*
Y228680D01*
X107666D02*
X115934D01*
X107666Y223720D02*
X115934D01*
X116334Y207320D02*
Y212280D01*
X108066Y207320D02*
Y212280D01*
Y207320D02*
X116334D01*
X108066Y212280D02*
X116334D01*
X350334Y126320D02*
Y131280D01*
X342066Y126320D02*
Y131280D01*
Y126320D02*
X350334D01*
X342066Y131280D02*
X350334D01*
X333166Y320220D02*
Y325180D01*
X341434Y320220D02*
Y325180D01*
X333166D02*
X341434D01*
X333166Y320220D02*
X341434D01*
X311673Y297728D02*
X333327D01*
X311673Y276272D02*
X333327D01*
Y297728D01*
X311673Y276272D02*
Y297728D01*
X319334Y338320D02*
Y343280D01*
X311066Y338320D02*
Y343280D01*
Y338320D02*
X319334D01*
X311066Y343280D02*
X319334D01*
X316666Y258220D02*
Y263180D01*
X324934Y258220D02*
Y263180D01*
X316666D02*
X324934D01*
X316666Y258220D02*
X324934D01*
X333166Y337720D02*
Y342680D01*
X341434Y337720D02*
Y342680D01*
X333166D02*
X341434D01*
X333166Y337720D02*
X341434D01*
X311166Y320220D02*
Y325180D01*
X319434Y320220D02*
Y325180D01*
X311166D02*
X319434D01*
X311166Y320220D02*
X319434D01*
X319334Y356320D02*
Y361280D01*
X311066Y356320D02*
Y361280D01*
Y356320D02*
X319334D01*
X311066Y361280D02*
X319334D01*
X299320Y300166D02*
X304280D01*
X299320Y308434D02*
X304280D01*
X299320Y300166D02*
Y308434D01*
X304280Y300166D02*
Y308434D01*
X290720Y332834D02*
X295680D01*
X290720Y324566D02*
X295680D01*
Y332834D01*
X290720Y324566D02*
Y332834D01*
X347666Y258220D02*
Y263180D01*
X355934Y258220D02*
Y263180D01*
X347666D02*
X355934D01*
X347666Y258220D02*
X355934D01*
X338320Y281166D02*
X343280D01*
X338320Y289434D02*
X343280D01*
X338320Y281166D02*
Y289434D01*
X343280Y281166D02*
Y289434D01*
X364720Y268834D02*
X369680D01*
X364720Y260566D02*
X369680D01*
Y268834D01*
X364720Y260566D02*
Y268834D01*
X297720Y282334D02*
X302680D01*
X297720Y274066D02*
X302680D01*
Y282334D01*
X297720Y274066D02*
Y282334D01*
X306173Y161272D02*
X327827D01*
X306173Y182728D02*
X327827D01*
X306173Y161272D02*
Y182728D01*
X327827Y161272D02*
Y182728D01*
X293720Y158834D02*
X298680D01*
X293720Y150566D02*
X298680D01*
Y158834D01*
X293720Y150566D02*
Y158834D01*
X339720Y152834D02*
X344680D01*
X339720Y144566D02*
X344680D01*
Y152834D01*
X339720Y144566D02*
Y152834D01*
X327834Y143820D02*
Y148780D01*
X319566Y143820D02*
Y148780D01*
Y143820D02*
X327834D01*
X319566Y148780D02*
X327834D01*
X336820Y168166D02*
X341780D01*
X336820Y176434D02*
X341780D01*
X336820Y168166D02*
Y176434D01*
X341780Y168166D02*
Y176434D01*
X319666Y126220D02*
Y131180D01*
X327934Y126220D02*
Y131180D01*
X319666D02*
X327934D01*
X319666Y126220D02*
X327934D01*
X291320Y359166D02*
X296280D01*
X291320Y367434D02*
X296280D01*
X291320Y359166D02*
Y367434D01*
X296280Y359166D02*
Y367434D01*
X311666Y195720D02*
Y200680D01*
X319934Y195720D02*
Y200680D01*
X311666D02*
X319934D01*
X311666Y195720D02*
X319934D01*
X157320Y129166D02*
X162280D01*
X157320Y137434D02*
X162280D01*
X157320Y129166D02*
Y137434D01*
X162280Y129166D02*
Y137434D01*
M02*
