%FSLAX25Y25*%
%MOIN*%
G70*
G01*
G75*
%ADD10C,0.02000*%
%ADD11C,0.03000*%
%ADD12R,0.04724X0.02756*%
%ADD13R,0.05315X0.03347*%
%ADD14R,0.03347X0.05315*%
%ADD15O,0.07087X0.02441*%
%ADD16R,0.07087X0.02441*%
%ADD17R,0.12000X0.12000*%
%ADD18O,0.02362X0.07480*%
%ADD19R,0.02756X0.04724*%
%ADD20C,0.05000*%
%ADD21C,0.05906*%
%ADD22R,0.05906X0.05906*%
%ADD23R,0.05906X0.05906*%
%ADD24R,0.06900X0.06900*%
%ADD25C,0.06900*%
%ADD26C,0.12000*%
%ADD27C,0.06500*%
%ADD28R,0.06500X0.06500*%
%ADD29O,0.05600X0.15200*%
%ADD30O,0.13200X0.05600*%
%ADD31O,0.06000X0.20200*%
%ADD32C,0.06000*%
%ADD33C,0.03000*%
%ADD34C,0.01000*%
D12*
X305100Y212700D02*
D03*
X297163Y209099D02*
D03*
X305100Y205298D02*
D03*
X116100Y243298D02*
D03*
X108163Y247099D02*
D03*
X116100Y250700D02*
D03*
D13*
X270200Y208968D02*
D03*
Y217432D02*
D03*
X128200Y234432D02*
D03*
Y225968D02*
D03*
X44800Y239568D02*
D03*
Y248032D02*
D03*
Y216568D02*
D03*
Y225032D02*
D03*
X301800Y300068D02*
D03*
Y308532D02*
D03*
X293200Y332932D02*
D03*
Y324468D02*
D03*
X340800Y281068D02*
D03*
Y289532D02*
D03*
X367200Y268932D02*
D03*
Y260468D02*
D03*
X300200Y282432D02*
D03*
Y273968D02*
D03*
X296200Y158932D02*
D03*
Y150468D02*
D03*
X342200Y152932D02*
D03*
Y144468D02*
D03*
X339300Y168068D02*
D03*
Y176532D02*
D03*
X293800Y359068D02*
D03*
Y367532D02*
D03*
X159800Y129068D02*
D03*
Y137532D02*
D03*
D14*
X71568Y248200D02*
D03*
X80032D02*
D03*
X91568Y254200D02*
D03*
X100032D02*
D03*
X107568Y226200D02*
D03*
X116032D02*
D03*
X116432Y209800D02*
D03*
X107968D02*
D03*
X350432Y128800D02*
D03*
X341968D02*
D03*
X333068Y322700D02*
D03*
X341532D02*
D03*
X319432Y340800D02*
D03*
X310968D02*
D03*
X316568Y260700D02*
D03*
X325032D02*
D03*
X333068Y340200D02*
D03*
X341532D02*
D03*
X311068Y322700D02*
D03*
X319532D02*
D03*
X319432Y358800D02*
D03*
X310968D02*
D03*
X340568Y260700D02*
D03*
X349032D02*
D03*
X327932Y146300D02*
D03*
X319468D02*
D03*
X319568Y128700D02*
D03*
X328032D02*
D03*
X311568Y198200D02*
D03*
X320032D02*
D03*
D15*
X87822Y196400D02*
D03*
Y201400D02*
D03*
Y206400D02*
D03*
Y211400D02*
D03*
Y216400D02*
D03*
Y221400D02*
D03*
Y226400D02*
D03*
Y231400D02*
D03*
X64200Y196400D02*
D03*
Y201400D02*
D03*
Y206400D02*
D03*
Y211400D02*
D03*
Y216400D02*
D03*
Y221400D02*
D03*
Y226400D02*
D03*
D16*
Y231400D02*
D03*
D17*
X321750Y16000D02*
D03*
Y96000D02*
D03*
X154250D02*
D03*
Y16000D02*
D03*
D18*
X330000Y300189D02*
D03*
X325000D02*
D03*
X320000D02*
D03*
X315000D02*
D03*
X330000Y273811D02*
D03*
X325000D02*
D03*
X320000D02*
D03*
X315000D02*
D03*
X309500Y158811D02*
D03*
X314500D02*
D03*
X319500D02*
D03*
X324500D02*
D03*
X309500Y185189D02*
D03*
X314500D02*
D03*
X319500D02*
D03*
X324500D02*
D03*
D19*
X136298Y209900D02*
D03*
X140099Y217837D02*
D03*
X143700Y209900D02*
D03*
D21*
X270500Y186000D02*
D03*
Y176000D02*
D03*
Y166000D02*
D03*
X319500Y380000D02*
D03*
X160000Y247500D02*
D03*
Y257500D02*
D03*
Y267500D02*
D03*
X110000Y276000D02*
D03*
X140000Y285500D02*
D03*
D22*
X270500Y156000D02*
D03*
X160000Y237500D02*
D03*
X140000Y275500D02*
D03*
D23*
X309500Y380000D02*
D03*
X100000Y276000D02*
D03*
D24*
X58000Y167500D02*
D03*
D25*
Y157500D02*
D03*
Y147500D02*
D03*
Y137500D02*
D03*
Y127500D02*
D03*
D26*
X378701Y15000D02*
D03*
X15000D02*
D03*
X378701Y378701D02*
D03*
X15000D02*
D03*
D27*
X245500Y257500D02*
D03*
Y297500D02*
D03*
Y277500D02*
D03*
Y267500D02*
D03*
Y217500D02*
D03*
Y227500D02*
D03*
Y237500D02*
D03*
Y247500D02*
D03*
Y287500D02*
D03*
Y307500D02*
D03*
Y207500D02*
D03*
Y187500D02*
D03*
Y147500D02*
D03*
Y137500D02*
D03*
Y127500D02*
D03*
Y117500D02*
D03*
Y167500D02*
D03*
Y177500D02*
D03*
Y197500D02*
D03*
Y157500D02*
D03*
X185500D02*
D03*
Y197500D02*
D03*
Y177500D02*
D03*
Y167500D02*
D03*
Y117500D02*
D03*
Y127500D02*
D03*
Y137500D02*
D03*
Y147500D02*
D03*
Y187500D02*
D03*
Y207500D02*
D03*
Y287500D02*
D03*
Y247500D02*
D03*
Y237500D02*
D03*
Y227500D02*
D03*
Y217500D02*
D03*
Y267500D02*
D03*
Y277500D02*
D03*
Y297500D02*
D03*
Y257500D02*
D03*
D28*
Y307500D02*
D03*
D29*
X59475Y82000D02*
D03*
X36000D02*
D03*
D30*
X50100Y63000D02*
D03*
D31*
X100000Y82000D02*
D03*
X120625D02*
D03*
D32*
X362000Y340000D02*
D03*
Y330000D02*
D03*
Y320000D02*
D03*
X274000Y294000D02*
D03*
Y284000D02*
D03*
Y274000D02*
D03*
X316000Y232000D02*
D03*
X326000D02*
D03*
X336000D02*
D03*
X257500Y367500D02*
D03*
X331000Y368500D02*
D03*
X362000Y360500D02*
D03*
X375000Y210500D02*
D03*
X295500Y195000D02*
D03*
M02*
