%FSLAX25Y25*%
%MOIN*%
G70*
G01*
G75*
G04 Layer_Color=32768*
%ADD10C,0.02000*%
%ADD11C,0.03000*%
%ADD12R,0.04724X0.02756*%
%ADD13R,0.05315X0.03347*%
%ADD14R,0.03347X0.05315*%
%ADD15O,0.07087X0.02441*%
%ADD16R,0.07087X0.02441*%
%ADD17R,0.12000X0.12000*%
%ADD18O,0.02362X0.07480*%
%ADD19R,0.02756X0.04724*%
%ADD20C,0.05000*%
%ADD21C,0.05906*%
%ADD22R,0.05906X0.05906*%
%ADD23R,0.05906X0.05906*%
%ADD24R,0.06900X0.06900*%
%ADD25C,0.06900*%
%ADD26C,0.15000*%
%ADD27C,0.06500*%
%ADD28R,0.06500X0.06500*%
%ADD29O,0.05600X0.15200*%
%ADD30O,0.13200X0.05600*%
%ADD31O,0.06000X0.20200*%
%ADD32C,0.06000*%
%ADD33C,0.03000*%
%ADD34C,0.01000*%
%ADD35C,0.00984*%
%ADD36C,0.00787*%
%ADD37C,0.02362*%
%ADD38C,0.01181*%
%ADD39R,0.05524X0.03556*%
%ADD40R,0.06115X0.04147*%
%ADD41R,0.04147X0.06115*%
%ADD42O,0.07887X0.03241*%
%ADD43R,0.07887X0.03241*%
%ADD44R,0.12800X0.12800*%
%ADD45O,0.03162X0.08280*%
%ADD46R,0.03556X0.05524*%
%ADD47C,0.06706*%
%ADD48R,0.06706X0.06706*%
%ADD49R,0.06706X0.06706*%
%ADD50R,0.07700X0.07700*%
%ADD51C,0.07700*%
%ADD52C,0.15800*%
%ADD53C,0.07300*%
%ADD54R,0.07300X0.07300*%
%ADD55O,0.06400X0.16000*%
%ADD56O,0.14000X0.06400*%
%ADD57O,0.06800X0.21000*%
%ADD58C,0.06800*%
%ADD59C,0.03800*%
%ADD60C,0.00394*%
D60*
X268232Y213200D02*
X272168D01*
X270200Y211231D02*
Y215168D01*
X266755Y206901D02*
Y219499D01*
X273645Y206901D02*
Y219499D01*
X266755Y206901D02*
X273645D01*
X266755Y219499D02*
X273645D01*
X124755Y236499D02*
X131645D01*
X124755Y223901D02*
X131645D01*
Y236499D01*
X124755Y223901D02*
Y236499D01*
X128200Y228231D02*
Y232169D01*
X126232Y230200D02*
X130169D01*
X41355Y237501D02*
X48245D01*
X41355Y250099D02*
X48245D01*
X41355Y237501D02*
Y250099D01*
X48245Y237501D02*
Y250099D01*
X44800Y241832D02*
Y245769D01*
X42832Y243800D02*
X46769D01*
X69501Y244755D02*
Y251645D01*
X82099Y244755D02*
Y251645D01*
X69501D02*
X82099D01*
X69501Y244755D02*
X82099D01*
X73832Y248200D02*
X77769D01*
X75800Y246232D02*
Y250169D01*
X89501Y250755D02*
Y257645D01*
X102099Y250755D02*
Y257645D01*
X89501D02*
X102099D01*
X89501Y250755D02*
X102099D01*
X93832Y254200D02*
X97769D01*
X95800Y252232D02*
Y256169D01*
X41355Y214501D02*
X48245D01*
X41355Y227099D02*
X48245D01*
X41355Y214501D02*
Y227099D01*
X48245Y214501D02*
Y227099D01*
X44800Y218831D02*
Y222769D01*
X42832Y220800D02*
X46769D01*
X105501Y222755D02*
Y229645D01*
X118099Y222755D02*
Y229645D01*
X105501D02*
X118099D01*
X105501Y222755D02*
X118099D01*
X109832Y226200D02*
X113769D01*
X111800Y224232D02*
Y228169D01*
X118499Y206355D02*
Y213245D01*
X105901Y206355D02*
Y213245D01*
Y206355D02*
X118499D01*
X105901Y213245D02*
X118499D01*
X110231Y209800D02*
X114169D01*
X112200Y207832D02*
Y211769D01*
X352499Y125355D02*
Y132245D01*
X339901Y125355D02*
Y132245D01*
Y125355D02*
X352499D01*
X339901Y132245D02*
X352499D01*
X344231Y128800D02*
X348169D01*
X346200Y126832D02*
Y130769D01*
X331001Y319255D02*
Y326145D01*
X343599Y319255D02*
Y326145D01*
X331001D02*
X343599D01*
X331001Y319255D02*
X343599D01*
X335332Y322700D02*
X339269D01*
X337300Y320732D02*
Y324669D01*
X311280Y304323D02*
X333720D01*
X311280Y269677D02*
X333720D01*
Y304323D01*
X311280Y269677D02*
Y304323D01*
X322500Y285031D02*
Y288969D01*
X320532Y287000D02*
X324469D01*
X321499Y337355D02*
Y344245D01*
X308901Y337355D02*
Y344245D01*
Y337355D02*
X321499D01*
X308901Y344245D02*
X321499D01*
X313231Y340800D02*
X317169D01*
X315200Y338832D02*
Y342769D01*
X314501Y257255D02*
Y264145D01*
X327099Y257255D02*
Y264145D01*
X314501D02*
X327099D01*
X314501Y257255D02*
X327099D01*
X318832Y260700D02*
X322769D01*
X320800Y258732D02*
Y262669D01*
X331001Y336755D02*
Y343645D01*
X343599Y336755D02*
Y343645D01*
X331001D02*
X343599D01*
X331001Y336755D02*
X343599D01*
X335332Y340200D02*
X339269D01*
X337300Y338232D02*
Y342169D01*
X309001Y319255D02*
Y326145D01*
X321599Y319255D02*
Y326145D01*
X309001D02*
X321599D01*
X309001Y319255D02*
X321599D01*
X313332Y322700D02*
X317269D01*
X315300Y320732D02*
Y324669D01*
X321499Y355355D02*
Y362245D01*
X308901Y355355D02*
Y362245D01*
Y355355D02*
X321499D01*
X308901Y362245D02*
X321499D01*
X313231Y358800D02*
X317169D01*
X315200Y356832D02*
Y360769D01*
X298355Y298001D02*
X305245D01*
X298355Y310599D02*
X305245D01*
X298355Y298001D02*
Y310599D01*
X305245Y298001D02*
Y310599D01*
X301800Y302332D02*
Y306269D01*
X299832Y304300D02*
X303769D01*
X289755Y334999D02*
X296645D01*
X289755Y322401D02*
X296645D01*
Y334999D01*
X289755Y322401D02*
Y334999D01*
X293200Y326731D02*
Y330669D01*
X291232Y328700D02*
X295169D01*
X345501Y257255D02*
Y264145D01*
X358099Y257255D02*
Y264145D01*
X345501D02*
X358099D01*
X345501Y257255D02*
X358099D01*
X349832Y260700D02*
X353769D01*
X351800Y258732D02*
Y262669D01*
X337355Y279001D02*
X344245D01*
X337355Y291599D02*
X344245D01*
X337355Y279001D02*
Y291599D01*
X344245Y279001D02*
Y291599D01*
X340800Y283332D02*
Y287269D01*
X338832Y285300D02*
X342769D01*
X363755Y270999D02*
X370645D01*
X363755Y258401D02*
X370645D01*
Y270999D01*
X363755Y258401D02*
Y270999D01*
X367200Y262731D02*
Y266669D01*
X365232Y264700D02*
X369169D01*
X296755Y284499D02*
X303645D01*
X296755Y271901D02*
X303645D01*
Y284499D01*
X296755Y271901D02*
Y284499D01*
X300200Y276231D02*
Y280169D01*
X298232Y278200D02*
X302169D01*
X305780Y154677D02*
X328220D01*
X305780Y189323D02*
X328220D01*
X305780Y154677D02*
Y189323D01*
X328220Y154677D02*
Y189323D01*
X317000Y170032D02*
Y173969D01*
X315032Y172000D02*
X318969D01*
X292755Y160999D02*
X299645D01*
X292755Y148401D02*
X299645D01*
Y160999D01*
X292755Y148401D02*
Y160999D01*
X296200Y152731D02*
Y156669D01*
X294232Y154700D02*
X298169D01*
X338755Y154999D02*
X345645D01*
X338755Y142401D02*
X345645D01*
Y154999D01*
X338755Y142401D02*
Y154999D01*
X342200Y146731D02*
Y150669D01*
X340232Y148700D02*
X344169D01*
X329999Y142855D02*
Y149745D01*
X317401Y142855D02*
Y149745D01*
Y142855D02*
X329999D01*
X317401Y149745D02*
X329999D01*
X321731Y146300D02*
X325669D01*
X323700Y144332D02*
Y148269D01*
X335855Y166001D02*
X342745D01*
X335855Y178599D02*
X342745D01*
X335855Y166001D02*
Y178599D01*
X342745Y166001D02*
Y178599D01*
X339300Y170332D02*
Y174269D01*
X337332Y172300D02*
X341269D01*
X317501Y125255D02*
Y132145D01*
X330099Y125255D02*
Y132145D01*
X317501D02*
X330099D01*
X317501Y125255D02*
X330099D01*
X321832Y128700D02*
X325769D01*
X323800Y126732D02*
Y130669D01*
X290355Y357001D02*
X297245D01*
X290355Y369599D02*
X297245D01*
X290355Y357001D02*
Y369599D01*
X297245Y357001D02*
Y369599D01*
X293800Y361332D02*
Y365268D01*
X291831Y363300D02*
X295768D01*
X309501Y194755D02*
Y201645D01*
X322099Y194755D02*
Y201645D01*
X309501D02*
X322099D01*
X309501Y194755D02*
X322099D01*
X313831Y198200D02*
X317769D01*
X315800Y196231D02*
Y200168D01*
X156355Y127001D02*
X163245D01*
X156355Y139599D02*
X163245D01*
X156355Y127001D02*
Y139599D01*
X163245Y127001D02*
Y139599D01*
X159800Y131332D02*
Y135268D01*
X157832Y133300D02*
X161768D01*
M02*
