%FSLAX25Y25*%
%MOIN*%
G70*
G01*
G75*
G04 Layer_Physical_Order=1*
G04 Layer_Color=255*
%ADD10C,0.02000*%
%ADD11C,0.03000*%
%ADD12R,0.04724X0.02756*%
%ADD13R,0.05315X0.03347*%
%ADD14R,0.03347X0.05315*%
%ADD15O,0.07087X0.02441*%
%ADD16R,0.07087X0.02441*%
%ADD17R,0.12000X0.12000*%
%ADD18O,0.02362X0.07480*%
%ADD19R,0.02756X0.04724*%
%ADD20C,0.05000*%
%ADD21C,0.05906*%
%ADD22R,0.05906X0.05906*%
%ADD23R,0.05906X0.05906*%
%ADD24R,0.06900X0.06900*%
%ADD25C,0.06900*%
%ADD26C,0.12000*%
%ADD27C,0.06500*%
%ADD28R,0.06500X0.06500*%
%ADD29O,0.05600X0.15200*%
%ADD30O,0.13200X0.05600*%
%ADD31O,0.06000X0.20200*%
%ADD32C,0.06000*%
%ADD33C,0.03000*%
%ADD34C,0.01000*%
D10*
X358147Y128147D02*
G03*
X356569Y128800I-1578J-1578D01*
G01*
X133632Y212367D02*
G03*
X136298Y211262I2667J2667D01*
G01*
X114738Y250700D02*
G03*
X113775Y253025I-3289J0D01*
G01*
X319468Y131551D02*
G03*
X320044Y130160I1967J0D01*
G01*
X318992Y147760D02*
G03*
X319500Y148987I-1227J1227D01*
G01*
X342676Y143992D02*
G03*
X341968Y142282I1710J-1710D01*
G01*
X298740Y273492D02*
G03*
X297513Y274000I-1227J-1227D01*
G01*
X365740Y259992D02*
G03*
X364030Y260700I-1710J-1710D01*
G01*
X340568Y259043D02*
G03*
X337738Y257871I0J-4002D01*
G01*
X300143Y308532D02*
G03*
X298971Y311362I-4002J0D01*
G01*
X318956Y360260D02*
G03*
X319500Y361573I-1313J1313D01*
G01*
X322362Y319870D02*
G03*
X319532Y321042I-2829J-2829D01*
G01*
X310968Y325551D02*
G03*
X311544Y324160I1967J0D01*
G01*
X316568Y262357D02*
G03*
X319397Y263529I0J4002D01*
G01*
X317044Y259240D02*
G03*
X316000Y256720I2520J-2520D01*
G01*
X340101Y128700D02*
G03*
X341492Y129276I0J1967D01*
G01*
X105138Y212630D02*
G03*
X107968Y211457I2829J2829D01*
G01*
X107568Y224542D02*
G03*
X104738Y223371I0J-4002D01*
G01*
X296446Y208832D02*
G03*
X295500Y206548I2284J-2284D01*
G01*
X296362Y208769D02*
G03*
X295500Y207303I814J-1466D01*
G01*
X294086Y196414D02*
G03*
X295500Y199828I-3414J3414D01*
G01*
D02*
G03*
X296914Y196414I4828J0D01*
G01*
X363414Y359086D02*
G03*
X362000Y355672I3414J-3414D01*
G01*
D02*
G03*
X360586Y359086I-4828J0D01*
G01*
X329586Y367086D02*
G03*
X326172Y368500I-3414J-3414D01*
G01*
D02*
G03*
X329586Y369914I0J4828D01*
G01*
X141381Y274119D02*
G03*
X140099Y271025I3094J-3094D01*
G01*
Y270546D02*
G03*
X138619Y274119I-5053J0D01*
G01*
Y286881D02*
G03*
X140000Y290214I-3334J3334D01*
G01*
D02*
G03*
X141381Y286881I4714J0D01*
G01*
X101381Y274619D02*
G03*
X100032Y271363I3256J-3256D01*
G01*
Y271208D02*
G03*
X98619Y274619I-4824J0D01*
G01*
X334586Y233414D02*
G03*
X336000Y236828I-3414J3414D01*
G01*
D02*
G03*
X337414Y233414I4828J0D01*
G01*
X325032Y239165D02*
G03*
X327414Y233414I8133J0D01*
G01*
X314586D02*
G03*
X316000Y236828I-3414J3414D01*
G01*
D02*
G03*
X317414Y233414I4828J0D01*
G01*
X275414Y275414D02*
G03*
X278828Y274000I3414J3414D01*
G01*
D02*
G03*
X275414Y272586I0J-4828D01*
G01*
X364000Y330000D02*
G03*
X365414Y326586I4828J0D01*
G01*
X365414Y326586D02*
G03*
X362000Y328000I-3414J-3414D01*
G01*
X360586Y338586D02*
G03*
X356689Y340200I-3897J-3897D01*
G01*
X357654D02*
G03*
X360586Y341414I0J4146D01*
G01*
D02*
G03*
X362000Y344828I-3414J3414D01*
G01*
D02*
G03*
X363414Y341414I4828J0D01*
G01*
X161381Y258881D02*
G03*
X164714Y257500I3334J3334D01*
G01*
D02*
G03*
X161381Y256119I0J-4714D01*
G01*
X98586Y80586D02*
G03*
X95172Y82000I-3414J-3414D01*
G01*
D02*
G03*
X98586Y83414I0J4828D01*
G01*
X60748Y83273D02*
G03*
X63821Y82000I3073J3073D01*
G01*
D02*
G03*
X60748Y80727I0J-4346D01*
G01*
X183250Y247500D02*
G03*
X181659Y251341I-5432J0D01*
G01*
D02*
G03*
X185500Y249750I3841J3841D01*
G01*
X247091Y189091D02*
G03*
X250932Y187500I3841J3841D01*
G01*
D02*
G03*
X247091Y185909I0J-5432D01*
G01*
Y219091D02*
G03*
X251096Y217432I4005J4005D01*
G01*
X250768D02*
G03*
X247091Y215909I0J-5201D01*
G01*
X243909Y275909D02*
G03*
X238861Y278000I-5048J-5048D01*
G01*
X241275D02*
G03*
X243909Y279091I0J3725D01*
G01*
X56268Y145768D02*
G03*
X52085Y147500I-4182J-4182D01*
G01*
D02*
G03*
X56268Y149232I0J5915D01*
G01*
Y155768D02*
G03*
X52085Y157500I-4182J-4182D01*
G01*
D02*
G03*
X56268Y159232I0J5915D01*
G01*
X320881Y378619D02*
G03*
X319500Y375286I3334J-3334D01*
G01*
D02*
G03*
X318119Y378619I-4714J0D01*
G01*
X268547Y176000D02*
G03*
X267166Y179334I-4714J0D01*
G01*
X267166Y179333D02*
G03*
X270500Y177953I3334J3334D01*
G01*
X362000Y355672D02*
G03*
X360586Y359086I-4828J0D01*
G01*
X363414D02*
G03*
X362000Y355672I3414J-3414D01*
G01*
X326172Y368500D02*
G03*
X329586Y369914I0J4828D01*
G01*
Y367086D02*
G03*
X326172Y368500I-3414J-3414D01*
G01*
X140099Y270546D02*
G03*
X138619Y274119I-5053J0D01*
G01*
X141381D02*
G03*
X140099Y271025I3094J-3094D01*
G01*
X140000Y290214D02*
G03*
X141381Y286881I4714J0D01*
G01*
X138619D02*
G03*
X140000Y290214I-3334J3334D01*
G01*
X100032Y271208D02*
G03*
X98619Y274619I-4824J0D01*
G01*
X101381D02*
G03*
X100032Y271363I3256J-3256D01*
G01*
X336000Y236828D02*
G03*
X337414Y233414I4828J0D01*
G01*
X334586D02*
G03*
X336000Y236828I-3414J3414D01*
G01*
X325032Y239165D02*
G03*
X327414Y233414I8133J0D01*
G01*
X316000Y236828D02*
G03*
X317414Y233414I4828J0D01*
G01*
X314586D02*
G03*
X316000Y236828I-3414J3414D01*
G01*
X278828Y274000D02*
G03*
X275414Y272586I0J-4828D01*
G01*
Y275414D02*
G03*
X278828Y274000I3414J3414D01*
G01*
X365414Y326586D02*
G03*
X362000Y328000I-3414J-3414D01*
G01*
X364000Y330000D02*
G03*
X365414Y326586I4828J0D01*
G01*
X362000Y344828D02*
G03*
X363414Y341414I4828J0D01*
G01*
X360586D02*
G03*
X362000Y344828I-3414J3414D01*
G01*
X357654Y340200D02*
G03*
X360586Y341414I0J4146D01*
G01*
Y338586D02*
G03*
X356689Y340200I-3897J-3897D01*
G01*
X164714Y257500D02*
G03*
X161381Y256119I0J-4714D01*
G01*
Y258881D02*
G03*
X164714Y257500I3334J3334D01*
G01*
X95172Y82000D02*
G03*
X98586Y83414I0J4828D01*
G01*
Y80586D02*
G03*
X95172Y82000I-3414J-3414D01*
G01*
X63821D02*
G03*
X60748Y80727I0J-4346D01*
G01*
Y83273D02*
G03*
X63821Y82000I3073J3073D01*
G01*
X181659Y251341D02*
G03*
X185500Y249750I3841J3841D01*
G01*
X183250Y247500D02*
G03*
X181659Y251341I-5432J0D01*
G01*
X250768Y217432D02*
G03*
X247091Y215909I0J-5201D01*
G01*
Y219091D02*
G03*
X251096Y217432I4005J4005D01*
G01*
X241275Y278000D02*
G03*
X243909Y279091I0J3725D01*
G01*
Y275909D02*
G03*
X238861Y278000I-5048J-5048D01*
G01*
X52085Y147500D02*
G03*
X56268Y149232I0J5915D01*
G01*
Y145768D02*
G03*
X52085Y147500I-4182J-4182D01*
G01*
Y157500D02*
G03*
X56268Y159232I0J5915D01*
G01*
Y155768D02*
G03*
X52085Y157500I-4182J-4182D01*
G01*
X319500Y375286D02*
G03*
X318119Y378619I-4714J0D01*
G01*
X320881D02*
G03*
X319500Y375286I3334J-3334D01*
G01*
X133632Y212367D02*
G03*
X136298Y211262I2667J2667D01*
G01*
X114738Y250700D02*
G03*
X113775Y253025I-3289J0D01*
G01*
X319468Y131551D02*
G03*
X320044Y130160I1967J0D01*
G01*
X318992Y147760D02*
G03*
X319500Y148987I-1227J1227D01*
G01*
X342676Y143992D02*
G03*
X341968Y142282I1710J-1710D01*
G01*
X298740Y273492D02*
G03*
X297513Y274000I-1227J-1227D01*
G01*
X365740Y259992D02*
G03*
X364030Y260700I-1710J-1710D01*
G01*
X340568Y259043D02*
G03*
X337738Y257871I0J-4002D01*
G01*
X300143Y308532D02*
G03*
X298971Y311362I-4002J0D01*
G01*
X318956Y360260D02*
G03*
X319500Y361573I-1313J1313D01*
G01*
X322362Y319870D02*
G03*
X319532Y321042I-2829J-2829D01*
G01*
X310968Y325551D02*
G03*
X311544Y324160I1967J0D01*
G01*
X317044Y259240D02*
G03*
X316000Y256720I2520J-2520D01*
G01*
X316568Y262357D02*
G03*
X319397Y263529I0J4002D01*
G01*
X340101Y128700D02*
G03*
X341492Y129276I0J1967D01*
G01*
X105138Y212630D02*
G03*
X107968Y211457I2829J2829D01*
G01*
X107568Y224542D02*
G03*
X104738Y223371I0J-4002D01*
G01*
X358147Y128147D02*
G03*
X356569Y128800I-1578J-1578D01*
G01*
X259000Y187500D02*
X270500Y176000D01*
X245500Y187500D02*
X259000D01*
X270200Y208968D02*
X297031D01*
X281000Y168000D02*
Y208968D01*
Y168000D02*
X290068Y158932D01*
X295500Y195000D02*
Y207436D01*
X290068Y158932D02*
X296200D01*
X140000Y285500D02*
Y308500D01*
X64200Y221400D02*
X72400D01*
X64300Y226500D02*
X72500D01*
X152500Y321000D02*
X191000D01*
X140000Y308500D02*
X152500Y321000D01*
X191000D02*
X234000Y278000D01*
X51500Y157500D02*
X58000D01*
X48000Y161000D02*
X51500Y157500D01*
X48000Y161000D02*
Y196500D01*
X49000Y147500D02*
X58000D01*
X43000Y153500D02*
X49000Y147500D01*
X43000Y153500D02*
Y199000D01*
X48000Y196500D02*
X57900Y206400D01*
X64200D01*
X43000Y199000D02*
X55400Y211400D01*
X64200D01*
X100000Y276000D02*
X100032Y275968D01*
Y254200D02*
Y275968D01*
Y254200D02*
X112600D01*
X116100Y250700D01*
X116032Y226200D02*
Y243231D01*
X102768Y221400D02*
X107568Y226200D01*
X87822Y221400D02*
X102768D01*
X350432Y128800D02*
X358200D01*
X341968D02*
Y144236D01*
X328032Y128700D02*
X341868D01*
X319468Y128800D02*
Y146300D01*
X314500Y153000D02*
Y158811D01*
X311968Y150468D02*
X314500Y153000D01*
X296200Y150468D02*
X311968D01*
X314500Y158811D02*
Y169000D01*
X322032Y176532D01*
X339300D01*
X319500Y146332D02*
Y158811D01*
X309379Y158932D02*
X309500Y158811D01*
X296200Y158932D02*
X309379D01*
X175500Y257500D02*
X185500Y247500D01*
X160000Y257500D02*
X175500D01*
X234000Y278000D02*
X245000D01*
X140099Y217837D02*
Y275500D01*
X274000Y274000D02*
X300168D01*
X325032Y232968D02*
Y260700D01*
X316000Y232000D02*
Y260132D01*
X245568Y217432D02*
X270200D01*
X128200Y217798D02*
X136198Y209800D01*
X128200Y217798D02*
Y225968D01*
X136198Y209800D02*
X136298Y209900D01*
X116432Y209800D02*
X136198D01*
X101368Y216400D02*
X107968Y209800D01*
X87822Y216400D02*
X101368D01*
X300200Y273968D02*
X314843D01*
X316568Y260700D02*
X320000Y264132D01*
Y273811D01*
X325032Y260700D02*
Y273779D01*
X336000Y232000D02*
Y256132D01*
X340568Y260700D01*
X349032D02*
X366968D01*
X367200Y268932D02*
Y324800D01*
X362000Y330000D02*
X367200Y324800D01*
X316968Y308532D02*
X320000Y305500D01*
X301800Y308532D02*
X316968D01*
X320000Y300189D02*
Y305500D01*
X293200Y317132D02*
X301800Y308532D01*
X293200Y317132D02*
Y324468D01*
X341532Y306032D02*
Y322700D01*
X335689Y300189D02*
X341532Y306032D01*
X330000Y300189D02*
X335689D01*
X325000D02*
Y317232D01*
X319532Y322700D02*
X325000Y317232D01*
X310968Y322800D02*
Y340800D01*
X319532Y322700D02*
X333068D01*
Y340200D01*
X341532Y322700D02*
Y340200D01*
X361800D01*
X319432Y340800D02*
Y358800D01*
X44800Y216568D02*
X64032D01*
X59475Y82000D02*
X100000D01*
X319500Y358868D02*
Y368500D01*
Y380000D01*
Y368500D02*
X331000D01*
X362000Y340000D02*
Y360500D01*
D11*
X107223Y246159D02*
G03*
X105500Y242000I4159J-4159D01*
G01*
X154613Y127500D02*
G03*
X158693Y129190I0J5771D01*
G01*
X160907D02*
G03*
X164987Y127500I4081J4081D01*
G01*
X319859Y199184D02*
G03*
X318122Y203378I-5931J0D01*
G01*
X321049Y200450D02*
G03*
X319242Y200914I-1295J-1295D01*
G01*
X311568Y197043D02*
G03*
X309592Y196224I0J-2794D01*
G01*
X311690Y197093D02*
G03*
X309500Y191806I5288J-5288D01*
G01*
X311575Y197043D02*
G03*
X309500Y194881I88J-2161D01*
G01*
X143700Y210762D02*
G03*
X145172Y211372I0J2081D01*
G01*
X106691Y245627D02*
G03*
X107301Y247099I-1472J1472D01*
G01*
X107092Y247185D02*
G03*
X105500Y243341I3844J-3844D01*
G01*
X107105Y247196D02*
G03*
X105500Y243951I2478J-3245D01*
G01*
X328324Y154987D02*
G03*
X324500Y156571I-3824J-3824D01*
G01*
X342776Y291508D02*
G03*
X341957Y289532I1976J-1976D01*
G01*
X151068Y12818D02*
G03*
X143386Y16000I-7682J-7682D01*
G01*
D02*
G03*
X151068Y19182I0J10864D01*
G01*
X157432D02*
G03*
X165114Y16000I7682J7682D01*
G01*
D02*
G03*
X157432Y12818I0J-10864D01*
G01*
X154250Y91500D02*
G03*
X146568Y88318I0J-10864D01*
G01*
D02*
G03*
X149750Y96000I-7682J7682D01*
G01*
X318568Y92818D02*
G03*
X310886Y96000I-7682J-7682D01*
G01*
D02*
G03*
X318568Y99182I0J10864D01*
G01*
Y12818D02*
G03*
X310886Y16000I-7682J-7682D01*
G01*
D02*
G03*
X318568Y19182I0J10864D01*
G01*
X321750Y20500D02*
G03*
X329432Y23682I0J10864D01*
G01*
D02*
G03*
X326250Y16000I7682J-7682D01*
G01*
X82008Y246224D02*
G03*
X80032Y247042I-1976J-1976D01*
G01*
X77839Y242339D02*
G03*
X79859Y247216I-4877J4877D01*
G01*
X71568Y247042D02*
G03*
X69592Y246224I0J-2794D01*
G01*
X258561Y368561D02*
G03*
X261121Y367500I2561J2561D01*
G01*
D02*
G03*
X258561Y366439I0J-3621D01*
G01*
X272939Y285061D02*
G03*
X274000Y287621I-2561J2561D01*
G01*
D02*
G03*
X275061Y285061I3621J0D01*
G01*
X274000Y295500D02*
G03*
X276561Y296561I0J3621D01*
G01*
D02*
G03*
X275500Y294000I2561J-2561D01*
G01*
X275061Y292939D02*
G03*
X274000Y290379I2561J-2561D01*
G01*
D02*
G03*
X272939Y292939I-3621J0D01*
G01*
Y295061D02*
G03*
X274000Y297621I-2561J2561D01*
G01*
D02*
G03*
X275061Y295061I3621J0D01*
G01*
X363061Y318939D02*
G03*
X362000Y316379I2561J-2561D01*
G01*
D02*
G03*
X360939Y318939I-3621J0D01*
G01*
X155902Y261113D02*
G03*
X158547Y267500I-6387J6387D01*
G01*
X161027Y236473D02*
G03*
X160000Y233993I2480J-2480D01*
G01*
D02*
G03*
X158973Y236473I-3507J0D01*
G01*
X121686Y83061D02*
G03*
X124246Y82000I2561J2561D01*
G01*
D02*
G03*
X121686Y80939I0J-3621D01*
G01*
X52200Y63000D02*
G03*
X53685Y59415I5070J0D01*
G01*
X55200Y63000D02*
G03*
X58806Y54294I12313J0D01*
G01*
X35829Y82171D02*
G03*
X36000Y82100I171J171D01*
G01*
X30708Y87292D02*
G03*
X36000Y85100I5292J5292D01*
G01*
X25587Y92413D02*
G03*
X36000Y88100I10413J10413D01*
G01*
X184263Y136263D02*
G03*
X181197Y137532I-3065J-3065D01*
G01*
X181353D02*
G03*
X184263Y138737I0J4115D01*
G01*
Y126263D02*
G03*
X181275Y127500I-2987J-2987D01*
G01*
D02*
G03*
X184263Y128737I0J4225D01*
G01*
Y126263D02*
G03*
X181275Y127500I-2987J-2987D01*
G01*
D02*
G03*
X184263Y128737I0J4225D01*
G01*
X186737Y118737D02*
G03*
X189725Y117500I2987J2987D01*
G01*
D02*
G03*
X186737Y116263I0J-4225D01*
G01*
X244263D02*
G03*
X241275Y117500I-2987J-2987D01*
G01*
D02*
G03*
X244263Y118737I0J4225D01*
G01*
Y286263D02*
G03*
X241275Y287500I-2987J-2987D01*
G01*
D02*
G03*
X244263Y288737I0J4225D01*
G01*
X246737D02*
G03*
X249725Y287500I2987J2987D01*
G01*
D02*
G03*
X246737Y286263I0J-4225D01*
G01*
X59379Y128879D02*
G03*
X62708Y127500I3329J3329D01*
G01*
D02*
G03*
X59379Y126121I0J-4708D01*
G01*
X58000Y169450D02*
G03*
X61329Y170829I0J4708D01*
G01*
D02*
G03*
X59950Y167500I3329J-3329D01*
G01*
X308473Y378973D02*
G03*
X305993Y380000I-2480J-2480D01*
G01*
D02*
G03*
X308473Y381027I0J3507D01*
G01*
X269473Y164973D02*
G03*
X266993Y166000I-2480J-2480D01*
G01*
D02*
G03*
X269473Y167027I0J3507D01*
G01*
X261121Y367500D02*
G03*
X258561Y366439I0J-3621D01*
G01*
Y368561D02*
G03*
X261121Y367500I2561J2561D01*
G01*
X274000Y287621D02*
G03*
X275061Y285061I3621J0D01*
G01*
X272939D02*
G03*
X274000Y287621I-2561J2561D01*
G01*
Y290379D02*
G03*
X272939Y292939I-3621J0D01*
G01*
X275061D02*
G03*
X274000Y290379I2561J-2561D01*
G01*
Y297621D02*
G03*
X275061Y295061I3621J0D01*
G01*
X272939D02*
G03*
X274000Y297621I-2561J2561D01*
G01*
X276561Y296561D02*
G03*
X275500Y294000I2561J-2561D01*
G01*
X274000Y295500D02*
G03*
X276561Y296561I0J3621D01*
G01*
X362000Y316379D02*
G03*
X360939Y318939I-3621J0D01*
G01*
X363061D02*
G03*
X362000Y316379I2561J-2561D01*
G01*
X155902Y261113D02*
G03*
X158547Y267500I-6387J6387D01*
G01*
X160000Y233993D02*
G03*
X158973Y236473I-3507J0D01*
G01*
X161027D02*
G03*
X160000Y233993I2480J-2480D01*
G01*
X124246Y82000D02*
G03*
X121686Y80939I0J-3621D01*
G01*
Y83061D02*
G03*
X124246Y82000I2561J2561D01*
G01*
X55200Y63000D02*
G03*
X58806Y54294I12313J0D01*
G01*
X52200Y63000D02*
G03*
X53685Y59415I5070J0D01*
G01*
X25587Y92413D02*
G03*
X36000Y88100I10413J10413D01*
G01*
X30708Y87292D02*
G03*
X36000Y85100I5292J5292D01*
G01*
X35829Y82171D02*
G03*
X36000Y82100I171J171D01*
G01*
X181353Y137532D02*
G03*
X184263Y138737I0J4115D01*
G01*
Y136263D02*
G03*
X181197Y137532I-3065J-3065D01*
G01*
X181275Y127500D02*
G03*
X184263Y128737I0J4225D01*
G01*
Y126263D02*
G03*
X181275Y127500I-2987J-2987D01*
G01*
X189725Y117500D02*
G03*
X186737Y116263I0J-4225D01*
G01*
Y118737D02*
G03*
X189725Y117500I2987J2987D01*
G01*
X241275D02*
G03*
X244263Y118737I0J4225D01*
G01*
Y116263D02*
G03*
X241275Y117500I-2987J-2987D01*
G01*
Y287500D02*
G03*
X244263Y288737I0J4225D01*
G01*
Y286263D02*
G03*
X241275Y287500I-2987J-2987D01*
G01*
X249725D02*
G03*
X246737Y286263I0J-4225D01*
G01*
Y288737D02*
G03*
X249725Y287500I2987J2987D01*
G01*
X62708Y127500D02*
G03*
X59379Y126121I0J-4708D01*
G01*
Y128879D02*
G03*
X62708Y127500I3329J3329D01*
G01*
X61329Y170829D02*
G03*
X59950Y167500I3329J-3329D01*
G01*
X58000Y169450D02*
G03*
X61329Y170829I0J4708D01*
G01*
X305993Y380000D02*
G03*
X308473Y381027I0J3507D01*
G01*
Y378973D02*
G03*
X305993Y380000I-2480J-2480D01*
G01*
X160907Y129190D02*
G03*
X164987Y127500I4081J4081D01*
G01*
X154613D02*
G03*
X158693Y129190I0J5771D01*
G01*
X321049Y200450D02*
G03*
X319242Y200914I-1295J-1295D01*
G01*
X319859Y199184D02*
G03*
X318122Y203378I-5931J0D01*
G01*
X311575Y197043D02*
G03*
X309500Y194881I88J-2161D01*
G01*
X311690Y197093D02*
G03*
X309500Y191806I5288J-5288D01*
G01*
X311568Y197043D02*
G03*
X309592Y196224I0J-2794D01*
G01*
X143700Y210762D02*
G03*
X145172Y211372I0J2081D01*
G01*
X107105Y247196D02*
G03*
X105500Y243951I2478J-3245D01*
G01*
X107092Y247185D02*
G03*
X105500Y243341I3844J-3844D01*
G01*
X106691Y245627D02*
G03*
X107301Y247099I-1472J1472D01*
G01*
X328324Y154987D02*
G03*
X324500Y156571I-3824J-3824D01*
G01*
X342776Y291508D02*
G03*
X341957Y289532I1976J-1976D01*
G01*
X143386Y16000D02*
G03*
X151068Y19182I0J10864D01*
G01*
Y12818D02*
G03*
X143386Y16000I-7682J-7682D01*
G01*
X165114D02*
G03*
X157432Y12818I0J-10864D01*
G01*
Y19182D02*
G03*
X165114Y16000I7682J7682D01*
G01*
X146568Y88318D02*
G03*
X149750Y96000I-7682J7682D01*
G01*
X154250Y91500D02*
G03*
X146568Y88318I0J-10864D01*
G01*
X310886Y96000D02*
G03*
X318568Y99182I0J10864D01*
G01*
Y92818D02*
G03*
X310886Y96000I-7682J-7682D01*
G01*
X329432Y23682D02*
G03*
X326250Y16000I7682J-7682D01*
G01*
X321750Y20500D02*
G03*
X329432Y23682I0J10864D01*
G01*
X310886Y16000D02*
G03*
X318568Y19182I0J10864D01*
G01*
Y12818D02*
G03*
X310886Y16000I-7682J-7682D01*
G01*
X82008Y246224D02*
G03*
X80032Y247042I-1976J-1976D01*
G01*
X77839Y242339D02*
G03*
X79859Y247216I-4877J4877D01*
G01*
X71568Y247042D02*
G03*
X69592Y246224I0J-2794D01*
G01*
X107223Y246159D02*
G03*
X105500Y242000I4159J-4159D01*
G01*
X178000Y127500D02*
X185500D01*
X177000Y126500D02*
X178000Y127500D01*
X177000Y112500D02*
Y126500D01*
Y112500D02*
X181500Y108000D01*
X250000D01*
X258000Y116000D02*
Y161500D01*
X250000Y108000D02*
X258000Y116000D01*
X262500Y166000D02*
X270500D01*
X258000Y161500D02*
X262500Y166000D01*
X58000Y127500D02*
X185500D01*
X105500Y244436D02*
X108163Y247099D01*
X105500Y242000D02*
Y244436D01*
X127500Y242000D02*
Y311000D01*
Y235132D02*
Y242000D01*
X151000Y256211D02*
X160000Y265211D01*
X151000Y217200D02*
Y256211D01*
X143700Y209900D02*
X151000Y217200D01*
X160000Y265211D02*
Y267500D01*
X64200Y231400D02*
Y240832D01*
X44800Y239568D02*
X62936D01*
X71568Y248200D02*
Y253068D01*
X79500Y228500D02*
X82400Y231400D01*
X79500Y189000D02*
Y228500D01*
X58000Y167500D02*
X79500Y189000D01*
X200000Y327000D02*
X239500Y287500D01*
X143500Y327000D02*
X200000D01*
X127500Y311000D02*
X143500Y327000D01*
X82400Y231400D02*
X87822D01*
Y240410D01*
X127500Y235132D02*
X128200Y234432D01*
X239500Y287500D02*
X245500D01*
X309500Y185189D02*
Y196132D01*
X311568Y198200D01*
X287500Y185000D02*
X309311D01*
X300000Y96000D02*
X321750D01*
X287500Y111000D02*
X300000Y96000D01*
X285000Y333000D02*
X293132D01*
X288500Y282500D02*
X300132D01*
X324500Y161000D02*
X331568Y168068D01*
X339300D01*
X159800Y137532D02*
X185468D01*
X159500D02*
X159800D01*
X160000Y137732D02*
Y237500D01*
X255500Y287500D02*
X264500Y278500D01*
Y262000D02*
Y278500D01*
Y262000D02*
X305100Y221400D01*
X245500Y287500D02*
X255500D01*
X143700Y128200D02*
Y209900D01*
X327932Y146300D02*
Y155379D01*
X316202Y205298D02*
X323000Y198500D01*
X328000Y152932D02*
X342200D01*
X324500Y158811D02*
X327932Y155379D01*
X342200Y152932D02*
X368068D01*
X321750Y16000D02*
X368500Y62750D01*
X274000Y284000D02*
Y294000D01*
X280068Y300068D01*
X301800D01*
X263000Y334000D02*
Y353000D01*
X277532Y367532D02*
X293800D01*
X21500Y325500D02*
X30000Y334000D01*
X21500Y96500D02*
Y325500D01*
X30000Y334000D02*
X263000D01*
X21500Y96500D02*
X36000Y82000D01*
X263000Y334000D02*
X274000Y323000D01*
Y294000D02*
Y323000D01*
X305100Y205298D02*
X316202D01*
X305100Y212700D02*
Y221400D01*
X328068Y282432D02*
X330038Y280462D01*
X330644Y281068D02*
X340800D01*
X330038Y276538D02*
Y280462D01*
X300200Y282432D02*
X328068D01*
X362000Y310732D02*
Y320000D01*
X340800Y289532D02*
X362000Y310732D01*
X319968Y289532D02*
X340800D01*
X314962Y294538D02*
X319968Y289532D01*
X314962Y294538D02*
Y297462D01*
X301800Y300068D02*
X314879D01*
X293800Y333532D02*
Y359068D01*
X310700D01*
X300500Y380000D02*
X309500D01*
X293800Y373300D02*
X300500Y380000D01*
X293800Y367532D02*
Y373300D01*
X80032Y248200D02*
X87822Y240410D01*
X64200Y240832D02*
X71568Y248200D01*
X44800Y225032D02*
Y239568D01*
X185500Y117500D02*
X245500D01*
X140250Y82000D02*
X154250Y96000D01*
X120625Y82000D02*
X140250D01*
X97100Y16000D02*
X154250D01*
X50100Y63000D02*
X97100Y16000D01*
X154250D02*
X321750D01*
X91500Y254268D02*
Y263500D01*
X71568Y253068D02*
X72700Y254200D01*
X91500Y254268D01*
X76000Y240500D02*
X80032Y244532D01*
Y248200D01*
X44800Y248032D02*
X54968D01*
X277500Y367500D02*
X277532Y367532D01*
X257500Y367500D02*
X277500D01*
X263000Y353000D02*
X277500Y367500D01*
X323000Y198500D02*
X357500D01*
X368500Y187500D01*
Y62750D02*
Y187500D01*
D12*
X305100Y212700D02*
D03*
X297163Y209099D02*
D03*
X305100Y205298D02*
D03*
X116100Y243298D02*
D03*
X108163Y247099D02*
D03*
X116100Y250700D02*
D03*
D13*
X270200Y208968D02*
D03*
Y217432D02*
D03*
X128200Y234432D02*
D03*
Y225968D02*
D03*
X44800Y239568D02*
D03*
Y248032D02*
D03*
Y216568D02*
D03*
Y225032D02*
D03*
X301800Y300068D02*
D03*
Y308532D02*
D03*
X293200Y332932D02*
D03*
Y324468D02*
D03*
X340800Y281068D02*
D03*
Y289532D02*
D03*
X367200Y268932D02*
D03*
Y260468D02*
D03*
X300200Y282432D02*
D03*
Y273968D02*
D03*
X296200Y158932D02*
D03*
Y150468D02*
D03*
X342200Y152932D02*
D03*
Y144468D02*
D03*
X339300Y168068D02*
D03*
Y176532D02*
D03*
X293800Y359068D02*
D03*
Y367532D02*
D03*
X159800Y129068D02*
D03*
Y137532D02*
D03*
D14*
X71568Y248200D02*
D03*
X80032D02*
D03*
X91568Y254200D02*
D03*
X100032D02*
D03*
X107568Y226200D02*
D03*
X116032D02*
D03*
X116432Y209800D02*
D03*
X107968D02*
D03*
X350432Y128800D02*
D03*
X341968D02*
D03*
X333068Y322700D02*
D03*
X341532D02*
D03*
X319432Y340800D02*
D03*
X310968D02*
D03*
X316568Y260700D02*
D03*
X325032D02*
D03*
X333068Y340200D02*
D03*
X341532D02*
D03*
X311068Y322700D02*
D03*
X319532D02*
D03*
X319432Y358800D02*
D03*
X310968D02*
D03*
X340568Y260700D02*
D03*
X349032D02*
D03*
X327932Y146300D02*
D03*
X319468D02*
D03*
X319568Y128700D02*
D03*
X328032D02*
D03*
X311568Y198200D02*
D03*
X320032D02*
D03*
D15*
X87822Y196400D02*
D03*
Y201400D02*
D03*
Y206400D02*
D03*
Y211400D02*
D03*
Y216400D02*
D03*
Y221400D02*
D03*
Y226400D02*
D03*
Y231400D02*
D03*
X64200Y196400D02*
D03*
Y201400D02*
D03*
Y206400D02*
D03*
Y211400D02*
D03*
Y216400D02*
D03*
Y221400D02*
D03*
Y226400D02*
D03*
D16*
Y231400D02*
D03*
D17*
X321750Y16000D02*
D03*
Y96000D02*
D03*
X154250D02*
D03*
Y16000D02*
D03*
D18*
X330000Y300189D02*
D03*
X325000D02*
D03*
X320000D02*
D03*
X315000D02*
D03*
X330000Y273811D02*
D03*
X325000D02*
D03*
X320000D02*
D03*
X315000D02*
D03*
X309500Y158811D02*
D03*
X314500D02*
D03*
X319500D02*
D03*
X324500D02*
D03*
X309500Y185189D02*
D03*
X314500D02*
D03*
X319500D02*
D03*
X324500D02*
D03*
D19*
X136298Y209900D02*
D03*
X140099Y217837D02*
D03*
X143700Y209900D02*
D03*
D20*
X46000Y63000D02*
G03*
X42818Y70682I-10864J0D01*
G01*
X46000Y63000D02*
G03*
X42818Y70682I-10864J0D01*
G01*
X36000Y77500D02*
X50000Y63500D01*
D21*
X270500Y186000D02*
D03*
Y176000D02*
D03*
Y166000D02*
D03*
X319500Y380000D02*
D03*
X160000Y247500D02*
D03*
Y257500D02*
D03*
Y267500D02*
D03*
X110000Y276000D02*
D03*
X140000Y285500D02*
D03*
D22*
X270500Y156000D02*
D03*
X160000Y237500D02*
D03*
X140000Y275500D02*
D03*
D23*
X309500Y380000D02*
D03*
X100000Y276000D02*
D03*
D24*
X58000Y167500D02*
D03*
D25*
Y157500D02*
D03*
Y147500D02*
D03*
Y137500D02*
D03*
Y127500D02*
D03*
D26*
X378701Y15000D02*
D03*
X15000D02*
D03*
X378701Y378701D02*
D03*
X15000D02*
D03*
D27*
X245500Y257500D02*
D03*
Y297500D02*
D03*
Y277500D02*
D03*
Y267500D02*
D03*
Y217500D02*
D03*
Y227500D02*
D03*
Y237500D02*
D03*
Y247500D02*
D03*
Y287500D02*
D03*
Y307500D02*
D03*
Y207500D02*
D03*
Y187500D02*
D03*
Y147500D02*
D03*
Y137500D02*
D03*
Y127500D02*
D03*
Y117500D02*
D03*
Y167500D02*
D03*
Y177500D02*
D03*
Y197500D02*
D03*
Y157500D02*
D03*
X185500D02*
D03*
Y197500D02*
D03*
Y177500D02*
D03*
Y167500D02*
D03*
Y117500D02*
D03*
Y127500D02*
D03*
Y137500D02*
D03*
Y147500D02*
D03*
Y187500D02*
D03*
Y207500D02*
D03*
Y287500D02*
D03*
Y247500D02*
D03*
Y237500D02*
D03*
Y227500D02*
D03*
Y217500D02*
D03*
Y267500D02*
D03*
Y277500D02*
D03*
Y297500D02*
D03*
Y257500D02*
D03*
D28*
Y307500D02*
D03*
D29*
X59475Y82000D02*
D03*
X36000D02*
D03*
D30*
X50100Y63000D02*
D03*
D31*
X100000Y82000D02*
D03*
X120625D02*
D03*
D32*
X362000Y340000D02*
D03*
Y330000D02*
D03*
Y320000D02*
D03*
X274000Y294000D02*
D03*
Y284000D02*
D03*
Y274000D02*
D03*
X316000Y232000D02*
D03*
X326000D02*
D03*
X336000D02*
D03*
X257500Y367500D02*
D03*
X331000Y368500D02*
D03*
X362000Y360500D02*
D03*
X375000Y210500D02*
D03*
X295500Y195000D02*
D03*
D33*
X105500Y242000D02*
D03*
X127500D02*
D03*
X91500Y263500D02*
D03*
X72500Y221500D02*
D03*
Y226500D02*
D03*
X358500Y128500D02*
D03*
X287500Y185000D02*
D03*
Y111000D02*
D03*
X285000Y333000D02*
D03*
X288500Y282500D02*
D03*
X76000Y240500D02*
D03*
X55000Y248000D02*
D03*
D34*
X36000Y77500D02*
Y82000D01*
M02*
